<svg width="35" height="35" viewBox="0 0 35 35" fill="none" xmlns="http://www.w3.org/2000/svg">
<path d="M35 26.25C35 27.2814 34.5903 28.2706 33.861 28.9999C33.1317 29.7292 32.1425 30.1389 31.1111 30.1389H3.88889C2.85749 30.1389 1.86834 29.7292 1.13903 28.9999C0.409721 28.2706 0 27.2814 0 26.25V8.75C0 7.71861 0.409721 6.72945 1.13903 6.00014C1.86834 5.27084 2.85749 4.86111 3.88889 4.86111H31.1111C32.1425 4.86111 33.1317 5.27084 33.861 6.00014C34.5903 6.72945 35 7.71861 35 8.75V26.25Z" fill="#EEEEEE"/>
<path d="M20.8454 12.7215C19.578 11.8343 18.0102 11.4869 16.4866 11.7556C14.9631 12.0244 13.6088 12.8873 12.7215 14.1546C12.3025 14.7888 12.1476 15.5616 12.2898 16.3083C12.4319 17.0551 12.8599 17.7169 13.4826 18.1528C14.1053 18.5888 14.8736 18.7645 15.6239 18.6426C16.3742 18.5207 17.0473 18.1107 17.5 17.5C17.7197 17.1862 17.9991 16.9188 18.3221 16.713C18.6452 16.5073 19.0056 16.3671 19.3829 16.3006C19.7601 16.2341 20.1467 16.2426 20.5207 16.3255C20.8947 16.4085 21.2486 16.5642 21.5624 16.784C21.8761 17.0037 22.1436 17.2831 22.3493 17.6061C22.5551 17.9292 22.6953 18.2896 22.7618 18.6669C22.8283 19.0441 22.8198 19.4307 22.7369 19.8047C22.6539 20.1787 22.4982 20.5326 22.2784 20.8464C22.7179 20.2188 23.0294 19.5108 23.1952 18.7629C23.361 18.0149 23.3779 17.2416 23.2448 16.4871C23.1117 15.7326 22.8313 15.0118 22.4196 14.3657C22.0079 13.7196 21.473 13.1609 20.8454 12.7215Z" fill="#C60C30"/>
<path d="M21.5618 16.7844C20.9282 16.3407 20.1444 16.1669 19.3826 16.3011C18.6209 16.4352 17.9436 16.8665 17.4998 17.5C17.0483 18.1139 16.3745 18.5268 15.6225 18.6504C14.8705 18.7739 14.1 18.5984 13.4758 18.1612C12.8516 17.7241 12.4231 17.06 12.2822 16.3111C12.1412 15.5622 12.2988 14.7878 12.7213 14.1536C12.2691 14.7805 11.9459 15.491 11.7706 16.2438C11.5953 16.9967 11.5714 17.7769 11.7003 18.5391C11.8291 19.3012 12.1082 20.0302 12.5212 20.6836C12.9343 21.337 13.473 21.9018 14.1062 22.3451C14.7394 22.7885 15.4545 23.1015 16.2097 23.2662C16.965 23.4308 17.7454 23.4437 18.5057 23.304C19.266 23.1644 19.9909 22.8751 20.6384 22.4528C21.2859 22.0306 21.843 21.4839 22.2773 20.8444C22.4971 20.5309 22.6529 20.1772 22.7359 19.8034C22.8189 19.4297 22.8274 19.0432 22.7609 18.6661C22.6945 18.2891 22.5544 17.9288 22.3486 17.606C22.1429 17.2831 21.8755 17.0039 21.5618 16.7844Z" fill="#003478"/>
<path d="M23.6579 24.8617L25.5323 22.6275L26.2771 23.2526L24.4026 25.4868L23.6579 24.8617ZM26.1565 21.8837L28.0309 19.6506L28.7757 20.2757L26.9012 22.5089L26.1565 21.8837ZM25.1473 26.1139L27.0218 23.8807L27.7665 24.5058L25.892 26.739L25.1473 26.1139ZM27.6479 23.1331L29.5243 20.8999L30.269 21.526L28.3926 23.7582L27.6479 23.1331ZM26.6358 27.3642L28.5122 25.131L29.2559 25.7561L27.3805 27.9893L26.6358 27.3642ZM29.1354 24.3843L31.0089 22.1482L31.7545 22.7733L29.8811 25.0094L29.1354 24.3843ZM29.1393 10.6157L29.884 9.99055L31.7604 12.2257L31.0147 12.8508L29.1393 10.6157ZM26.6387 7.63486L27.3834 7.00972L29.2579 9.24486L28.5122 9.86903L26.6387 7.63486ZM25.1483 8.88708L25.893 8.26194L30.268 13.475L29.5233 14.1001L25.1483 8.88708ZM23.6589 10.1354L24.4045 9.51027L26.278 11.7444L25.5333 12.3686L23.6589 10.1354ZM26.1575 13.1153L26.9022 12.4901L28.7786 14.7233L28.0348 15.3485L26.1575 13.1153ZM6.22205 20.2747L6.96677 19.6496L11.3408 24.8636L10.5951 25.4887L6.22205 20.2747ZM4.73455 21.525L5.4783 20.9008L7.35372 23.135L6.60802 23.7601L4.73455 21.525ZM7.23024 24.5058L7.97497 23.8807L9.85135 26.1139L9.10663 26.739L7.23024 24.5058ZM3.24316 22.7743L3.98788 22.1492L8.36288 27.3622L7.61719 27.9874L3.24316 22.7743ZM3.24219 12.2237L7.61524 7.01069L8.36094 7.63486L3.98594 12.8489L3.24219 12.2237ZM4.73163 13.475L9.10663 8.26097L9.85135 8.88611L5.47635 14.0992L4.73163 13.475ZM6.22205 14.7243L10.597 9.51027L11.3418 10.1354L6.96677 15.3494L6.22205 14.7243Z" fill="#292F33"/>
</svg>
