<svg width="35" height="35" viewBox="0 0 35 35" fill="none" xmlns="http://www.w3.org/2000/svg">
<path d="M34.4604 6.80556C33.7867 5.64764 32.5471 4.86111 31.1111 4.86111H17.5V6.80556H34.4604ZM0 24.3056H35V26.25H0V24.3056ZM17.5 16.5278H35V18.4722H17.5V16.5278ZM17.5 12.6389H35V14.5833H17.5V12.6389ZM0 20.4167H35V22.3611H0V20.4167ZM3.88889 30.1389H31.1111C32.5471 30.1389 33.7867 29.3524 34.4604 28.1944H0.539583C1.21333 29.3524 2.45292 30.1389 3.88889 30.1389ZM17.5 8.75H35V10.6944H17.5V8.75Z" fill="#B22334"/>
<path d="M0.0661111 26.9101C0.0823148 27.0009 0.101435 27.0907 0.123472 27.1794C0.149398 27.2767 0.179213 27.3726 0.212917 27.4672C0.299444 27.719 0.404444 27.9621 0.536667 28.1896L0.539583 28.1944H34.4604L34.4624 28.1906C34.5941 27.962 34.7023 27.7206 34.7851 27.4701C34.8482 27.2874 34.8976 27.1002 34.9329 26.9101C34.9728 26.6963 35 26.4765 35 26.25H0C0 26.4765 0.0272222 26.6953 0.0661111 26.9101ZM0 22.3611H35V24.3056H0V22.3611ZM0 18.4722V20.4167H35V18.4722H17.5H0ZM17.5 14.5833H35V16.5278H17.5V14.5833ZM17.5 10.6944H35V12.6389H17.5V10.6944ZM0.124444 7.82056C0.14875 7.72139 0.182778 7.62709 0.213889 7.53181C0.180343 7.62686 0.150506 7.72318 0.124444 7.82056ZM17.5 8.75H35C35 8.52347 34.9728 8.30375 34.9329 8.08889C34.8989 7.89843 34.8491 7.71113 34.7842 7.52889C34.7012 7.27738 34.5927 7.03501 34.4604 6.80556H17.5V8.75Z" fill="#EEEEEE"/>
<path d="M17.5 4.86111H3.88889C2.85749 4.86111 1.86834 5.27083 1.13903 6.00014C0.409721 6.72945 0 7.7186 0 8.75L0 18.4722H17.5V4.86111Z" fill="#3C3B6E"/>
<path d="M1.94531 7.51139L2.54615 7.94792L2.3167 8.65278L2.91656 8.21722L3.5174 8.65278L3.28795 7.94792L3.88878 7.51139H3.14601L2.91656 6.80556L2.68809 7.51139H1.94531ZM3.88976 9.45584L4.49059 9.89236L4.26115 10.5972L4.86101 10.1617L5.46184 10.5972L5.2324 9.89236L5.83323 9.45584H5.09045L4.86101 8.75L4.63253 9.45584H3.88976ZM7.77865 9.45584L8.37948 9.89236L8.15003 10.5972L8.7499 10.1617L9.35073 10.5972L9.12128 9.89236L9.72212 9.45584H8.97934L8.7499 8.75L8.52142 9.45584H7.77865ZM11.6675 9.45584L12.2684 9.89236L12.0389 10.5972L12.6388 10.1617L13.2396 10.5972L13.0102 9.89236L13.611 9.45584H12.8682L12.6388 8.75L12.4103 9.45584H11.6675ZM3.88976 13.3447L4.49059 13.7813L4.26115 14.4861L4.86101 14.0506L5.46184 14.4861L5.2324 13.7813L5.83323 13.3447H5.09045L4.86101 12.6389L4.63253 13.3447H3.88976ZM7.77865 13.3447L8.37948 13.7813L8.15003 14.4861L8.7499 14.0506L9.35073 14.4861L9.12128 13.7813L9.72212 13.3447H8.97934L8.7499 12.6389L8.52142 13.3447H7.77865ZM11.6675 13.3447L12.2684 13.7813L12.0389 14.4861L12.6388 14.0506L13.2396 14.4861L13.0102 13.7813L13.611 13.3447H12.8682L12.6388 12.6389L12.4103 13.3447H11.6675ZM5.8342 7.51139L6.43503 7.94792L6.20559 8.65278L6.80545 8.21722L7.40628 8.65278L7.17684 7.94792L7.77767 7.51139H7.0349L6.80545 6.80556L6.57698 7.51139H5.8342ZM9.72309 7.51139L10.3239 7.94792L10.0945 8.65278L10.6943 8.21722L11.2952 8.65278L11.0657 7.94792L11.6666 7.51139H10.9238L10.6943 6.80556L10.4659 7.51139H9.72309ZM13.612 7.51139L14.2128 7.94792L13.9834 8.65278L14.5832 8.21722L15.1841 8.65278L14.9546 7.94792L15.5555 7.51139H14.8127L14.5832 6.80556L14.3548 7.51139H13.612ZM1.94531 11.4003L2.54615 11.8368L2.3167 12.5417L2.91656 12.1061L3.5174 12.5417L3.28795 11.8368L3.88878 11.4003H3.14601L2.91656 10.6944L2.68809 11.4003H1.94531ZM6.20559 12.5417L6.80545 12.1061L7.40628 12.5417L7.17684 11.8368L7.77767 11.4003H7.0349L6.80545 10.6944L6.57698 11.4003H5.8342L6.43503 11.8368L6.20559 12.5417ZM9.72309 11.4003L10.3239 11.8368L10.0945 12.5417L10.6943 12.1061L11.2952 12.5417L11.0657 11.8368L11.6666 11.4003H10.9238L10.6943 10.6944L10.4659 11.4003H9.72309ZM13.612 11.4003L14.2128 11.8368L13.9834 12.5417L14.5832 12.1061L15.1841 12.5417L14.9546 11.8368L15.5555 11.4003H14.8127L14.5832 10.6944L14.3548 11.4003H13.612ZM1.94531 15.2892L2.54615 15.7257L2.3167 16.4306L2.91656 15.995L3.5174 16.4306L3.28795 15.7257L3.88878 15.2892H3.14601L2.91656 14.5833L2.68809 15.2892H1.94531ZM6.20559 16.4306L6.80545 15.995L7.40628 16.4306L7.17684 15.7257L7.77767 15.2892H7.0349L6.80545 14.5833L6.57698 15.2892H5.8342L6.43503 15.7257L6.20559 16.4306ZM9.72309 15.2892L10.3239 15.7257L10.0945 16.4306L10.6943 15.995L11.2952 16.4306L11.0657 15.7257L11.6666 15.2892H10.9238L10.6943 14.5833L10.4659 15.2892H9.72309ZM13.612 15.2892L14.2128 15.7257L13.9834 16.4306L14.5832 15.995L15.1841 16.4306L14.9546 15.7257L15.5555 15.2892H14.8127L14.5832 14.5833L14.3548 15.2892H13.612Z" fill="white"/>
</svg>
