<svg width="55" height="55" viewBox="0 0 55 55" fill="none" xmlns="http://www.w3.org/2000/svg">
<path d="M27.5015 54.9999C41.8456 54.9999 53.4737 43.3718 53.4737 29.0277C53.4737 14.6836 41.8456 3.05548 27.5015 3.05548C13.1575 3.05548 1.5293 14.6836 1.5293 29.0277C1.5293 43.3718 13.1575 54.9999 27.5015 54.9999Z" fill="#F4900C"/>
<path d="M27.5015 51.9444C41.8456 51.9444 53.4737 40.3163 53.4737 25.9722C53.4737 11.6282 41.8456 0 27.5015 0C13.1575 0 1.5293 11.6282 1.5293 25.9722C1.5293 40.3163 13.1575 51.9444 27.5015 51.9444Z" fill="#FFCC4D"/>
<path d="M27.5002 48.889C39.313 48.889 48.8891 39.3128 48.8891 27.5001C48.8891 15.6873 39.313 6.11119 27.5002 6.11119C15.6875 6.11119 6.11133 15.6873 6.11133 27.5001C6.11133 39.3128 15.6875 48.889 27.5002 48.889Z" fill="#FFE8B6"/>
<path d="M27.5002 47.3611C39.313 47.3611 48.8891 37.785 48.8891 25.9722C48.8891 14.1595 39.313 4.58333 27.5002 4.58333C15.6875 4.58333 6.11133 14.1595 6.11133 25.9722C6.11133 37.785 15.6875 47.3611 27.5002 47.3611Z" fill="#FFAC33"/>
<path d="M14.5801 16.5856C14.5801 15.7529 15.3974 15.4199 15.3974 15.4199L27.4333 9.76711L39.5837 15.4199C39.5837 15.4199 40.4209 15.6063 40.4209 16.5917V17.571H14.5801V16.5856Z" fill="#FFE8B6"/>
<path d="M39.6119 19.6107C39.6119 18.7185 38.8404 17.9958 37.8901 17.9958H17.0008C16.049 17.9958 15.3859 18.7185 15.3859 19.6107C15.3859 20.2172 15.6976 20.7397 16.1941 21.0163V22.0338H19.4239V21.2256H22.6536V22.0338H25.8833V21.2256H29.113V22.0338H32.3428V21.2256H35.5725V22.0338H38.8037V20.975C39.288 20.6878 39.6119 20.1852 39.6119 19.6107ZM42.0334 36.6668C42.0334 36.9881 41.9058 37.2963 41.6786 37.5235C41.4514 37.7507 41.1432 37.8783 40.8219 37.8783H14.1744C13.8531 37.8783 13.5449 37.7507 13.3177 37.5235C13.0905 37.2963 12.9629 36.9881 12.9629 36.6668C12.9629 36.3455 13.0905 36.0373 13.3177 35.8101C13.5449 35.5829 13.8531 35.4553 14.1744 35.4553H40.8234C41.4911 35.4553 42.0334 35.9977 42.0334 36.6668Z" fill="#F4900C"/>
<path d="M40.4211 18.6387C40.4207 18.8529 40.3354 19.0582 40.184 19.2097C40.0325 19.3612 39.8272 19.4465 39.6129 19.4469H15.387C15.1812 19.4342 14.988 19.3435 14.8468 19.1934C14.7056 19.0432 14.627 18.8448 14.627 18.6387C14.627 18.4325 14.7056 18.2341 14.8468 18.084C14.988 17.9338 15.1812 17.8431 15.387 17.8305L39.6129 17.8351C39.7188 17.8346 39.8237 17.8551 39.9216 17.8953C40.0196 17.9355 40.1086 17.9946 40.1837 18.0692C40.2588 18.1439 40.3184 18.2326 40.3591 18.3303C40.3999 18.428 40.4209 18.5328 40.4211 18.6387ZM18.6182 19.5767H36.3847V21.3887H18.6182V19.5767Z" fill="#F4900C"/>
<path d="M19.4227 31.8221C19.4227 32.7143 18.9399 33.437 18.3456 33.437H17.2685C16.6742 33.437 16.1914 32.7143 16.1914 31.8221V19.5785C16.1914 18.6863 16.6742 17.9636 17.2685 17.9636H18.3456C18.9399 17.9636 19.4227 18.6863 19.4227 19.5785V31.8221ZM38.804 31.8221C38.804 32.7143 38.3228 33.437 37.727 33.437H36.6499C36.0556 33.437 35.5728 32.7143 35.5728 31.8221V19.5785C35.5728 18.6863 36.054 17.9636 36.6499 17.9636H37.727C38.3213 17.9636 38.804 18.6863 38.804 19.5785V31.8221ZM25.8836 31.8221C25.8836 32.7143 25.4009 33.437 24.8065 33.437H23.7295C23.1352 33.437 22.6524 32.7143 22.6524 31.8221V19.5785C22.6524 18.6863 23.1352 17.9636 23.7295 17.9636H24.8065C25.4009 17.9636 25.8836 18.6863 25.8836 19.5785V31.8221ZM32.3431 31.8221C32.3431 32.7143 31.8603 33.437 31.266 33.437H30.1904C29.5961 33.437 29.1133 32.7143 29.1133 31.8221V19.5785C29.1133 18.6863 29.5961 17.9636 30.1904 17.9636H31.266C31.8603 17.9636 32.3431 18.6863 32.3431 19.5785V31.8221Z" fill="#FFD983"/>
<path d="M39.6127 32.6289C39.6127 33.5211 38.8901 34.2438 37.9978 34.2438H17.0016C16.5733 34.2438 16.1625 34.0736 15.8597 33.7708C15.5569 33.4679 15.3867 33.0572 15.3867 32.6289C15.3867 32.2006 15.5569 31.7899 15.8597 31.487C16.1625 31.1842 16.5733 31.014 17.0016 31.014H37.9978C38.8885 31.014 39.6127 31.7367 39.6127 32.6289Z" fill="#FFCC4D"/>
<path d="M41.2326 34.2436C41.2326 35.1358 40.51 35.8584 39.6178 35.8584H15.3903C14.962 35.8584 14.5512 35.6883 14.2484 35.3855C13.9455 35.0826 13.7754 34.6719 13.7754 34.2436C13.7754 33.8153 13.9455 33.4045 14.2484 33.1017C14.5512 32.7989 14.962 32.6287 15.3903 32.6287H39.6162C40.5084 32.6287 41.2326 33.3514 41.2326 34.2436Z" fill="#FFD983"/>
<path d="M42.0334 35.4552C42.0334 35.7765 41.9058 36.0846 41.6786 36.3118C41.4514 36.5391 41.1432 36.6667 40.8219 36.6667H14.1744C14.0153 36.6667 13.8578 36.6354 13.7108 36.5745C13.5638 36.5136 13.4302 36.4243 13.3177 36.3118C13.2052 36.1993 13.116 36.0658 13.0551 35.9188C12.9942 35.7718 12.9629 35.6143 12.9629 35.4552C12.9629 35.2961 12.9942 35.1385 13.0551 34.9915C13.116 34.8445 13.2052 34.711 13.3177 34.5985C13.4302 34.486 13.5638 34.3967 13.7108 34.3359C13.8578 34.275 14.0153 34.2436 14.1744 34.2436H40.8234C41.4911 34.2436 42.0334 34.786 42.0334 35.4552Z" fill="#FFD983"/>
<path d="M39.6127 18.7704C39.6127 17.8781 38.8412 17.1555 37.8909 17.1555H17.0016C16.0498 17.1555 15.3867 17.8781 15.3867 18.7704C15.3867 19.3769 15.6984 19.8994 16.1949 20.1759V21.1934H19.4246V20.3852H22.6544V21.1934H25.8841V20.3852H29.1138V21.1934H32.3435V20.3852H35.5732V21.1934H38.8045V20.1347C39.2888 19.8474 39.6127 19.3448 39.6127 18.7704Z" fill="#FFCC4D"/>
<path d="M14.5801 17.513C14.5801 16.6804 15.3974 16.3473 15.3974 16.3473L27.4333 10.6945L39.5837 16.3473C39.5837 16.3473 40.4209 16.5337 40.4209 17.5191V17.9637H14.5801V17.513Z" fill="#FFD983"/>
<path d="M27.497 12.7463C27.497 12.7463 19.1629 16.6742 18.3318 17.0286C17.4992 17.3816 17.7772 17.9621 18.3334 17.9621H36.6209C37.4795 17.9621 37.2763 17.3067 36.5949 16.9522C35.9135 16.5993 27.497 12.7463 27.497 12.7463Z" fill="#FFAC33"/>
<path d="M40.4211 17.9621C40.4207 18.1763 40.3354 18.3817 40.184 18.5332C40.0325 18.6846 39.8272 18.7699 39.6129 18.7703H15.387C15.1812 18.7577 14.988 18.667 14.8468 18.5168C14.7056 18.3667 14.627 18.1683 14.627 17.9621C14.627 17.756 14.7056 17.5576 14.8468 17.4074C14.988 17.2572 15.1812 17.1666 15.387 17.1539L39.6129 17.1585C39.7188 17.1581 39.8237 17.1786 39.9216 17.2188C40.0196 17.259 40.1086 17.3181 40.1837 17.3927C40.2588 17.4674 40.3184 17.5561 40.3591 17.6538C40.3999 17.7515 40.4209 17.8563 40.4211 17.9621Z" fill="#FFD983"/>
</svg>
