<?xml version="1.0" encoding="UTF-8"?>
<svg version="1.1" xmlns="http://www.w3.org/2000/svg" width="1254" height="1254">
<path d="M0 0 C0.70467911 -0.0065712 1.40935822 -0.0131424 2.13539124 -0.01991272 C4.46322756 -0.03958974 6.79099935 -0.05129915 9.11889648 -0.0612793 C10.31741399 -0.06739259 10.31741399 -0.06739259 11.54014397 -0.07362938 C15.7738303 -0.09447175 20.00748445 -0.10877831 24.24121094 -0.11816406 C28.58973618 -0.12919194 32.93774458 -0.16355468 37.28608799 -0.20333576 C40.6501096 -0.22963298 44.01401082 -0.2378677 47.37812614 -0.24144554 C48.97952684 -0.24628202 50.58092323 -0.25781097 52.18222237 -0.27648354 C65.30881139 -0.41997084 76.5764381 1.42308482 86.92749023 10.17700195 C94.4572791 18.12697992 97.97831627 27.59922832 98.1328125 38.43603516 C98.15275772 39.67694412 98.17270294 40.91785309 98.19325256 42.19636536 C98.2102328 43.54017006 98.22711176 44.88397604 98.24389648 46.2277832 C98.2644855 47.61069839 98.28548246 48.99360755 98.30686951 50.37651062 C98.36188923 54.00468044 98.41138654 57.63290516 98.4597168 61.26116943 C98.51007922 64.96818895 98.5656881 68.67512941 98.62084961 72.38208008 C98.72818508 79.64698695 98.82968396 86.91195987 98.92749023 94.17700195 C99.54909531 94.31602936 100.17070038 94.45505676 100.81114197 94.59829712 C103.67204318 95.23949436 106.53218772 95.88400839 109.39233398 96.52856445 C110.36988647 96.74714111 111.34743896 96.96571777 112.35461426 97.19091797 C120.24507736 98.97290108 128.00060647 101.04397623 135.71557617 103.47924805 C137.25588857 103.9651435 138.79839382 104.44411897 140.3425293 104.91772461 C176.31203731 115.98900313 211.43090913 135.06541316 237.92749023 162.17700195 C237.92749023 162.83700195 237.92749023 163.49700195 237.92749023 164.17700195 C238.58749023 164.17700195 239.24749023 164.17700195 239.92749023 164.17700195 C253.48422017 178.82450327 264.43170387 197.34536893 270.92749023 216.17700195 C271.4940332 217.81475586 271.4940332 217.81475586 272.07202148 219.4855957 C280.25060555 245.49165514 283.28658214 280.51164005 271.61499023 305.86450195 C270.76491463 307.32952587 269.86885029 308.76889512 268.92749023 310.17700195 C268.4131543 310.96204102 267.89881836 311.74708008 267.36889648 312.5559082 C261.98369774 320.10513601 253.91612173 326.29945916 244.83374023 328.73950195 C240.77364276 329.35069942 236.77780153 329.36129357 232.67749023 329.36450195 C231.86924805 329.37674805 231.06100586 329.38899414 230.22827148 329.40161133 C211.41981047 329.44675163 197.1277065 318.72153303 183.11499023 307.30200195 C144.03368681 275.60413696 93.51823954 249.61541468 42.22436523 248.90356445 C41.39705902 248.89103638 40.56975281 248.8785083 39.71737671 248.86560059 C20.23278044 248.62808067 1.893568 249.18419434 -17.07250977 254.17700195 C-17.95471191 254.40693848 -18.83691406 254.636875 -19.74584961 254.8737793 C-39.16803578 260.114098 -58.39673894 268.44719293 -73.91625977 281.38012695 C-76.07250977 283.17700195 -76.07250977 283.17700195 -78.35375977 284.72387695 C-78.92094727 285.2034082 -79.48813477 285.68293945 -80.07250977 286.17700195 C-80.07250977 287.16700195 -80.07250977 288.15700195 -80.07250977 289.17700195 C-63.8445861 298.99250517 -46.53692404 306.90699796 -29.09741211 314.31469727 C-26.88347529 315.25750229 -24.67540384 316.213406 -22.46704102 317.16918945 C-14.19692459 320.72541518 -5.90517072 324.04395032 2.60986328 326.96728516 C7.52235945 328.65837955 12.35205506 330.50290456 17.17749023 332.42700195 C25.0531045 335.54931808 33.03486823 338.31772287 41.05249023 341.05200195 C54.1116185 345.50927884 67.03852769 350.25189665 79.92749023 355.17700195 C81.79198518 355.88686956 83.65656754 356.59650762 85.52124023 357.3059082 C88.20411611 358.32675544 90.88649231 359.34879973 93.56713867 360.37548828 C97.33905541 361.81923432 101.11197804 363.25366208 104.91186523 364.62231445 C115.26788884 368.36722806 125.30009045 372.7694748 135.35327148 377.2590332 C139.64568263 379.17532225 143.95281805 381.04683824 148.28295898 382.8762207 C162.76723957 389.03203995 176.40627447 396.1296748 189.92749023 404.17700195 C190.80445557 404.69536621 191.6814209 405.21373047 192.58496094 405.74780273 C207.23827447 414.45776632 221.12637751 424.5338786 233.66186523 436.09887695 C235.72926903 437.99518526 237.84499116 439.80729801 239.98999023 441.61450195 C272.45768917 469.96657708 292.83233889 514.54673154 295.92749023 557.17700195 C297.27535199 582.05217418 294.75119674 606.47595618 286.92749023 630.17700195 C286.58331055 631.22629883 286.23913086 632.2755957 285.88452148 633.35668945 C279.85399665 650.12024224 271.80179764 666.22062133 261.16040039 680.5090332 C260.02601182 682.04371493 258.93355739 683.60916035 257.84545898 685.17700195 C252.80039965 692.41065119 247.02559954 698.83594009 240.92749023 705.17700195 C240.43700195 705.6894043 239.94651367 706.20180664 239.44116211 706.72973633 C212.0759188 735.16532814 176.22435622 754.15605799 138.92749023 766.17700195 C138.09185547 766.44641602 137.2562207 766.71583008 136.39526367 766.9934082 C107.56898329 776.17700195 107.56898329 776.17700195 97.92749023 776.17700195 C97.93193146 776.86889618 97.93637268 777.56079041 97.94094849 778.27365112 C97.98123018 784.83391757 98.01157793 791.39414887 98.03111458 797.95451164 C98.04149662 801.32625534 98.05555207 804.69789578 98.07836914 808.06958008 C98.10277304 811.95697703 98.11400906 815.84422956 98.12280273 819.73168945 C98.13312531 820.92688202 98.14344788 822.12207458 98.15408325 823.35348511 C98.15579765 836.29619424 96.28063927 846.52144385 87.42749023 856.36450195 C76.67584464 866.16948433 65.58509082 867.07979999 51.79858398 866.9387207 C50.07470942 866.94022752 48.35083558 866.94366826 46.62696838 866.94892883 C43.03546595 866.95323252 39.44487009 866.93663329 35.85351562 866.90429688 C31.28195404 866.86448839 26.71208726 866.87384939 22.14047146 866.89853191 C18.58757465 866.91280615 15.03506458 866.90255716 11.4821949 866.8850193 C9.79793283 866.87922743 8.11363019 866.88038481 6.42938042 866.88904381 C-6.87560584 866.93469395 -18.0357851 865.18098773 -28.09594727 855.55981445 C-34.31285146 848.06512758 -37.13378198 839.80355573 -37.27783203 830.19335938 C-37.29777725 829.01251266 -37.31772247 827.83166595 -37.33827209 826.61503601 C-37.36334084 824.71791618 -37.36334084 824.71791618 -37.38891602 822.7824707 C-37.40969711 821.47997879 -37.43047821 820.17748688 -37.45188904 818.83552551 C-37.50689161 815.38490932 -37.55639635 811.93423561 -37.60473633 808.48352051 C-37.65511141 804.9574679 -37.71071364 801.43149808 -37.76586914 797.90551758 C-37.87318355 790.99608425 -37.97468701 784.08657601 -38.07250977 777.17700195 C-38.85623459 776.98360733 -39.63995941 776.79021271 -40.44743347 776.59095764 C-44.06657345 775.69636515 -47.6847752 774.79803122 -51.30297852 773.8996582 C-52.53528198 773.59564087 -53.76758545 773.29162354 -55.03723145 772.97839355 C-71.79236137 768.81098593 -88.19758955 763.99564138 -104.07250977 757.17700195 C-105.33882313 756.66116985 -106.60576847 756.14688689 -107.87329102 755.6340332 C-125.99705486 748.16759273 -142.71304893 737.58644557 -158.32250977 725.80200195 C-158.89662598 725.37266357 -159.47074219 724.9433252 -160.06225586 724.50097656 C-161.43820213 723.44205204 -162.76114593 722.31492734 -164.07250977 721.17700195 C-164.07250977 720.51700195 -164.07250977 719.85700195 -164.07250977 719.17700195 C-164.62938477 718.95012695 -165.18625977 718.72325195 -165.76000977 718.48950195 C-168.07526027 717.17544086 -169.71115957 715.69188565 -171.53735352 713.77075195 C-172.68837691 712.57579637 -173.87429514 711.41428994 -175.07641602 710.27075195 C-200.95874756 685.42371367 -217.31543978 648.4850405 -218.31079102 612.61450195 C-218.50839956 599.21754065 -218.5987894 586.89443816 -214.07250977 574.17700195 C-213.7721582 573.2334082 -213.47180664 572.28981445 -213.16235352 571.31762695 C-209.55802834 561.01955503 -201.88181391 551.66756158 -192.13110352 546.66918945 C-177.31769309 540.43008759 -164.55237974 541.8235594 -149.95141602 547.3605957 C-140.75966652 551.56360735 -132.98726358 557.99148868 -125.07250977 564.17700195 C-122.80441818 565.93056707 -120.53229707 567.67887837 -118.26000977 569.42700195 C-117.72811035 569.83660156 -117.19621094 570.24620117 -116.64819336 570.66821289 C-86.90724328 593.54303102 -54.49239489 610.02234794 -18.07250977 619.17700195 C-17.31945557 619.36858887 -16.56640137 619.56017578 -15.79052734 619.75756836 C27.42613057 630.1027927 78.89380276 626.1220161 117.39233398 602.97387695 C118.18244873 602.48371094 118.97256348 601.99354492 119.78662109 601.48852539 C121.60391134 600.37523047 123.4798057 599.35850834 125.36499023 598.36450195 C131.5132929 594.89321145 138.00725793 590.05735041 141.92749023 584.17700195 C141.41057617 583.91918945 140.89366211 583.66137695 140.36108398 583.39575195 C138.49709215 582.46226006 136.63556898 581.5238373 134.77514648 580.58325195 C126.00268871 576.15941339 117.16963595 571.87751965 108.28710938 567.67895508 C104.42780599 565.85306401 100.58612677 564.01178791 96.78686523 562.0637207 C93.01069893 560.16332808 89.15361757 558.66468012 85.17749023 557.23950195 C80.46519278 555.53783899 75.822092 553.72956648 71.20483398 551.7824707 C64.94482086 549.15487763 58.61267804 546.76578874 52.23999023 544.42700195 C51.07226074 543.99653564 49.90453125 543.56606934 48.70141602 543.12255859 C36.79948825 538.74418325 24.8662314 534.45373262 12.92749023 530.17700195 C5.4846259 527.5092048 -1.956474 524.83669955 -9.39135742 522.14672852 C-11.01026503 521.56119755 -12.62960341 520.97685304 -14.24975586 520.39477539 C-26.36515663 516.03212665 -38.22253572 511.03062164 -50.10375977 506.07543945 C-54.13742248 504.39330245 -58.17427882 502.72238519 -62.22875977 501.09106445 C-71.07183355 497.53124528 -79.59083593 493.536298 -88.07250977 489.17700195 C-89.28863291 488.57535835 -90.50611528 487.97645541 -91.72485352 487.38012695 C-99.74903778 483.44631955 -107.65253693 479.30923024 -115.51000977 475.05200195 C-116.87706055 474.31590698 -116.87706055 474.31590698 -118.27172852 473.56494141 C-124.09055141 470.38915292 -129.61009609 466.92886855 -135.07250977 463.17700195 C-136.08313477 462.50668945 -137.09375977 461.83637695 -138.13500977 461.14575195 C-152.79978931 451.31722949 -166.86632481 441.01093357 -179.07250977 428.17700195 C-179.87688477 427.37262695 -180.68125977 426.56825195 -181.51000977 425.73950195 C-182.35563477 424.89387695 -183.20125977 424.04825195 -184.07250977 423.17700195 C-184.62165039 422.67426758 -185.17079102 422.1715332 -185.73657227 421.65356445 C-205.07876244 403.42573914 -218.44405697 377.9999016 -227.07250977 353.17700195 C-227.41797852 352.19344727 -227.76344727 351.20989258 -228.11938477 350.1965332 C-240.31475772 313.18826681 -239.25102047 270.54396124 -225.07250977 234.17700195 C-224.81663086 233.50701172 -224.56075195 232.83702148 -224.29711914 232.14672852 C-215.82800727 210.19012585 -203.70136938 191.39537914 -188.34594727 173.65454102 C-187.18180589 172.30381563 -186.03260131 170.94025368 -184.88500977 169.57543945 C-183.95688477 168.48102539 -183.95688477 168.48102539 -183.01000977 167.36450195 C-182.4827832 166.73930664 -181.95555664 166.11411133 -181.41235352 165.4699707 C-180.07250977 164.17700195 -180.07250977 164.17700195 -178.07250977 164.17700195 C-177.81083008 163.58016602 -177.54915039 162.98333008 -177.27954102 162.3684082 C-175.99383829 160.03417121 -174.79353881 158.81709265 -172.76000977 157.11450195 C-172.05102539 156.51637695 -171.34204102 155.91825195 -170.61157227 155.30200195 C-169.77368164 154.60075195 -168.93579102 153.89950195 -168.07250977 153.17700195 C-167.03738722 152.28263452 -166.00361293 151.38670507 -164.97094727 150.48950195 C-158.92463227 145.2604017 -152.8953761 140.37481855 -146.07250977 136.17700195 C-145.09926758 135.56469727 -144.12602539 134.95239258 -143.12329102 134.3215332 C-139.79062093 132.24313702 -136.43532162 130.20621871 -133.07250977 128.17700195 C-132.03739258 127.53762695 -131.00227539 126.89825195 -129.93579102 126.23950195 C-103.37995163 110.35084534 -72.6135776 100.59006424 -42.27758789 95.11621094 C-41.29922974 94.93936264 -40.32087158 94.76251434 -39.31286621 94.58030701 C-38.57354858 94.44721634 -37.83423096 94.31412567 -37.07250977 94.17700195 C-37.08250252 93.00761581 -37.08250252 93.00761581 -37.09269714 91.81460571 C-37.15306836 84.43023519 -37.19861534 77.0459861 -37.22794628 69.66143227 C-37.24353307 65.86589566 -37.26464164 62.07056475 -37.29882812 58.27514648 C-37.33167349 54.60521833 -37.34941517 50.93548674 -37.35714149 47.26542282 C-37.36264024 45.87253098 -37.37337662 44.47964863 -37.38969994 43.08684158 C-37.54190555 29.54845832 -35.7680717 20.11609433 -26.22094727 10.2668457 C-18.55990499 3.07889568 -10.39720173 0.08043135 0 0 Z " fill="#5093FD" transform="translate(596.072509765625,160.822998046875)"/>
<path d="M0 0 C6.927598 2.25666326 13.74835468 4.73505839 20.5625 7.3125 C22.71085023 8.123929 24.85928774 8.93512698 27.0078125 9.74609375 C28.04196289 10.13651855 29.07611328 10.52694336 30.14160156 10.92919922 C32.50321874 11.81389797 34.86887488 12.68252172 37.2421875 13.53515625 C47.50932624 17.25780803 57.45581016 21.62937934 67.42578125 26.08203125 C71.71819239 27.9983203 76.02532782 29.86983629 80.35546875 31.69921875 C94.83974933 37.855038 108.47878424 44.95267285 122 53 C122.87696533 53.51836426 123.75393066 54.03672852 124.6574707 54.57080078 C139.31078424 63.28076436 153.19888728 73.35687665 165.734375 84.921875 C167.8017788 86.81818331 169.91750093 88.63029606 172.0625 90.4375 C204.53019894 118.78957513 224.90484866 163.36972959 228 206 C229.34786175 230.87517222 226.82370651 255.29895423 219 279 C218.65582031 280.04929687 218.31164062 281.09859375 217.95703125 282.1796875 C211.92650642 298.94324029 203.87430741 315.04361938 193.23291016 329.33203125 C192.09852159 330.86671297 191.00606715 332.4321584 189.91796875 334 C184.87290941 341.23364923 179.09810931 347.65893813 173 354 C172.50951172 354.51240234 172.01902344 355.02480469 171.51367188 355.55273438 C144.14842857 383.98832618 108.29686599 402.97905604 71 415 C70.16436523 415.26941406 69.32873047 415.53882813 68.46777344 415.81640625 C39.64149306 425 39.64149306 425 30 425 C30.00444122 425.69189423 30.00888245 426.38378845 30.01345825 427.09664917 C30.05373994 433.65691562 30.08408769 440.21714692 30.10362434 446.77750969 C30.11400638 450.14925339 30.12806184 453.52089383 30.15087891 456.89257812 C30.1752828 460.77997508 30.18651883 464.66722761 30.1953125 468.5546875 C30.20563507 469.74988007 30.21595764 470.94507263 30.22659302 472.17648315 C30.22830742 485.11919229 28.35314903 495.3444419 19.5 505.1875 C8.7483544 514.99248238 -2.34239941 515.90279804 -16.12890625 515.76171875 C-17.85278082 515.76322556 -19.57665465 515.76666631 -21.30052185 515.77192688 C-24.89202428 515.77623057 -28.48262014 515.75963134 -32.07397461 515.72729492 C-36.64553619 515.68748644 -41.21540298 515.69684744 -45.78701878 515.72152996 C-49.33991559 515.73580419 -52.89242565 515.72555521 -56.44529533 515.70801735 C-58.1295574 515.70222548 -59.81386005 515.70338285 -61.49810982 515.71204185 C-74.80309607 515.757692 -85.96327533 514.00398577 -96.0234375 504.3828125 C-102.24034169 496.88812563 -105.06127221 488.62655377 -105.20532227 479.01635742 C-105.22526749 477.83551071 -105.24521271 476.654664 -105.26576233 475.43803406 C-105.29083107 473.54091423 -105.29083107 473.54091423 -105.31640625 471.60546875 C-105.33718735 470.30297684 -105.35796844 469.00048492 -105.37937927 467.65852356 C-105.43438184 464.20790737 -105.48388659 460.75723365 -105.53222656 457.30651855 C-105.58260164 453.78046594 -105.63820387 450.25449613 -105.69335938 446.72851562 C-105.80067378 439.81908229 -105.90217725 432.90957405 -106 426 C-106.78372482 425.80660538 -107.56744965 425.61321075 -108.37492371 425.41395569 C-111.99406368 424.51936319 -115.61226544 423.62102927 -119.23046875 422.72265625 C-120.46277222 422.41863892 -121.69507568 422.11462158 -122.96472168 421.8013916 C-139.71985161 417.63398398 -156.12507978 412.81863943 -172 406 C-173.26631336 405.48416789 -174.53325871 404.96988494 -175.80078125 404.45703125 C-193.9245451 396.99059077 -210.64053917 386.40944362 -226.25 374.625 C-226.82411621 374.19566162 -227.39823242 373.76632324 -227.98974609 373.32397461 C-229.36569236 372.26505008 -230.68863617 371.13792539 -232 370 C-232 369.34 -232 368.68 -232 368 C-232.556875 367.773125 -233.11375 367.54625 -233.6875 367.3125 C-236.00275051 365.9984389 -237.6386498 364.5148837 -239.46484375 362.59375 C-240.61586715 361.39879441 -241.80178538 360.23728798 -243.00390625 359.09375 C-268.88623779 334.24671172 -285.24293001 297.30803855 -286.23828125 261.4375 C-286.4358898 248.0405387 -286.52627963 235.7174362 -282 223 C-281.69964844 222.05640625 -281.39929688 221.1128125 -281.08984375 220.140625 C-277.48551858 209.84255307 -269.80930415 200.49055963 -260.05859375 195.4921875 C-245.24518332 189.25308564 -232.47986998 190.64655744 -217.87890625 196.18359375 C-208.68715675 200.38660539 -200.91475381 206.81448672 -193 213 C-190.73190842 214.75356512 -188.4597873 216.50187642 -186.1875 218.25 C-185.38965088 218.86439941 -185.38965088 218.86439941 -184.57568359 219.49121094 C-154.83473351 242.36602907 -122.41988512 258.84534599 -86 268 C-85.2469458 268.19158691 -84.4938916 268.38317383 -83.71801758 268.58056641 C-40.50135966 278.92579075 10.96631253 274.94501415 49.46484375 251.796875 C50.65001587 251.06162598 50.65001587 251.06162598 51.85913086 250.31152344 C53.6764211 249.19822851 55.55231547 248.18150639 57.4375 247.1875 C63.58580267 243.7162095 70.0797677 238.88034845 74 233 C73.48308594 232.7421875 72.96617187 232.484375 72.43359375 232.21875 C70.56960192 231.2852581 68.70807875 230.34683535 66.84765625 229.40625 C58.07519848 224.98241143 49.24214572 220.7005177 40.35961914 216.50195312 C36.50031575 214.67606206 32.65863654 212.83478595 28.859375 210.88671875 C25.0832087 208.98632613 21.22612733 207.48767817 17.25 206.0625 C12.53770255 204.36083703 7.89460177 202.55256453 3.27734375 200.60546875 C-2.98266938 197.97787568 -9.3148122 195.58878678 -15.6875 193.25 C-16.85522949 192.81953369 -18.02295898 192.38906738 -19.22607422 191.94555664 C-31.12800198 187.5671813 -43.06125883 183.27673066 -55 179 C-86.38733174 167.74962237 -86.38733174 167.74962237 -96 164 C-96.64163086 163.76120117 -97.28326172 163.52240234 -97.94433594 163.27636719 C-99.66527599 162.60249985 -101.33792863 161.8082392 -103 161 C-103.33 160.01 -103.66 159.02 -104 158 C-98.21194031 159.55256189 -92.67266461 161.48242998 -87.125 163.75 C-81.57169659 166.01849715 -75.98307584 168.10591947 -70.3125 170.0625 C-60.42708999 173.47686203 -50.58655806 177.01044814 -40.75 180.5625 C-39.61203476 180.97267868 -39.61203476 180.97267868 -38.45108032 181.3911438 C-29.15609172 184.742012 -19.8839586 188.14662731 -10.63891602 191.63305664 C-6.82799003 193.06461482 -3.00861745 194.47090159 0.8125 195.875 C14.51528824 200.97809694 27.90881152 206.81456009 41.10351562 213.10693359 C43.09686785 214.04561568 45.10133683 214.95647075 47.109375 215.86328125 C54.77366643 219.34841124 62.21090117 223.09229235 69.5 227.3125 C70.23653809 227.73313721 70.97307617 228.15377441 71.73193359 228.5871582 C76.87829222 231.63487666 76.87829222 231.63487666 78 235 C79.99336826 235.68624153 81.99495899 236.34865142 84 237 C86.42243262 238.46788873 88.73905342 239.95435895 91.0625 241.5625 C92.02845093 242.22088867 92.02845093 242.22088867 93.01391602 242.89257812 C94.34759778 243.8031462 95.67921524 244.71674489 97.00878906 245.63330078 C98.95198492 246.96704409 100.90732036 248.28075687 102.8671875 249.58984375 C104.05761179 250.39275474 105.24773021 251.19611947 106.4375 252 C107.50871094 252.721875 108.57992188 253.44375 109.68359375 254.1875 C110.44800781 254.785625 111.21242188 255.38375 112 256 C112 256.66 112 257.32 112 258 C113.04800781 258.32484375 113.04800781 258.32484375 114.1171875 258.65625 C117.72658011 260.33867691 120.29441224 262.76823575 123.125 265.5 C125.98057129 268.21524837 128.70690732 270.80460488 132 273 C132 273.66 132 274.32 132 275 C132.66 275 133.32 275 134 275 C134 275.66 134 276.32 134 277 C134.66 277 135.32 277 136 277 C136 277.66 136 278.32 136 279 C136.66 279 137.32 279 138 279 C139.25227484 280.47704212 140.50166522 281.95827399 141.68359375 283.4921875 C143.11764091 285.26762944 143.11764091 285.26762944 146 287 C146 287.99 146 288.98 146 290 C146.66 290 147.32 290 148 290 C160 302.68571429 160 302.68571429 160 309 C160.66 309 161.32 309 162 309 C167.29062375 321.72001029 172.12380263 333.68220232 170.5 347.6875 C170.4071875 348.49574219 170.314375 349.30398438 170.21875 350.13671875 C170.1465625 350.75160156 170.074375 351.36648438 170 352 C193.96606982 333.76494688 207.43076578 300.47832188 217 273 C217.28875 272.23300781 217.5775 271.46601562 217.875 270.67578125 C230.67573078 235.67378303 226.72832101 186.47321644 211.39453125 152.93359375 C210.70423828 151.48146484 210.70423828 151.48146484 210 150 C209.41818816 148.67943352 208.83895967 147.35772715 208.26171875 146.03515625 C199.72333124 126.79042272 187.26967392 109.49178487 172 95 C170.78957031 93.78570313 170.78957031 93.78570313 169.5546875 92.546875 C149.00177816 72.05681859 124.68940782 57.19374478 99 44 C98.0409375 43.50677246 97.081875 43.01354492 96.09375 42.50537109 C77.58500513 33.09068175 58.36544849 25.44672391 39.07183838 17.81951904 C37.1556466 17.06156627 35.24061291 16.30068747 33.32568359 15.53955078 C22.28832172 11.15355329 11.22911443 6.8727795 0 3 C0 2.01 0 1.02 0 0 Z " fill="#4282F5" transform="translate(664,512)"/>
<path d="M0 0 C0.70467911 -0.0065712 1.40935822 -0.0131424 2.13539124 -0.01991272 C4.46322756 -0.03958974 6.79099935 -0.05129915 9.11889648 -0.0612793 C10.31741399 -0.06739259 10.31741399 -0.06739259 11.54014397 -0.07362938 C15.7738303 -0.09447175 20.00748445 -0.10877831 24.24121094 -0.11816406 C28.58973618 -0.12919194 32.93774458 -0.16355468 37.28608799 -0.20333576 C40.6501096 -0.22963298 44.01401082 -0.2378677 47.37812614 -0.24144554 C48.97952684 -0.24628202 50.58092323 -0.25781097 52.18222237 -0.27648354 C65.30881139 -0.41997084 76.5764381 1.42308482 86.92749023 10.17700195 C94.4572791 18.12697992 97.97831627 27.59922832 98.1328125 38.43603516 C98.15275772 39.67694412 98.17270294 40.91785309 98.19325256 42.19636536 C98.2102328 43.54017006 98.22711176 44.88397604 98.24389648 46.2277832 C98.2644855 47.61069839 98.28548246 48.99360755 98.30686951 50.37651062 C98.36188923 54.00468044 98.41138654 57.63290516 98.4597168 61.26116943 C98.51007922 64.96818895 98.5656881 68.67512941 98.62084961 72.38208008 C98.72818508 79.64698695 98.82968396 86.91195987 98.92749023 94.17700195 C99.54909531 94.31602936 100.17070038 94.45505676 100.81114197 94.59829712 C103.67204318 95.23949436 106.53218772 95.88400839 109.39233398 96.52856445 C110.36988647 96.74714111 111.34743896 96.96571777 112.35461426 97.19091797 C120.24507736 98.97290108 128.00060647 101.04397623 135.71557617 103.47924805 C137.25588857 103.9651435 138.79839382 104.44411897 140.3425293 104.91772461 C176.31203731 115.98900313 211.43090913 135.06541316 237.92749023 162.17700195 C237.92749023 162.83700195 237.92749023 163.49700195 237.92749023 164.17700195 C238.58749023 164.17700195 239.24749023 164.17700195 239.92749023 164.17700195 C253.48422017 178.82450327 264.43170387 197.34536893 270.92749023 216.17700195 C271.4940332 217.81475586 271.4940332 217.81475586 272.07202148 219.4855957 C280.25060555 245.49165514 283.28658214 280.51164005 271.61499023 305.86450195 C270.76491463 307.32952587 269.86885029 308.76889512 268.92749023 310.17700195 C268.4131543 310.96204102 267.89881836 311.74708008 267.36889648 312.5559082 C261.98369774 320.10513601 253.91612173 326.29945916 244.83374023 328.73950195 C240.77364276 329.35069942 236.77780153 329.36129357 232.67749023 329.36450195 C231.86924805 329.37674805 231.06100586 329.38899414 230.22827148 329.40161133 C211.41981047 329.44675163 197.1277065 318.72153303 183.11499023 307.30200195 C144.03368681 275.60413696 93.51823954 249.61541468 42.22436523 248.90356445 C41.39705902 248.89103638 40.56975281 248.8785083 39.71737671 248.86560059 C20.23278044 248.62808067 1.893568 249.18419434 -17.07250977 254.17700195 C-17.95471191 254.40693848 -18.83691406 254.636875 -19.74584961 254.8737793 C-40.47852645 260.46768275 -64.41879976 269.73239303 -78.82250977 286.23950195 C-81.07250977 288.17700195 -81.07250977 288.17700195 -83.81469727 288.03637695 C-100.44562388 283.64932197 -117.34749972 266.38309016 -130.07250977 255.17700195 C-130.58265625 254.73001953 -131.09280273 254.28303711 -131.6184082 253.82250977 C-144.75691049 242.2502969 -155.33475327 229.69702865 -165.07250977 215.17700195 C-166.0199707 213.8002832 -166.0199707 213.8002832 -166.98657227 212.39575195 C-173.87270255 201.80170536 -177.19622602 189.22964375 -177.26000977 176.67700195 C-177.27418945 175.40856445 -177.28836914 174.14012695 -177.30297852 172.83325195 C-177.07748081 169.25586467 -176.37017698 166.50067135 -175.07250977 163.17700195 C-176.06250977 162.84700195 -177.05250977 162.51700195 -178.07250977 162.17700195 C-164.80751436 148.61993326 -149.33632685 137.81772244 -133.07250977 128.17700195 C-132.04383789 127.5427832 -131.01516602 126.90856445 -129.95532227 126.25512695 C-103.41214882 110.34195343 -72.61257145 100.58988269 -42.27758789 95.11621094 C-41.29922974 94.93936264 -40.32087158 94.76251434 -39.31286621 94.58030701 C-38.57354858 94.44721634 -37.83423096 94.31412567 -37.07250977 94.17700195 C-37.08250252 93.00761581 -37.08250252 93.00761581 -37.09269714 91.81460571 C-37.15306836 84.43023519 -37.19861534 77.0459861 -37.22794628 69.66143227 C-37.24353307 65.86589566 -37.26464164 62.07056475 -37.29882812 58.27514648 C-37.33167349 54.60521833 -37.34941517 50.93548674 -37.35714149 47.26542282 C-37.36264024 45.87253098 -37.37337662 44.47964863 -37.38969994 43.08684158 C-37.54190555 29.54845832 -35.7680717 20.11609433 -26.22094727 10.2668457 C-18.55990499 3.07889568 -10.39720173 0.08043135 0 0 Z " fill="#4486F3" transform="translate(596.072509765625,160.822998046875)"/>
<path d="M0 0 C6.927598 2.25666326 13.74835468 4.73505839 20.5625 7.3125 C22.71085023 8.123929 24.85928774 8.93512698 27.0078125 9.74609375 C28.04196289 10.13651855 29.07611328 10.52694336 30.14160156 10.92919922 C32.50321874 11.81389797 34.86887488 12.68252172 37.2421875 13.53515625 C47.50932624 17.25780803 57.45581016 21.62937934 67.42578125 26.08203125 C71.71819239 27.9983203 76.02532782 29.86983629 80.35546875 31.69921875 C94.83974933 37.855038 108.47878424 44.95267285 122 53 C122.87696533 53.51836426 123.75393066 54.03672852 124.6574707 54.57080078 C139.31078424 63.28076436 153.19888728 73.35687665 165.734375 84.921875 C167.8017788 86.81818331 169.91750093 88.63029606 172.0625 90.4375 C204.53019894 118.78957513 224.90484866 163.36972959 228 206 C229.34786175 230.87517222 226.82370651 255.29895423 219 279 C218.65582031 280.04929687 218.31164062 281.09859375 217.95703125 282.1796875 C211.92650642 298.94324029 203.87430741 315.04361938 193.23291016 329.33203125 C192.09852159 330.86671297 191.00606715 332.4321584 189.91796875 334 C184.87290941 341.23364923 179.09810931 347.65893813 173 354 C172.50951172 354.51240234 172.01902344 355.02480469 171.51367188 355.55273438 C144.14842857 383.98832618 108.29686599 402.97905604 71 415 C70.16436523 415.26941406 69.32873047 415.53882813 68.46777344 415.81640625 C39.64149306 425 39.64149306 425 30 425 C30.00444122 425.69189423 30.00888245 426.38378845 30.01345825 427.09664917 C30.05373994 433.65691562 30.08408769 440.21714692 30.10362434 446.77750969 C30.11400638 450.14925339 30.12806184 453.52089383 30.15087891 456.89257812 C30.1752828 460.77997508 30.18651883 464.66722761 30.1953125 468.5546875 C30.20563507 469.74988007 30.21595764 470.94507263 30.22659302 472.17648315 C30.22830742 485.11919229 28.35314903 495.3444419 19.5 505.1875 C8.7483544 514.99248238 -2.34239941 515.90279804 -16.12890625 515.76171875 C-17.85278082 515.76322556 -19.57665465 515.76666631 -21.30052185 515.77192688 C-24.89202428 515.77623057 -28.48262014 515.75963134 -32.07397461 515.72729492 C-36.64553619 515.68748644 -41.21540298 515.69684744 -45.78701878 515.72152996 C-49.33991559 515.73580419 -52.89242565 515.72555521 -56.44529533 515.70801735 C-58.1295574 515.70222548 -59.81386005 515.70338285 -61.49810982 515.71204185 C-74.80309607 515.757692 -85.96327533 514.00398577 -96.0234375 504.3828125 C-102.27092627 496.85125489 -105.06308577 488.57632306 -105.20532227 478.92456055 C-105.2352401 477.12325935 -105.2352401 477.12325935 -105.26576233 475.28556824 C-105.28247482 473.99894791 -105.29918732 472.71232758 -105.31640625 471.38671875 C-105.33699635 470.04864388 -105.35799335 468.71057521 -105.37937927 467.37251282 C-105.43438775 463.86271206 -105.48388994 460.35285468 -105.53222656 456.84295654 C-105.58259728 453.25658165 -105.6382018 449.67028827 -105.69335938 446.08398438 C-105.80068103 439.0560604 -105.90218293 432.02806321 -106 425 C-102.89608456 423.96536152 -101.72398319 424.01587749 -98.58203125 424.48828125 C-97.67316162 424.61678467 -96.76429199 424.74528809 -95.82788086 424.87768555 C-94.83280518 425.02117432 -93.83772949 425.16466309 -92.8125 425.3125 C-82.70129359 426.67342852 -72.61482257 427.55842851 -62.4375 428.1875 C-61.13208252 428.27104736 -59.82666504 428.35459473 -58.48168945 428.44067383 C-44.18244141 429.28255076 -29.97714942 429.08129067 -15.6875 428.25 C-14.96019684 428.20842773 -14.23289368 428.16685547 -13.48355103 428.12402344 C10.26750453 427.02113104 10.26750453 427.02113104 33 421 C35.4296308 420.52072277 37.86862407 420.08785354 40.3125 419.6875 C48.78906248 418.18570482 56.86064993 415.76982899 65 413 C65.89203125 412.69900391 66.7840625 412.39800781 67.703125 412.08789062 C74.49208771 409.78973501 81.25572497 407.42613352 88 405 C88.72106934 404.74105957 89.44213867 404.48211914 90.18505859 404.21533203 C110.79166094 396.70374343 131.72498979 385.28874102 148.50390625 371.109375 C150 370 150 370 152 370 C152 369.34 152 368.68 152 368 C153.86328125 366.4140625 153.86328125 366.4140625 156.3125 364.625 C158.82219374 362.79021585 160.79960522 361.26750592 162.66796875 358.7734375 C163.10753906 358.18820312 163.54710937 357.60296875 164 357 C164.66 357 165.32 357 166 357 C166.66 355.68 167.32 354.36 168 353 C168.66 353 169.32 353 170 353 C193.66108029 334.51478102 207.48044494 300.33566679 217 273 C217.28875 272.23300781 217.5775 271.46601562 217.875 270.67578125 C230.67573078 235.67378303 226.72832101 186.47321644 211.39453125 152.93359375 C210.70423828 151.48146484 210.70423828 151.48146484 210 150 C209.41818816 148.67943352 208.83895967 147.35772715 208.26171875 146.03515625 C199.72333124 126.79042272 187.26967392 109.49178487 172 95 C170.78957031 93.78570313 170.78957031 93.78570313 169.5546875 92.546875 C149.00177816 72.05681859 124.68940782 57.19374478 99 44 C98.0409375 43.50677246 97.081875 43.01354492 96.09375 42.50537109 C77.58500513 33.09068175 58.36544849 25.44672391 39.07183838 17.81951904 C37.1556466 17.06156627 35.24061291 16.30068747 33.32568359 15.53955078 C22.28832172 11.15355329 11.22911443 6.8727795 0 3 C0 2.01 0 1.02 0 0 Z " fill="#3E7DF5" transform="translate(664,512)"/>
<path d="M0 0 C6.927598 2.25666326 13.74835468 4.73505839 20.5625 7.3125 C22.71085023 8.123929 24.85928774 8.93512698 27.0078125 9.74609375 C28.04196289 10.13651855 29.07611328 10.52694336 30.14160156 10.92919922 C32.50321874 11.81389797 34.86887488 12.68252172 37.2421875 13.53515625 C47.50932624 17.25780803 57.45581016 21.62937934 67.42578125 26.08203125 C71.71819239 27.9983203 76.02532782 29.86983629 80.35546875 31.69921875 C94.83974933 37.855038 108.47878424 44.95267285 122 53 C123.315448 53.77754639 123.315448 53.77754639 124.6574707 54.57080078 C139.31078424 63.28076436 153.19888728 73.35687665 165.734375 84.921875 C167.8017788 86.81818331 169.91750093 88.63029606 172.0625 90.4375 C204.53019894 118.78957513 224.90484866 163.36972959 228 206 C229.34786175 230.87517222 226.82370651 255.29895423 219 279 C218.65582031 280.04929687 218.31164062 281.09859375 217.95703125 282.1796875 C211.92650642 298.94324029 203.87430741 315.04361938 193.23291016 329.33203125 C192.09852159 330.86671297 191.00606715 332.4321584 189.91796875 334 C184.87290941 341.23364923 179.09810931 347.65893813 173 354 C172.26426758 354.76860352 172.26426758 354.76860352 171.51367188 355.55273438 C144.14842857 383.98832618 108.29686599 402.97905604 71 415 C70.16436523 415.26941406 69.32873047 415.53882813 68.46777344 415.81640625 C39.64149306 425 39.64149306 425 30 425 C30.01160156 426.22074219 30.02320313 427.44148438 30.03515625 428.69921875 C30.0970005 438.19520974 29.95080694 447.54286666 29 457 C28.34 457 27.68 457 27 457 C26.95062721 452.33692986 26.91429373 447.67401127 26.89013672 443.01074219 C26.88006812 441.42380117 26.86641233 439.83687875 26.84912109 438.25 C26.82490999 435.97130753 26.81352578 433.69285994 26.8046875 431.4140625 C26.79436493 430.70255035 26.78404236 429.99103821 26.77340698 429.25796509 C26.77300578 427.50368335 26.87797791 425.75003291 27 424 C29.24159335 421.75840665 29.98563982 421.62728515 33.0078125 421.10546875 C33.82096924 420.95754883 34.63412598 420.80962891 35.47192383 420.65722656 C36.34743896 420.5022168 37.2229541 420.34720703 38.125 420.1875 C47.35244891 418.43770714 56.1196309 416.04475252 65 413 C66.3293457 412.55068115 66.3293457 412.55068115 67.68554688 412.09228516 C74.48037157 409.79255127 81.25001978 407.42818586 88 405 C88.72106934 404.74105957 89.44213867 404.48211914 90.18505859 404.21533203 C110.79166094 396.70374343 131.72498979 385.28874102 148.50390625 371.109375 C150 370 150 370 152 370 C152 369.34 152 368.68 152 368 C153.86328125 366.4140625 153.86328125 366.4140625 156.3125 364.625 C158.82219374 362.79021585 160.79960522 361.26750592 162.66796875 358.7734375 C163.10753906 358.18820312 163.54710937 357.60296875 164 357 C164.66 357 165.32 357 166 357 C166.66 355.68 167.32 354.36 168 353 C168.66 353 169.32 353 170 353 C193.66108029 334.51478102 207.48044494 300.33566679 217 273 C217.28875 272.23300781 217.5775 271.46601562 217.875 270.67578125 C230.67573078 235.67378303 226.72832101 186.47321644 211.39453125 152.93359375 C210.93433594 151.96550781 210.47414063 150.99742187 210 150 C209.41818816 148.67943352 208.83895967 147.35772715 208.26171875 146.03515625 C199.72333124 126.79042272 187.26967392 109.49178487 172 95 C170.78957031 93.78570313 170.78957031 93.78570313 169.5546875 92.546875 C149.00177816 72.05681859 124.68940782 57.19374478 99 44 C98.0409375 43.50677246 97.081875 43.01354492 96.09375 42.50537109 C77.58500513 33.09068175 58.36544849 25.44672391 39.07183838 17.81951904 C37.1556466 17.06156627 35.24061291 16.30068747 33.32568359 15.53955078 C22.28832172 11.15355329 11.22911443 6.8727795 0 3 C0 2.01 0 1.02 0 0 Z " fill="#246DFD" transform="translate(664,512)"/>
<path d="M0 0 C5.78805969 1.55256189 11.32733539 3.48242998 16.875 5.75 C22.42830341 8.01849715 28.01692416 10.10591947 33.6875 12.0625 C43.57291001 15.47686203 53.41344194 19.01044814 63.25 22.5625 C64.00864349 22.83595245 64.76728699 23.10940491 65.54891968 23.3911438 C74.84390828 26.742012 84.1160414 30.14662731 93.36108398 33.63305664 C97.17200997 35.06461482 100.99138255 36.47090159 104.8125 37.875 C118.51528824 42.97809694 131.90881152 48.81456009 145.10351562 55.10693359 C147.09686785 56.04561568 149.10133683 56.95647075 151.109375 57.86328125 C158.77366643 61.34841124 166.21090117 65.09229235 173.5 69.3125 C174.60480713 69.94345581 174.60480713 69.94345581 175.73193359 70.5871582 C180.87829222 73.63487666 180.87829222 73.63487666 182 77 C182.99 77.33 183.98 77.66 185 78 C184.67 78.66 184.34 79.32 184 80 C183.01 79.67 182.02 79.34 181 79 C178.31202647 80.78709402 178.31202647 80.78709402 175.5625 83.25 C166.49203822 91 166.49203822 91 163 91 C162.67 91.99 162.34 92.98 162 94 C159.26171875 95.61328125 159.26171875 95.61328125 155.6875 97.3125 C154.39292606 97.93165832 153.09865953 98.55145975 151.8046875 99.171875 C151.15725586 99.47931641 150.50982422 99.78675781 149.84277344 100.10351562 C148.23138043 100.88743655 146.64794609 101.72830637 145.0703125 102.578125 C104.97319154 124.16014478 49.27388954 122.72468207 6.625 110.42578125 C-15.83833926 103.63714211 -15.83833926 103.63714211 -23 99 C-24.65369357 98.30177383 -26.31727014 97.62501395 -28 97 C-28 96.67 -28 96.34 -28 96 C-23.17277395 96.51763272 -19.47916808 97.51011836 -15.125 99.625 C-4.51844817 104.35170878 6.77370954 107.13026792 18 110 C19.14045776 110.29173096 19.14045776 110.29173096 20.30395508 110.58935547 C63.51431476 120.92515921 114.97427138 116.9402287 153.46484375 93.796875 C154.2549585 93.30670898 155.04507324 92.81654297 155.85913086 92.31152344 C157.6764211 91.19822851 159.55231547 90.18150639 161.4375 89.1875 C167.58580267 85.7162095 174.0797677 80.88034845 178 75 C177.48308594 74.7421875 176.96617187 74.484375 176.43359375 74.21875 C174.56960192 73.2852581 172.70807875 72.34683535 170.84765625 71.40625 C162.07519848 66.98241143 153.24214572 62.7005177 144.35961914 58.50195312 C140.50031575 56.67606206 136.65863654 54.83478595 132.859375 52.88671875 C129.0832087 50.98632613 125.22612733 49.48767817 121.25 48.0625 C116.53770255 46.36083703 111.89460177 44.55256453 107.27734375 42.60546875 C101.01733062 39.97787568 94.6851878 37.58878678 88.3125 35.25 C87.14477051 34.81953369 85.97704102 34.38906738 84.77392578 33.94555664 C72.87199802 29.5671813 60.93874117 25.27673066 49 21 C17.61266826 9.74962237 17.61266826 9.74962237 8 6 C7.03755371 5.64180176 7.03755371 5.64180176 6.05566406 5.27636719 C4.33472401 4.60249985 2.66207137 3.8082392 1 3 C0.67 2.01 0.34 1.02 0 0 Z " fill="#236DFD" transform="translate(560,670)"/>
<path d="M0 0 C7.10915098 0.42213838 13.35338491 1.77354116 20.0625 4.125 C20.97153076 4.43703369 21.88056152 4.74906738 22.81713867 5.07055664 C56.98882521 16.97103994 90.50407633 34.91229474 116 61 C116 61.66 116 62.32 116 63 C116.66 63 117.32 63 118 63 C131.55672994 77.64750131 142.50421363 96.16836697 149 115 C149.37769531 116.09183594 149.75539063 117.18367188 150.14453125 118.30859375 C158.32311531 144.31465318 161.35909191 179.3346381 149.6875 204.6875 C148.83742439 206.15252392 147.94136006 207.59189317 147 209 C146.48566406 209.78503906 145.97132813 210.57007813 145.44140625 211.37890625 C140.0562075 218.92813406 131.9886315 225.12245721 122.90625 227.5625 C118.84615253 228.17369747 114.85031129 228.18429162 110.75 228.1875 C109.94175781 228.19974609 109.13351562 228.21199219 108.30078125 228.22460938 C91.44576723 228.26506141 78.99266411 219.82119622 66 210 C64.97390625 209.23558594 63.9478125 208.47117187 62.890625 207.68359375 C57.72845265 203.72447004 57.72845265 203.72447004 56 202 C56 201.01 56 200.02 56 199 C60.86029726 202.09931999 65.48660461 205.33206719 69.9375 209 C77.03621116 214.76701496 84.78321311 219.04376928 93 223 C93 223.66 93 224.32 93 225 C93.804375 224.814375 94.60875 224.62875 95.4375 224.4375 C99 224 99 224 102.875 224.5 C114.38638369 225.91947806 125.56036141 225.31802601 135 218 C147.0327678 207.16637401 151.67022169 191.1849214 152.91015625 175.3984375 C154.48602403 133.32961925 142.53310066 95.3925601 114 64 C108.70498148 58.32185504 108.70498148 58.32185504 102.74609375 53.3828125 C102.16988281 52.92648437 101.59367188 52.47015625 101 52 C101 51.34 101 50.68 101 50 C100.43555176 49.7328418 99.87110352 49.46568359 99.28955078 49.19042969 C96.85414106 47.92416206 94.64072229 46.49092827 92.3671875 44.953125 C91.47773437 44.355 90.58828125 43.756875 89.671875 43.140625 C87.83062791 41.89598311 85.98947946 40.65119528 84.1484375 39.40625 C75.87212479 33.84114318 67.4283309 28.62913184 58.625 23.9375 C57.99142578 23.59952393 57.35785156 23.26154785 56.70507812 22.91333008 C50.9518698 19.8917416 45.03644111 17.39931578 39 15 C37.40345581 14.29786377 37.40345581 14.29786377 35.7746582 13.58154297 C32.18636885 12.04043635 28.54125671 10.79198447 24.82421875 9.58984375 C23.48888164 9.15314966 22.15359663 8.71629619 20.81835938 8.27929688 C18.74088044 7.60343097 16.66280131 6.92952889 14.58374023 6.25854492 C12.55798747 5.60337052 10.53475891 4.9408384 8.51171875 4.27734375 C7.30990967 3.88796631 6.10810059 3.49858887 4.86987305 3.09741211 C2 2 2 2 0 0 Z " fill="#419DFD" transform="translate(718,262)"/>
<path d="M0 0 C0.898396 0.54769043 0.898396 0.54769043 1.81494141 1.10644531 C3.24858204 2.01256309 4.63079149 2.99917885 6 4 C6 4.66 6 5.32 6 6 C2.44230529 4.67929273 -0.60398265 3.07829662 -3.8125 1.0625 C-20.17716831 -8.56732324 -37.8493963 -15.57192743 -56 -21 C-57.25296875 -21.38671875 -58.5059375 -21.7734375 -59.796875 -22.171875 C-63.50711847 -23.24372311 -67.23370273 -24.1545406 -71 -25 C-71.76328613 -25.18191895 -72.52657227 -25.36383789 -73.31298828 -25.55126953 C-102.07849403 -32.1886 -134.50162153 -31.50217956 -163 -24 C-163.88220215 -23.77006348 -164.7644043 -23.54012695 -165.67333984 -23.30322266 C-186.40601668 -17.70931921 -210.34629 -8.44460892 -224.75 8.0625 C-227 10 -227 10 -230.25 9.9375 C-233 9 -233 9 -234 7 C-232.35 7.33 -230.7 7.66 -229 8 C-229 7.34 -229 6.68 -229 6 C-226.70028567 3.75141908 -224.06034023 1.8793806 -221.5 -0.0625 C-220.73187988 -0.64523682 -219.96375977 -1.22797363 -219.17236328 -1.82836914 C-195.61372756 -19.35616788 -166.98865094 -28.60277929 -138 -32 C-136.97648438 -32.13019531 -135.95296875 -32.26039063 -134.8984375 -32.39453125 C-89.11899919 -37.23038741 -38.97120561 -24.05629976 0 0 Z " fill="#2D85FC" transform="translate(742,439)"/>
<path d="M0 0 C1.47865628 1.17087589 2.95655144 2.34271377 4.43359375 3.515625 C8.06090206 6.3876326 11.77410085 9.09462669 15.5625 11.75 C14.5725 12.74 14.5725 12.74 13.5625 13.75 C12.83804688 13.21890625 12.11359375 12.6878125 11.3671875 12.140625 C5.21913062 7.61539022 5.21913062 7.61539022 -1.125 3.375 C-1.888125 2.83875 -2.65125 2.3025 -3.4375 1.75 C-3.4375 1.09 -3.4375 0.43 -3.4375 -0.25 C-4.16066406 -0.50910156 -4.88382812 -0.76820313 -5.62890625 -1.03515625 C-8.54823098 -2.29789615 -10.81574205 -3.80747639 -13.375 -5.6875 C-16.94868921 -8.25459121 -20.4551852 -10.35840047 -24.4375 -12.25 C-25.4275 -13.24 -25.4275 -13.24 -26.4375 -14.25 C-29.00811311 -14.89767793 -29.00811311 -14.89767793 -31.4375 -15.25 C-31.4375 -15.91 -31.4375 -16.57 -31.4375 -17.25 C-47.77827951 -18.45355669 -60.14592025 -18.77771983 -74.25 -9.375 C-80.51095287 -3.2929315 -83.32528901 3.73469169 -86.4375 11.75 C-86.80359375 12.60207031 -87.1696875 13.45414063 -87.546875 14.33203125 C-88.43410674 16.7407876 -88.79164061 18.76342235 -89 21.3125 C-89.1832951 23.47089336 -89.35350275 25.45736569 -89.95166016 27.54125977 C-93.96496574 45.78667463 -88.65801765 70.3240957 -82.7578125 87.82421875 C-82.4375 89.75 -82.4375 89.75 -84.4375 92.75 C-87.28511647 86.00963123 -89.13234101 79.20405326 -90.625 72.0625 C-90.79161133 71.26739014 -90.95822266 70.47228027 -91.12988281 69.65307617 C-95.04037349 50.31140386 -96.1238224 28.53648371 -89.4375 9.75 C-89.13714844 8.80640625 -88.83679688 7.8628125 -88.52734375 6.890625 C-85.27467285 -2.40272044 -78.66692617 -10.80883335 -70.4375 -16.25 C-43.33996041 -29.06819888 -21.53117105 -16.80218773 0 0 Z " fill="#3E95FE" transform="translate(471.4375,725.25)"/>
<path d="M0 0 C0.33 0 0.66 0 1 0 C1.0505916 6.65686814 1.0856876 13.31368694 1.10986328 19.97070312 C1.11993859 22.23667249 1.13359918 24.50262881 1.15087891 26.76855469 C1.17506011 30.02021501 1.18646763 33.27170387 1.1953125 36.5234375 C1.20563507 37.54118256 1.21595764 38.55892761 1.22659302 39.60751343 C1.22674408 40.54833771 1.22689514 41.48916199 1.22705078 42.45849609 C1.231492 43.28900482 1.23593323 44.11951355 1.24050903 44.97518921 C1 47 1 47 -1 49 C-2.99951172 49.50244141 -2.99951172 49.50244141 -5.4296875 49.8515625 C-6.30753906 49.98046875 -7.18539062 50.109375 -8.08984375 50.2421875 C-9.00894531 50.36851562 -9.92804688 50.49484375 -10.875 50.625 C-11.78636719 50.7590625 -12.69773437 50.893125 -13.63671875 51.03125 C-17.49341313 51.58462635 -21.09133793 52 -25 52 C-25 52.66 -25 53.32 -25 54 C-25.68288086 54.20044922 -26.36576172 54.40089844 -27.06933594 54.60742188 C-42.03529813 59.02952528 -56.68648554 63.76203642 -71 70 C-71.73508789 70.31936523 -72.47017578 70.63873047 -73.22753906 70.96777344 C-94.37021257 80.26903892 -128.00135269 96.22021431 -138.4375 118 C-138.7159375 118.99 -138.7159375 118.99 -139 120 C-140 117 -140 117 -139 114 C-139.99 113.67 -140.98 113.34 -142 113 C-128.7350046 99.4429313 -113.26381709 88.64072049 -97 79 C-95.97132813 78.36578125 -94.94265625 77.7315625 -93.8828125 77.078125 C-65.62749159 60.13848416 -33.18684 50.85215273 -1 45 C-0.505 22.725 -0.505 22.725 0 0 Z " fill="#084EDC" transform="translate(560,210)"/>
<path d="M0 0 C1.98 0.99 1.98 0.99 4 2 C-22.6807254 29.86653542 -58.61120568 48.27173153 -95 60 C-95.83563477 60.26941406 -96.67126953 60.53882813 -97.53222656 60.81640625 C-126.35850694 70 -126.35850694 70 -136 70 C-135.98839844 71.22074219 -135.97679687 72.44148437 -135.96484375 73.69921875 C-135.9029995 83.19520974 -136.04919306 92.54286666 -137 102 C-137.66 102 -138.32 102 -139 102 C-139.04937279 97.33692986 -139.08570627 92.67401127 -139.10986328 88.01074219 C-139.11993188 86.42380117 -139.13358767 84.83687875 -139.15087891 83.25 C-139.17509001 80.97130753 -139.18647422 78.69285994 -139.1953125 76.4140625 C-139.20563507 75.70255035 -139.21595764 74.99103821 -139.22659302 74.25796509 C-139.22699422 72.50368335 -139.12202209 70.75003291 -139 69 C-136.75840665 66.75840665 -136.01436018 66.62728515 -132.9921875 66.10546875 C-132.17903076 65.95754883 -131.36587402 65.80962891 -130.52807617 65.65722656 C-129.65256104 65.5022168 -128.7770459 65.34720703 -127.875 65.1875 C-118.64755109 63.43770714 -109.8803691 61.04475252 -101 58 C-100.11376953 57.7004541 -99.22753906 57.4009082 -98.31445312 57.09228516 C-91.51962843 54.79255127 -84.74998022 52.42818586 -78 50 C-76.918396 49.61158936 -76.918396 49.61158936 -75.81494141 49.21533203 C-55.20833906 41.70374343 -34.27501021 30.28874102 -17.49609375 16.109375 C-16 15 -16 15 -14 15 C-14 14.34 -14 13.68 -14 13 C-12.13671875 11.4140625 -12.13671875 11.4140625 -9.6875 9.625 C-7.17780626 7.79021585 -5.20039478 6.26750592 -3.33203125 3.7734375 C-2.67267578 2.89558594 -2.67267578 2.89558594 -2 2 C-1.34 2 -0.68 2 0 2 C0 1.34 0 0.68 0 0 Z " fill="#0F54E9" transform="translate(830,867)"/>
<path d="M0 0 C5.78805969 1.55256189 11.32733539 3.48242998 16.875 5.75 C22.42830341 8.01849715 28.01692416 10.10591947 33.6875 12.0625 C43.57291001 15.47686203 53.41344194 19.01044814 63.25 22.5625 C64.00864349 22.83595245 64.76728699 23.10940491 65.54891968 23.3911438 C74.84390828 26.742012 84.1160414 30.14662731 93.36108398 33.63305664 C97.17200997 35.06461482 100.99138255 36.47090159 104.8125 37.875 C118.51528824 42.97809694 131.90881152 48.81456009 145.10351562 55.10693359 C147.09686785 56.04561568 149.10133683 56.95647075 151.109375 57.86328125 C158.77366643 61.34841124 166.21090117 65.09229235 173.5 69.3125 C174.60480713 69.94345581 174.60480713 69.94345581 175.73193359 70.5871582 C180.87829222 73.63487666 180.87829222 73.63487666 182 77 C182.99 77.33 183.98 77.66 185 78 C184.67 78.66 184.34 79.32 184 80 C183.071875 79.2575 183.071875 79.2575 182.125 78.5 C180.16119096 76.80777227 180.16119096 76.80777227 178 77 C178 76.34 178 75.68 178 75 C177.48308594 74.7421875 176.96617187 74.484375 176.43359375 74.21875 C174.56960192 73.2852581 172.70807875 72.34683535 170.84765625 71.40625 C162.07519848 66.98241143 153.24214572 62.7005177 144.35961914 58.50195312 C140.50031575 56.67606206 136.65863654 54.83478595 132.859375 52.88671875 C129.0832087 50.98632613 125.22612733 49.48767817 121.25 48.0625 C116.53770255 46.36083703 111.89460177 44.55256453 107.27734375 42.60546875 C101.01733062 39.97787568 94.6851878 37.58878678 88.3125 35.25 C87.14477051 34.81953369 85.97704102 34.38906738 84.77392578 33.94555664 C72.87199802 29.5671813 60.93874117 25.27673066 49 21 C17.61266826 9.74962237 17.61266826 9.74962237 8 6 C7.35836914 5.76120117 6.71673828 5.52240234 6.05566406 5.27636719 C4.33472401 4.60249985 2.66207137 3.8082392 1 3 C0.67 2.01 0.34 1.02 0 0 Z " fill="#2A6CFC" transform="translate(560,670)"/>
<path d="M0 0 C6.927598 2.25666326 13.74835468 4.73505839 20.5625 7.3125 C22.71085023 8.123929 24.85928774 8.93512698 27.0078125 9.74609375 C28.04196289 10.13651855 29.07611328 10.52694336 30.14160156 10.92919922 C32.50321874 11.81389797 34.86887488 12.68252172 37.2421875 13.53515625 C47.50932624 17.25780803 57.45581016 21.62937934 67.42578125 26.08203125 C71.71819239 27.9983203 76.02532782 29.86983629 80.35546875 31.69921875 C94.83974933 37.855038 108.47878424 44.95267285 122 53 C123.315448 53.77754639 123.315448 53.77754639 124.6574707 54.57080078 C139.3617665 63.31106834 153.23906805 73.42927713 165.83203125 85.015625 C168.48180725 87.44100556 171.21710713 89.72974529 174 92 C173.01 92.33 172.02 92.66 171 93 C169.4140625 91.953125 169.4140625 91.953125 167.625 90.25 C166.90183594 89.59128906 166.17867187 88.93257812 165.43359375 88.25390625 C163.80039776 86.74129937 162.1675902 85.228273 160.53515625 83.71484375 C142.30120496 67.53189933 120.66243035 54.95885273 99 44 C98.05108887 43.51402344 97.10217773 43.02804687 96.12451172 42.52734375 C77.60551959 33.10292028 58.37807617 25.45171592 39.07183838 17.81951904 C37.1556466 17.06156627 35.24061291 16.30068747 33.32568359 15.53955078 C22.28832172 11.15355329 11.22911443 6.8727795 0 3 C0 2.01 0 1.02 0 0 Z " fill="#2C7FFD" transform="translate(664,512)"/>
<path d="M0 0 C0.33 0 0.66 0 1 0 C1.04984062 5.22866463 1.08592606 10.45718765 1.10986328 15.68603516 C1.11985378 17.46079928 1.13345081 19.23554723 1.15087891 21.01025391 C1.29717281 36.30226979 1.26217388 49.22196069 -9.5 61.1875 C-20.2516456 70.99248238 -31.34239941 71.90279804 -45.12890625 71.76171875 C-46.85278082 71.76322556 -48.57665465 71.76666631 -50.30052185 71.77192688 C-53.89202428 71.77623057 -57.48262014 71.75963134 -61.07397461 71.72729492 C-65.64553619 71.68748644 -70.21540298 71.69684744 -74.78701878 71.72152996 C-78.33991559 71.73580419 -81.89242565 71.72555521 -85.44529533 71.70801735 C-87.1295574 71.70222548 -88.81386005 71.70338285 -90.49810982 71.71204185 C-104.12408839 71.75879334 -115.07789765 69.77686902 -125.3515625 60.00390625 C-127.47851565 57.41829733 -128.08345631 55.33825239 -128 52 C-125.88108478 54.11891522 -123.78302781 56.23505321 -121.75 58.4375 C-114.32584273 65.35546473 -106.76727323 68.24602395 -96.53930664 68.25878906 C-95.82937057 68.2622937 -95.11943451 68.26579834 -94.38798523 68.26940918 C-92.06194011 68.27814745 -89.73620399 68.27240494 -87.41015625 68.265625 C-85.78022707 68.26697407 -84.15029829 68.26891663 -82.52037048 68.27142334 C-79.11192985 68.27436403 -75.70359438 68.27011158 -72.29516602 68.26074219 C-67.94321584 68.24935736 -63.59151267 68.25590765 -59.23957157 68.26788712 C-55.875668 68.27514204 -52.51182219 68.27280101 -49.14791679 68.26763153 C-47.54407153 68.2663046 -45.94022089 68.26790896 -44.33638191 68.27259064 C-42.0874776 68.27771492 -39.83896343 68.26986343 -37.59008789 68.25878906 C-36.31436417 68.25719788 -35.03864044 68.25560669 -33.72425842 68.25396729 C-24.3496394 67.61468658 -16.50551394 64.21823037 -10.1875 57.125 C-5.18691688 49.98130982 -2.95144917 43.99005857 -2.68359375 35.265625 C-2.64169922 33.97011719 -2.59980469 32.67460938 -2.55664062 31.33984375 C-2.51683329 29.97656524 -2.47712094 28.61328394 -2.4375 27.25 C-2.39427726 25.87108125 -2.35066179 24.49217474 -2.30664062 23.11328125 C-2.20056042 19.7422881 -2.0985015 16.37122174 -2 13 C-1.34 13 -0.68 13 0 13 C0 8.71 0 4.42 0 0 Z " fill="#2C7BFD" transform="translate(693,956)"/>
<path d="M0 0 C0.71542969 0.71800781 1.43085938 1.43601562 2.16796875 2.17578125 C3.99344808 3.99622478 5.82871155 5.80693519 7.67578125 7.60546875 C8.98095703 8.88357422 8.98095703 8.88357422 10.3125 10.1875 C11.19550781 11.04730469 12.07851563 11.90710938 12.98828125 12.79296875 C15 15 15 15 15 17 C15.639375 17.268125 16.27875 17.53625 16.9375 17.8125 C19 19 19 19 20 22 C21.32837711 22.67648834 22.66307293 23.34056976 24 24 C26.03389737 25.72187903 28.01998037 27.46861201 30 29.25 C44.00399235 41.50489782 59.73921041 51.39902382 75.79736328 60.71728516 C77.72778981 61.84147724 79.64532284 62.98368794 81.55859375 64.13671875 C105.31171735 78.19468986 131.44556515 88.7008949 157 99 C157 99.33 157 99.66 157 100 C152.04337355 100.31308478 148.67631726 99.33410156 144.125 97.40234375 C143.47861572 97.13039688 142.83223145 96.85845001 142.16625977 96.57826233 C140.79928809 96.00066417 139.43448586 95.41790774 138.07177734 94.83032227 C136.03826493 93.95399008 133.99856792 93.09377352 131.95703125 92.23632812 C123.11911049 88.49562522 114.54531593 84.36593235 106 80 C104.63717078 79.32586927 103.27294294 78.65454406 101.90625 77.98828125 C94.03425535 74.11547654 86.27624926 70.05435795 78.5625 65.875 C77.65113281 65.38427002 76.73976563 64.89354004 75.80078125 64.38793945 C69.98195836 61.21215097 64.46241367 57.7518666 59 54 C57.989375 53.3296875 56.97875 52.659375 55.9375 51.96875 C41.27272045 42.14022754 27.20618496 31.83393161 15 19 C14.195625 18.195625 13.39125 17.39125 12.5625 16.5625 C11.716875 15.716875 10.87125 14.87125 10 14 C9.33484375 13.34644531 8.6696875 12.69289063 7.984375 12.01953125 C7.26765625 11.31183594 6.5509375 10.60414063 5.8125 9.875 C4.80123047 8.88113281 4.80123047 8.88113281 3.76953125 7.8671875 C1.23924111 5.19725663 0 3.75311501 0 0 Z " fill="#2E81FD" transform="translate(402,570)"/>
<path d="M0 0 C3.75097557 3.12581297 7.31250681 6.27526678 10.69921875 9.79296875 C14.78707628 13.89970348 19.13386061 17.40466293 23.8125 20.8125 C25.04637451 21.71307129 25.04637451 21.71307129 26.30517578 22.63183594 C59.64889244 46.55301801 98.99516553 60.22763216 139 68 C138.67 68.99 138.34 69.98 138 71 C124.34717813 68.53087264 111.20642845 65.24631475 98 61 C96.85660156 60.63777344 95.71320313 60.27554688 94.53515625 59.90234375 C87.2521847 57.53848833 80.10133959 54.86137498 73 52 C71.77539062 51.50886719 70.55078125 51.01773438 69.2890625 50.51171875 C51.13839031 43.01609555 34.38877803 32.43157679 18.75 20.625 C18.17588379 20.19566162 17.60176758 19.76632324 17.01025391 19.32397461 C15.63430764 18.26505008 14.31136383 17.13792539 13 16 C13 15.34 13 14.68 13 14 C12.443125 13.773125 11.88625 13.54625 11.3125 13.3125 C6.20793006 10.41531166 2.65853436 5.49477079 -1 1 C-0.67 0.67 -0.34 0.34 0 0 Z " fill="#2776FD" transform="translate(419,866)"/>
<path d="M0 0 C7.10915098 0.42213838 13.35338491 1.77354116 20.0625 4.125 C20.97153076 4.43703369 21.88056152 4.74906738 22.81713867 5.07055664 C48.31141976 13.94908437 72.14920591 26.10583264 94 42 C94.92425781 42.66386719 95.84851563 43.32773437 96.80078125 44.01171875 C101.47608748 47.48002524 101.47608748 47.48002524 103 49 C103 49.99 103 50.98 103 52 C102.34 52 101.68 52 101 52 C101 51.34 101 50.68 101 50 C100.43555176 49.7328418 99.87110352 49.46568359 99.28955078 49.19042969 C96.85414106 47.92416206 94.64072229 46.49092827 92.3671875 44.953125 C91.47773437 44.355 90.58828125 43.756875 89.671875 43.140625 C87.83062791 41.89598311 85.98947946 40.65119528 84.1484375 39.40625 C75.87212479 33.84114318 67.4283309 28.62913184 58.625 23.9375 C57.99142578 23.59952393 57.35785156 23.26154785 56.70507812 22.91333008 C50.9518698 19.8917416 45.03644111 17.39931578 39 15 C37.40345581 14.29786377 37.40345581 14.29786377 35.7746582 13.58154297 C32.18636885 12.04043635 28.54125671 10.79198447 24.82421875 9.58984375 C23.48888164 9.15314966 22.15359663 8.71629619 20.81835938 8.27929688 C18.74088044 7.60343097 16.66280131 6.92952889 14.58374023 6.25854492 C12.55798747 5.60337052 10.53475891 4.9408384 8.51171875 4.27734375 C7.30990967 3.88796631 6.10810059 3.49858887 4.86987305 3.09741211 C2 2 2 2 0 0 Z " fill="#2D8DFD" transform="translate(718,262)"/>
<path d="M0 0 C1.64742187 0.02707031 1.64742187 0.02707031 3.328125 0.0546875 C4.12734375 0.07789063 4.9265625 0.10109375 5.75 0.125 C2.57252673 1.92294814 -0.28555634 2.61901176 -3.87890625 3.203125 C-4.98693604 3.39108643 -6.09496582 3.57904785 -7.23657227 3.77270508 C-9.00665649 4.07084106 -9.00665649 4.07084106 -10.8125 4.375 C-37.13474282 9.06099147 -68.7612409 18.28530306 -87 39.1875 C-89.25 41.125 -89.25 41.125 -92.5 41.0625 C-95.25 40.125 -95.25 40.125 -96.25 38.125 C-94.6 38.455 -92.95 38.785 -91.25 39.125 C-91.25 38.465 -91.25 37.805 -91.25 37.125 C-88.95028567 34.87641908 -86.31034023 33.0043806 -83.75 31.0625 C-82.59781982 30.18839478 -82.59781982 30.18839478 -81.42236328 29.29663086 C-66.00992782 17.8296652 -49.41093943 10.82696236 -31.0625 5.375 C-30.07701172 5.08093262 -29.09152344 4.78686523 -28.07617188 4.48388672 C-18.87039385 1.83592225 -9.61706888 -0.20906671 0 0 Z " fill="#1255EB" transform="translate(604.25,407.875)"/>
<path d="M0 0 C0.495 1.485 0.495 1.485 1 3 C-0.74915445 4.43852875 -2.49935795 5.87578198 -4.25 7.3125 C-5.71179688 8.51326172 -5.71179688 8.51326172 -7.203125 9.73828125 C-8.12609375 10.48464844 -9.0490625 11.23101563 -10 12 C-11.07507813 12.88751953 -11.07507813 12.88751953 -12.171875 13.79296875 C-14 15 -14 15 -17 15 C-17.33 15.99 -17.66 16.98 -18 18 C-20.73828125 19.61328125 -20.73828125 19.61328125 -24.3125 21.3125 C-25.60707394 21.93165832 -26.90134047 22.55145975 -28.1953125 23.171875 C-29.16645996 23.63303711 -29.16645996 23.63303711 -30.15722656 24.10351562 C-31.76861957 24.88743655 -33.35205391 25.72830637 -34.9296875 26.578125 C-46.70000841 32.91342521 -60.50710894 37.93935779 -74 38 C-74.33 37.34 -74.66 36.68 -75 36 C-73.82308594 35.75507812 -72.64617188 35.51015625 -71.43359375 35.2578125 C-61.49963354 33.0553664 -52.2078711 30.13994569 -42.875 26.0625 C-41.94099365 25.65596191 -41.0069873 25.24942383 -40.04467773 24.83056641 C-34.5055912 22.33815021 -29.30203057 19.51336968 -24.14086914 16.31152344 C-22.3235789 15.19822851 -20.44768453 14.18150639 -18.5625 13.1875 C-14.13680043 10.71121572 -10.39736186 7.29874377 -6.55078125 4.0234375 C-4.39626179 2.31433937 -2.50522608 1.09126944 0 0 Z " fill="#0E51E6" transform="translate(740,746)"/>
<path d="M0 0 C1.05767578 -0.01007584 1.05767578 -0.01007584 2.13671875 -0.02035522 C4.44831558 -0.03922078 6.75962021 -0.04325381 9.07128906 -0.04541016 C10.69403193 -0.05184694 12.31677366 -0.05857595 13.93951416 -0.06558228 C17.33535448 -0.07752713 20.7310933 -0.08126608 24.12695312 -0.08007812 C28.45189012 -0.0798753 32.77616732 -0.10715135 37.10094833 -0.14162254 C40.45211705 -0.16399907 43.80312981 -0.16791237 47.15436554 -0.16685867 C48.74738076 -0.16919949 50.3404013 -0.1779361 51.93334198 -0.19352341 C62.81987062 -0.29006516 72.73053516 0.20849572 81.58691406 7.29052734 C80.59691406 7.62052734 79.60691406 7.95052734 78.58691406 8.29052734 C77.76707031 7.66662109 76.94722656 7.04271484 76.10253906 6.39990234 C71.58893542 3.20574435 66.69346696 3.60939901 61.33691406 3.54052734 C60.17119873 3.5123291 59.0054834 3.48413086 57.80444336 3.45507812 C53.39847705 3.36646897 48.99359378 3.32261658 44.58691406 3.29052734 C43.61989563 3.28299438 42.6528772 3.27546143 41.65655518 3.2677002 C33.90420028 3.2105876 26.15195674 3.18088776 18.39941406 3.16552734 C17.29102173 3.16266724 16.18262939 3.15980713 15.04064941 3.15686035 C11.83338004 3.15104772 8.62621481 3.1530081 5.41894531 3.15771484 C4.46045181 3.15575104 3.50195831 3.15378723 2.51441956 3.15176392 C-3.20541644 3.17117816 -8.73884842 3.56072887 -14.41308594 4.29052734 C-14.41308594 3.63052734 -14.41308594 2.97052734 -14.41308594 2.29052734 C-9.45481796 0.68738426 -5.26104833 0.03168399 0 0 Z " fill="#4197FD" transform="translate(596.4130859375,160.70947265625)"/>
<path d="M0 0 C1.32 0.66 2.64 1.32 4 2 C-10.4935304 17.13768731 -27.28628706 28.28594154 -45.375 38.6875 C-46.72150635 39.46347534 -46.72150635 39.46347534 -48.09521484 40.25512695 C-48.93777832 40.73167725 -49.7803418 41.20822754 -50.6484375 41.69921875 C-51.39270996 42.12033936 -52.13698242 42.54145996 -52.90380859 42.9753418 C-54.9790422 43.98975543 -56.70505041 44.71366044 -59 45 C-59.66 44.34 -60.32 43.68 -61 43 C-60.40687012 42.68361572 -59.81374023 42.36723145 -59.20263672 42.04125977 C-37.54826679 30.51466535 -37.54826679 30.51466535 -17.671875 16.21484375 C-16 15 -16 15 -14 15 C-14 14.34 -14 13.68 -14 13 C-12.13671875 11.4140625 -12.13671875 11.4140625 -9.6875 9.625 C-7.17780626 7.79021585 -5.20039478 6.26750592 -3.33203125 3.7734375 C-2.89246094 3.18820312 -2.45289063 2.60296875 -2 2 C-1.34 2 -0.68 2 0 2 C0 1.34 0 0.68 0 0 Z " fill="#0744D2" transform="translate(830,867)"/>
<path d="M0 0 C0.71542969 0.71800781 1.43085938 1.43601562 2.16796875 2.17578125 C3.99344808 3.99622478 5.82871155 5.80693519 7.67578125 7.60546875 C8.98095703 8.88357422 8.98095703 8.88357422 10.3125 10.1875 C11.19550781 11.04730469 12.07851563 11.90710938 12.98828125 12.79296875 C15 15 15 15 15 17 C15.639375 17.268125 16.27875 17.53625 16.9375 17.8125 C19 19 19 19 20 22 C21.32837711 22.67648834 22.66307293 23.34056976 24 24 C26.0339014 25.72188243 28.02030044 27.46824175 30 29.25 C41.86756578 39.66592962 55.07144654 48.60384039 68.76171875 56.44921875 C71 58 71 58 72 61 C61.42303859 57.13609159 51.91278421 49.73107347 43 43 C41.95972656 42.22785156 40.91945313 41.45570313 39.84765625 40.66015625 C33.13202956 35.62970549 26.86285088 30.29506265 20.75390625 24.54296875 C18.82355563 22.76047477 16.90516445 21.07890085 14.875 19.421875 C12.47655287 17.40144399 10.45829382 15.44362814 8.4375 13.0625 C7.85742188 12.37929688 7.27734375 11.69609375 6.6796875 10.9921875 C6.12539063 10.33476563 5.57109375 9.67734375 5 9 C4.48695313 8.42507813 3.97390625 7.85015625 3.4453125 7.2578125 C0 3.34533898 0 3.34533898 0 0 Z " fill="#378FFD" transform="translate(402,570)"/>
<path d="M0 0 C0.33 0.66 0.66 1.32 1 2 C1.66 2 2.32 2 3 2 C4.0342579 5.40268063 4.12085412 8.50660734 4.11352539 12.05371094 C4.11344986 13.27467468 4.11337433 14.49563843 4.11329651 15.75360107 C4.10813522 17.06725647 4.10297394 18.38091187 4.09765625 19.734375 C4.09579021 21.0962926 4.09436718 22.45821088 4.09336853 23.82012939 C4.08955803 27.39741889 4.07974032 30.97466752 4.06866455 34.55194092 C4.05841884 38.20519457 4.05386415 41.85845486 4.04882812 45.51171875 C4.03811669 52.67449776 4.02105794 59.83724314 4 67 C2.515 67.495 2.515 67.495 1 68 C0.67 45.56 0.34 23.12 0 0 Z " fill="#2976FB" transform="translate(690,187)"/>
<path d="M0 0 C0.33 0 0.66 0 1 0 C1.04984062 5.22866463 1.08592606 10.45718765 1.10986328 15.68603516 C1.11985378 17.46079928 1.13345081 19.23554723 1.15087891 21.01025391 C1.29762567 36.34960731 1.31331811 49.38245077 -9.6875 61.25 C-15.75494011 66.9311237 -21.69994891 70.28005436 -30.125 70.3125 C-31.75142535 70.23365667 -33.37759115 70.13879924 -35 70 C-35 69.67 -35 69.34 -35 69 C-34.16597656 68.85304688 -33.33195313 68.70609375 -32.47265625 68.5546875 C-21.96204559 66.45978916 -14.22922435 62.89889193 -8 54 C-4.36561128 47.64289973 -2.90967959 42.62956377 -2.68359375 35.265625 C-2.62075195 33.32236328 -2.62075195 33.32236328 -2.55664062 31.33984375 C-2.51683329 29.97656524 -2.47712094 28.61328394 -2.4375 27.25 C-2.39427726 25.87108125 -2.35066179 24.49217474 -2.30664062 23.11328125 C-2.20056042 19.7422881 -2.0985015 16.37122174 -2 13 C-1.34 13 -0.68 13 0 13 C0 8.71 0 4.42 0 0 Z " fill="#2671FD" transform="translate(693,956)"/>
<path d="M0 0 C0 0.66 0 1.32 0 2 C-1.62475912 3.02778323 -3.30451103 3.96863489 -5 4.875 C-18.31700003 12.4307447 -37.6050128 24.06003546 -43 39 C-44 36 -44 36 -43 33 C-43.99 32.67 -44.98 32.34 -46 32 C-36.32095997 22.10784349 -25.41168051 13.77993401 -14 6 C-12.93652344 5.26910156 -11.87304688 4.53820312 -10.77734375 3.78515625 C-3.3900066 -1.1300022 -3.3900066 -1.1300022 0 0 Z " fill="#0240CE" transform="translate(464,291)"/>
<path d="M0 0 C-0.33 0.99 -0.66 1.98 -1 3 C-1.65444092 2.85377197 -2.30888184 2.70754395 -2.9831543 2.55688477 C-20.02764385 -1.13557533 -36.34003683 -2.61051886 -53.7331543 -2.81030273 C-54.50387772 -2.81934128 -55.27460114 -2.82837982 -56.06867981 -2.83769226 C-57.51051894 -2.85167389 -58.95242701 -2.86015543 -60.39433289 -2.8618927 C-64.36429288 -2.88630933 -68.10350122 -3.24018651 -72 -4 C-72 -4.33 -72 -4.66 -72 -5 C-47.7917839 -7.80674969 -23.69070738 -5.35318869 0 0 Z " fill="#276CF8" transform="translate(676,412)"/>
<path d="M0 0 C6.9276208 2.25667068 13.74818985 4.73545378 20.5625 7.3125 C22.69657314 8.11729739 24.8306878 8.92198473 26.96484375 9.7265625 C27.99722168 10.11618164 29.02959961 10.50580078 30.09326172 10.90722656 C32.60209152 11.85040834 35.11388117 12.78443797 37.62890625 13.7109375 C46.2121334 16.87801062 54.62939743 20.31170324 63 24 C61.35400391 25.12280273 61.35400391 25.12280273 59 26 C56.35302734 25.32836914 56.35302734 25.32836914 53.3359375 24.03515625 C52.2224292 23.56803223 51.1089209 23.1009082 49.96166992 22.61962891 C48.77806885 22.10577637 47.59446777 21.59192383 46.375 21.0625 C43.92100794 20.02891444 41.46657983 18.99636359 39.01171875 17.96484375 C37.81208496 17.45550293 36.61245117 16.94616211 35.37646484 16.42138672 C31.00770245 14.58227358 26.60947118 12.83151829 22.1875 11.125 C21.48367188 10.85236328 20.77984375 10.57972656 20.0546875 10.29882812 C13.41323415 7.74394012 6.7185761 5.34394054 0 3 C0 2.01 0 1.02 0 0 Z " fill="#328CFD" transform="translate(664,512)"/>
<path d="M0 0 C-3.75 3 -3.75 3 -6 3 C-6.268125 3.598125 -6.53625 4.19625 -6.8125 4.8125 C-7.99917406 6.99847854 -9.09599113 8.41332594 -11 10 C-11.66 10 -12.32 10 -13 10 C-13.268125 10.680625 -13.53625 11.36125 -13.8125 12.0625 C-14.68704293 14.22584305 -15.61127679 16.36926002 -16.5625 18.5 C-18.75605636 23.84083289 -19.2226208 28.92605895 -19.52734375 34.65234375 C-19.56866928 35.39234116 -19.60999481 36.13233856 -19.65257263 36.89476013 C-20.10920059 45.4458965 -20.34241717 54.00262528 -20.5625 62.5625 C-20.60587383 64.17123061 -20.64949268 65.77995463 -20.69335938 67.38867188 C-20.79837946 71.25904498 -20.90014695 75.12949029 -21 79 C-21.33 79 -21.66 79 -22 79 C-22.07643488 71.49274257 -22.12876094 63.98558654 -22.16479492 56.47802734 C-22.17982636 53.92720794 -22.20025705 51.37641415 -22.22631836 48.82568359 C-22.26294972 45.14674537 -22.27978346 41.46815065 -22.29296875 37.7890625 C-22.30845261 36.65949127 -22.32393646 35.52992004 -22.33988953 34.36611938 C-22.34245036 22.15641755 -19.52622373 13.71817149 -11.0078125 4.94921875 C-5.28422887 -0.43958923 -5.28422887 -0.43958923 0 0 Z " fill="#3685FB" transform="translate(581,166)"/>
<path d="M0 0 C6.26100482 -0.81709688 10.44760453 1.99441951 15.6875 5 C16.58017578 5.50257324 17.47285156 6.00514648 18.39257812 6.52294922 C24.94707692 10.26684265 31.04433643 14.36171823 37 19 C38.1051472 19.79963212 39.21339478 20.59499155 40.32421875 21.38671875 C41.44532476 22.1952955 42.56641874 23.00388893 43.6875 23.8125 C44.70199219 24.54082031 45.71648438 25.26914062 46.76171875 26.01953125 C47.50035156 26.67308594 48.23898437 27.32664062 49 28 C49 28.99 49 29.98 49 31 C48.34 31 47.68 31 47 31 C47 30.34 47 29.68 47 29 C46.43555176 28.7328418 45.87110352 28.46568359 45.28955078 28.19042969 C42.85414106 26.92416206 40.64072229 25.49092827 38.3671875 23.953125 C37.47773437 23.355 36.58828125 22.756875 35.671875 22.140625 C33.83062791 20.89598311 31.98947946 19.65119528 30.1484375 18.40625 C22.13699194 13.0192435 14.0579517 7.86551129 5.375 3.625 C4.35148438 3.12226563 3.32796875 2.61953125 2.2734375 2.1015625 C1.52320313 1.73804688 0.77296875 1.37453125 0 1 C0 0.67 0 0.34 0 0 Z " fill="#3C92FD" transform="translate(772,283)"/>
<path d="M0 0 C4.30099276 0.58291843 7.18889687 2.12289211 10.875 4.375 C25.84620667 13.24477251 42.00474471 20.19795385 58 27 C58 27.66 58 28.32 58 29 C58.66 29.33 59.32 29.66 60 30 C56.70548705 29.57490155 53.95092535 28.60150806 50.953125 27.23828125 C49.75635132 26.6976001 49.75635132 26.6976001 48.53540039 26.14599609 C47.69871826 25.76781738 46.86203613 25.38963867 46 25 C44.33770772 24.26846657 42.67493826 23.53801657 41.01171875 22.80859375 C31.45157155 18.57095886 22.05575517 14.13862797 12.875 9.125 C12.04057373 8.67310303 11.20614746 8.22120605 10.34643555 7.75561523 C6.37454543 5.54498221 3.00557599 3.49296669 0 0 Z " fill="#3993FC" transform="translate(511,449)"/>
<path d="M0 0 C0.33 0 0.66 0 1 0 C1.0505916 6.65686814 1.0856876 13.31368694 1.10986328 19.97070312 C1.11993859 22.23667249 1.13359918 24.50262881 1.15087891 26.76855469 C1.17506011 30.02021501 1.18646763 33.27170387 1.1953125 36.5234375 C1.20563507 37.54118256 1.21595764 38.55892761 1.22659302 39.60751343 C1.22674408 40.54833771 1.22689514 41.48916199 1.22705078 42.45849609 C1.231492 43.28900482 1.23593323 44.11951355 1.24050903 44.97518921 C1 47 1 47 -1 49 C-2.99951172 49.50244141 -2.99951172 49.50244141 -5.4296875 49.8515625 C-6.74646484 50.04492188 -6.74646484 50.04492188 -8.08984375 50.2421875 C-9.00894531 50.36851562 -9.92804687 50.49484375 -10.875 50.625 C-11.78636719 50.7590625 -12.69773437 50.893125 -13.63671875 51.03125 C-17.49341313 51.58462635 -21.09133793 52 -25 52 C-25 52.66 -25 53.32 -25 54 C-25.99 53.67 -26.98 53.34 -28 53 C-28 52.34 -28 51.68 -28 51 C-25.56363885 50.37027554 -23.12603705 49.74619914 -20.6875 49.125 C-20.01654297 48.95097656 -19.34558594 48.77695312 -18.65429688 48.59765625 C-12.77726801 47.10770527 -7.00986972 46.09270359 -1 45 C-0.67 30.15 -0.34 15.3 0 0 Z " fill="#1964ED" transform="translate(560,210)"/>
<path d="M0 0 C0.66 0.66 1.32 1.32 2 2 C0.23017066 2.31813686 -1.54094627 2.62911009 -3.3125 2.9375 C-4.29863281 3.11152344 -5.28476562 3.28554688 -6.30078125 3.46484375 C-16.18913276 4.89536556 -25.95376521 5.15533033 -35.9375 5.125 C-37.23751953 5.12886719 -38.53753906 5.13273438 -39.87695312 5.13671875 C-41.12283203 5.13542969 -42.36871094 5.13414062 -43.65234375 5.1328125 C-44.77632568 5.13168457 -45.90030762 5.13055664 -47.05834961 5.12939453 C-49.55889502 5.01940291 -51.62001865 4.72990444 -54 4 C-54 3.34 -54 2.68 -54 2 C-53.28158936 2.01047363 -52.56317871 2.02094727 -51.82299805 2.03173828 C-38.43136024 2.2004821 -25.28071309 2.16948334 -11.98828125 0.4375 C-7.94477433 -0.05466673 -4.07352784 -0.2118411 0 0 Z " fill="#105DFC" transform="translate(666,783)"/>
<path d="M0 0 C1.99634357 1.64004273 2.91746999 2.51796933 3.36076355 5.10710144 C3.35410172 5.91762466 3.34743988 6.72814789 3.34057617 7.56323242 C3.34034958 8.48396042 3.34012299 9.40468842 3.33988953 10.35331726 C3.32440567 11.34402725 3.30892181 12.33473724 3.29296875 13.35546875 C3.28872391 14.37224197 3.28447906 15.3890152 3.28010559 16.43659973 C3.26329997 19.68716812 3.22564382 22.9371187 3.1875 26.1875 C3.17245562 28.38996501 3.15876679 30.59243973 3.14648438 32.79492188 C3.11339036 38.19682572 3.06317223 43.59836872 3 49 C-0.72535439 45.53361753 -0.5811001 42.97024111 -0.87890625 37.98046875 C-1.2641427 25.31737385 -1.48879872 12.60161775 0 0 Z " fill="#379AFD" transform="translate(361,435)"/>
<path d="M0 0 C6.39446391 1.35094308 12.61388689 3.01023981 18.875 4.875 C28.82111092 7.78618762 38.8311149 10.02433089 49 12 C48.67 12.99 48.34 13.98 48 15 C35.09114258 12.6654194 22.61938021 9.66333081 10.12646484 5.65136719 C8.09295553 5.02847363 6.05254586 4.51692429 3.98828125 4.0078125 C3.00214844 3.67523437 2.01601563 3.34265625 1 3 C0.67 2.01 0.34 1.02 0 0 Z " fill="#2067FC" transform="translate(509,922)"/>
<path d="M0 0 C3.30798221 1.49068565 6.22753088 3.45699152 9.23071289 5.47924805 C20.3331303 12.92295865 32.07281337 18.99608543 44 25 C43.34 25.66 42.68 26.32 42 27 C35.50204944 24.26402081 29.32531687 21.10480444 23.14233398 17.73046875 C20.44836702 16.26744122 17.91551177 14.97183726 15 14 C15 13.34 15 12.68 15 12 C12.66785852 10.79371992 10.50357861 9.8345262 8 9 C8 8.34 8 7.68 8 7 C7.2575 6.7525 6.515 6.505 5.75 6.25 C2.79875938 4.90852699 1.15185026 3.39094474 -1 1 C-0.67 0.67 -0.34 0.34 0 0 Z " fill="#3B90FE" transform="translate(488,739)"/>
<path d="M0 0 C-5.98479872 2.88156975 -12.09573664 5.16936827 -18.375 7.3125 C-19.17212402 7.59109863 -19.96924805 7.86969727 -20.79052734 8.15673828 C-21.92675537 8.53741455 -21.92675537 8.53741455 -23.0859375 8.92578125 C-23.7670459 9.15692627 -24.4481543 9.38807129 -25.14990234 9.6262207 C-27 10 -27 10 -30 9 C-30 8.34 -30 7.68 -30 7 C-4.39230464 -2.92820309 -4.39230464 -2.92820309 0 0 Z " fill="#0B4AEC" transform="translate(534,263)"/>
<path d="M0 0 C-1 3 -1 3 -2.71484375 4.10546875 C-3.81505859 4.64107422 -3.81505859 4.64107422 -4.9375 5.1875 C-11.62747711 8.7192104 -17.77515868 13.33824348 -22.75 19.0625 C-25 21 -25 21 -28.25 20.9375 C-31 20 -31 20 -32 18 C-30.35 18.33 -28.7 18.66 -27 19 C-27 18.34 -27 17.68 -27 17 C-25.55053711 15.64306641 -25.55053711 15.64306641 -23.52734375 14.1015625 C-22.79193359 13.53953125 -22.05652344 12.9775 -21.29882812 12.3984375 C-20.51958984 11.81320312 -19.74035156 11.22796875 -18.9375 10.625 C-18.18533203 10.0475 -17.43316406 9.47 -16.65820312 8.875 C-4.95657641 0 -4.95657641 0 0 0 Z " fill="#0446CD" transform="translate(540,428)"/>
<path d="M0 0 C0.66 0 1.32 0 2 0 C2 19.47 2 38.94 2 59 C1.67 59 1.34 59 1 59 C0.71591003 51.45522689 0.43733609 43.91026748 0.16588497 36.36502934 C0.03967638 32.86181595 -0.08846145 29.35869494 -0.22094727 25.85571289 C-0.3730295 21.83238726 -0.51682988 17.80880337 -0.66015625 13.78515625 C-0.73351952 11.88987938 -0.73351952 11.88987938 -0.80836487 9.95631409 C-0.8484819 8.795186 -0.88859894 7.63405792 -0.92993164 6.43774414 C-0.96768204 5.40960098 -1.00543243 4.38145782 -1.04432678 3.32215881 C-1 1 -1 1 0 0 Z " fill="#1A60EC" transform="translate(559,936)"/>
<path d="M0 0 C0.66 0 1.32 0 2 0 C2.02917237 4.52081966 2.0468568 9.04161488 2.0625 13.5625 C2.07087891 14.83931641 2.07925781 16.11613281 2.08789062 17.43164062 C2.09111328 18.67236328 2.09433594 19.91308594 2.09765625 21.19140625 C2.10289307 22.32779541 2.10812988 23.46418457 2.11352539 24.63500977 C1.99486905 28.15208567 1.55780511 31.52771145 1 35 C0.67 35 0.34 35 0 35 C-0.86042194 27.83341042 -1.15430865 20.77731259 -1.125 13.5625 C-1.12886719 12.58345703 -1.13273438 11.60441406 -1.13671875 10.59570312 C-1.13542969 9.65791016 -1.13414062 8.72011719 -1.1328125 7.75390625 C-1.13168457 6.91158447 -1.13055664 6.0692627 -1.12939453 5.20141602 C-1 3 -1 3 0 0 Z " fill="#3477FD" transform="translate(890,719)"/>
<path d="M0 0 C0.99 0.66 1.98 1.32 3 2 C-15.34042553 12.95744681 -15.34042553 12.95744681 -24 17 C-24.99 16.34 -25.98 15.68 -27 15 C-26.35973877 14.65219482 -25.71947754 14.30438965 -25.05981445 13.94604492 C-22.14343394 12.36098089 -19.2279598 10.77425684 -16.3125 9.1875 C-15.30509766 8.64029297 -14.29769531 8.09308594 -13.25976562 7.52929688 C-12.28330078 6.99755859 -11.30683594 6.46582031 -10.30078125 5.91796875 C-8.95753784 5.18743286 -8.95753784 5.18743286 -7.5871582 4.44213867 C-5.02421025 3.01349533 -2.50752343 1.5234835 0 0 Z " fill="#074DD9" transform="translate(796,895)"/>
<path d="M0 0 C0.66 0 1.32 0 2 0 C3.55563288 3.11126576 3.14573527 6.40043748 3.125 9.8125 C3.12306641 10.56845459 3.12113281 11.32440918 3.11914062 12.10327148 C3.06860157 18.76951311 2.64632087 25.3636696 2 32 C1.34 32 0.68 32 0 32 C0 21.44 0 10.88 0 0 Z " fill="#0E56E2" transform="translate(691,937)"/>
<path d="M0 0 C0.33 0.99 0.66 1.98 1 3 C-14.46327086 16.08645707 -14.46327086 16.08645707 -22 17 C-22 16.34 -22 15.68 -22 15 C-21.071875 14.525625 -20.14375 14.05125 -19.1875 13.5625 C-14.53699933 10.9335435 -10.60582143 7.47624399 -6.55078125 4.0234375 C-4.39626179 2.31433937 -2.50522608 1.09126944 0 0 Z " fill="#0A49D5" transform="translate(740,746)"/>
<path d="M0 0 C-2.85006529 1.90004353 -4.52455413 2.52208702 -7.78125 3.2890625 C-9.16763672 3.61777344 -9.16763672 3.61777344 -10.58203125 3.953125 C-12.02642578 4.28570313 -12.02642578 4.28570313 -13.5 4.625 C-14.94439453 4.96917969 -14.94439453 4.96917969 -16.41796875 5.3203125 C-23.58663504 7 -23.58663504 7 -27 7 C-27.33 7.66 -27.66 8.32 -28 9 C-28 8.34 -28 7.68 -28 7 C-28.66 6.67 -29.32 6.34 -30 6 C-27.679821 3.679821 -26.6614827 3.54980559 -23.5 2.96484375 C-22.613125 2.79533203 -21.72625 2.62582031 -20.8125 2.45117188 C-19.4203125 2.1969043 -19.4203125 2.1969043 -18 1.9375 C-16.16620013 1.594936 -14.33284174 1.2499976 -12.5 0.90234375 C-11.6853125 0.75273193 -10.870625 0.60312012 -10.03125 0.44897461 C-6.05525313 -0.42985451 -4.24197855 -0.82995232 0 0 Z " fill="#1A5FF4" transform="translate(721,930)"/>
<path d="M0 0 C5.06854933 0.5331934 9.06364582 1.69121963 13.6875 3.8125 C20.01726914 6.62799217 26.38896701 8.94161976 33 11 C30 13 30 13 27.90283203 12.63208008 C27.11247559 12.34743896 26.32211914 12.06279785 25.5078125 11.76953125 C24.63769531 11.46080078 23.76757812 11.15207031 22.87109375 10.83398438 C21.51177734 10.32834961 21.51177734 10.32834961 20.125 9.8125 C19.22652344 9.49474609 18.32804688 9.17699219 17.40234375 8.84960938 C12.97440735 7.25045066 8.95904225 5.58889569 5 3 C3.34630643 2.30177383 1.68272986 1.62501395 0 1 C0 0.67 0 0.34 0 0 Z " fill="#267FFD" transform="translate(532,766)"/>
<path d="M0 0 C0.33 0 0.66 0 1 0 C2.28393432 7.02296603 1.8682615 13.39796589 0.6875 20.375 C0.49256958 21.53394775 0.49256958 21.53394775 0.29370117 22.71630859 C-0.42739466 26.69336621 -1.31125288 30.29803032 -3 34 C-3.33 34 -3.66 34 -4 34 C-4.20089355 28.55355256 -4.11108473 23.76994885 -2.578125 18.4921875 C-1.17461137 12.44190575 -0.70319211 6.16415211 0 0 Z " fill="#2562FD" transform="translate(889,744)"/>
<path d="M0 0 C4.50836793 2.37080041 8.8374336 5.06606207 13 8 C13 8.33 13 8.66 13 9 C6.52721816 8.47160965 1.72090235 6.72090235 -3 2 C-5.57061311 1.35232207 -5.57061311 1.35232207 -8 1 C-8 0.34 -8 -0.32 -8 -1 C-9.98 -1 -11.96 -1 -14 -1 C-14.33 -1.66 -14.66 -2.32 -15 -3 C-9.75011458 -4.74996181 -4.93053423 -2.08901906 0 0 Z " fill="#389AFE" transform="translate(448,709)"/>
<path d="M0 0 C20.49368207 9.8997084 20.49368207 9.8997084 27 15 C27 15.66 27 16.32 27 17 C23.2222299 15.60386757 19.9352413 13.84511969 16.5 11.75 C10.18993328 8.00634101 3.71266202 4.95573666 -3 2 C-2.01 1.34 -1.02 0.68 0 0 Z " fill="#388EFD" transform="translate(721,428)"/>
<path d="M0 0 C3.83014854 3.19179045 7.46342956 6.42273935 10.9375 10 C14.19059752 13.32298829 17.59706652 16.05553075 21.43359375 18.67578125 C23 20 23 20 24 23 C19.39860359 21.51131293 16.49772906 19.25370145 13 16 C13 15.34 13 14.68 13 14 C12.443125 13.773125 11.88625 13.54625 11.3125 13.3125 C6.20793006 10.41531166 2.65853436 5.49477079 -1 1 C-0.67 0.67 -0.34 0.34 0 0 Z " fill="#2E88FE" transform="translate(419,866)"/>
<path d="M0 0 C0.99 0 1.98 0 3 0 C3.49628906 0.89460937 3.99257813 1.78921875 4.50390625 2.7109375 C5.18876629 3.93304237 5.87506695 5.15434059 6.5625 6.375 C6.91948975 7.00897705 7.27647949 7.6429541 7.64428711 8.29614258 C10.40109561 13.11888353 13.46107527 17.60249406 16.84765625 22.01171875 C17.22792969 22.66785156 17.60820312 23.32398438 18 24 C17.67 24.99 17.34 25.98 17 27 C13.1439517 23.5376086 10.62942017 19.5583389 7.9375 15.1875 C7.50373047 14.50107422 7.06996094 13.81464844 6.62304688 13.10742188 C3.9824649 8.85917965 1.85262823 4.64675604 0 0 Z " fill="#3498FE" transform="translate(380,539)"/>
<path d="M0 0 C-6.97245965 4.64830643 -14.85148711 4.53437069 -23 5 C-23 5.66 -23 6.32 -23 7 C-23.99 6.67 -24.98 6.34 -26 6 C-26 5.34 -26 4.68 -26 4 C-23.43786446 3.35269196 -20.87531515 2.70710712 -18.3125 2.0625 C-17.59126953 1.88009766 -16.87003906 1.69769531 -16.12695312 1.50976562 C-4.99795463 -1.28518833 -4.99795463 -1.28518833 0 0 Z " fill="#195EF2" transform="translate(558,257)"/>
<path d="M0 0 C0.56170898 0.36657715 1.12341797 0.7331543 1.70214844 1.11083984 C-1.53606427 2.67820616 -4.78986313 4.21006014 -8.04785156 5.73583984 C-9.4284375 6.40486328 -9.4284375 6.40486328 -10.83691406 7.08740234 C-12.17109375 7.70615234 -12.17109375 7.70615234 -13.53222656 8.33740234 C-14.34916992 8.72492676 -15.16611328 9.11245117 -16.0078125 9.51171875 C-18.29785156 10.11083984 -18.29785156 10.11083984 -20.59570312 9.22167969 C-21.15741211 8.85510254 -21.71912109 8.48852539 -22.29785156 8.11083984 C-19.05963885 6.54347353 -15.80583999 5.01161955 -12.54785156 3.48583984 C-11.62746094 3.03982422 -10.70707031 2.59380859 -9.75878906 2.13427734 C-8.86933594 1.72177734 -7.97988281 1.30927734 -7.06347656 0.88427734 C-6.2465332 0.49675293 -5.42958984 0.10922852 -4.58789062 -0.29003906 C-2.29785156 -0.88916016 -2.29785156 -0.88916016 0 0 Z " fill="#0E4CDF" transform="translate(560.2978515625,418.88916015625)"/>
<path d="M0 0 C5.57011341 0.34102735 10.63690113 1.66847493 15.9375 3.375 C16.61240479 3.58406982 17.28730957 3.79313965 17.98266602 4.00854492 C19.90234375 4.6484375 19.90234375 4.6484375 23 6 C23.33 6.99 23.66 7.98 24 9 C18.79138983 8.32711735 14.10919185 6.81215516 9.1875 5.0625 C8.41212891 4.79759766 7.63675781 4.53269531 6.83789062 4.25976562 C1.12227413 2.24454826 1.12227413 2.24454826 0 0 Z " fill="#368CFD" transform="translate(632,502)"/>
<path d="M0 0 C3.90216231 -0.24143309 6.22294363 0.3254115 9.64453125 2.1875 C10.90620117 2.86425781 10.90620117 2.86425781 12.19335938 3.5546875 C13.05767578 4.03164063 13.92199219 4.50859375 14.8125 5 C15.69615234 5.47695313 16.57980469 5.95390625 17.49023438 6.4453125 C19.66535014 7.62105075 21.83480908 8.80611264 24 10 C23.34 10.66 22.68 11.32 22 12 C14.39196081 8.83489842 7.21144762 4.96796809 0 1 C0 0.67 0 0.34 0 0 Z " fill="#248AFE" transform="translate(508,754)"/>
<path d="M0 0 C4.66181674 1.55984743 8.21253423 4.11713049 12.125 7 C13.35654936 7.89613779 14.58831256 8.79198177 15.8203125 9.6875 C17.39425781 10.8321875 17.39425781 10.8321875 19 12 C19.99 12.66 20.98 13.32 22 14 C12.6322039 14 5.93385053 6.56960918 -1 1 C-0.67 0.67 -0.34 0.34 0 0 Z " fill="#3A92FD" transform="translate(750,445)"/>
<path d="M0 0 C3.18898235 2.74773951 5.07466368 6.26250268 7.125 9.875 C7.48464844 10.48730469 7.84429688 11.09960938 8.21484375 11.73046875 C10.15750713 15.12831069 11.51102037 18.1029805 12 22 C11.01 22 10.02 22 9 22 C7.677356 19.46317484 6.36682639 16.92122349 5.0625 14.375 C4.68931641 13.66214844 4.31613281 12.94929687 3.93164062 12.21484375 C1.85216012 8.13081898 0.46005679 4.6297779 0 0 Z " fill="#2C7DFE" transform="translate(864,638)"/>
<path d="M0 0 C0.66 0.66 1.32 1.32 2 2 C-15.94019934 5.34883721 -15.94019934 5.34883721 -22 2 C-6.23616236 -0.4797048 -6.23616236 -0.4797048 0 0 Z " fill="#1761F4" transform="translate(666,783)"/>
<path d="M0 0 C4.95725232 0.52131717 8.28207993 2.85203212 12.3125 5.5625 C13.28026367 6.19961914 13.28026367 6.19961914 14.26757812 6.84960938 C15.84973954 7.89266393 17.42552501 8.94537872 19 10 C18.01 10.495 18.01 10.495 17 11 C10.62629738 8.87543246 5.26351583 5.1303243 0 1 C0 0.67 0 0.34 0 0 Z " fill="#228CFD" transform="translate(786,567)"/>
<path d="M0 0 C-2.84180622 1.89453748 -5.31564815 3.00192814 -8.5 4.1875 C-9.4590625 4.55230469 -10.418125 4.91710937 -11.40625 5.29296875 C-14 6 -14 6 -17 5 C-17 4.34 -17 3.68 -17 3 C-5.47835991 -1.77676538 -5.47835991 -1.77676538 0 0 Z " fill="#0F56E8" transform="translate(521,267)"/>
<path d="M0 0 C0.33 0 0.66 0 1 0 C1.70132913 6.70019789 2.11044961 13.26257354 2 20 C1.01 20.33 0.02 20.66 -1 21 C-1.02719556 18.62492145 -1.04693247 16.25016036 -1.0625 13.875 C-1.07087891 13.20984375 -1.07925781 12.5446875 -1.08789062 11.859375 C-1.10782292 7.79318646 -0.78890161 3.9879908 0 0 Z " fill="#0453E7" transform="translate(692,234)"/>
<path d="M0 0 C-3.75 3 -3.75 3 -6 3 C-6.268125 3.598125 -6.53625 4.19625 -6.8125 4.8125 C-7.99917406 6.99847854 -9.09599113 8.41332594 -11 10 C-11.66 10 -12.32 10 -13 10 C-13.33 10.99 -13.66 11.98 -14 13 C-14.66 12.01 -15.32 11.02 -16 10 C-5.77702703 -0.48141892 -5.77702703 -0.48141892 0 0 Z " fill="#3C94FE" transform="translate(581,166)"/>
<path d="M0 0 C3.10504071 0.29604601 3.92635957 0.91107293 5.95703125 3.36328125 C6.87548828 4.82314453 6.87548828 4.82314453 7.8125 6.3125 C8.43769531 7.27800781 9.06289063 8.24351562 9.70703125 9.23828125 C11.14326493 12.30600696 10.97576789 12.92996106 10 16 C8.3305554 13.52266346 6.66433808 11.04326339 5 8.5625 C4.28457031 7.50192383 4.28457031 7.50192383 3.5546875 6.41992188 C3.10351562 5.74638672 2.65234375 5.07285156 2.1875 4.37890625 C1.76855469 3.7557251 1.34960938 3.13254395 0.91796875 2.49047852 C0 1 0 1 0 0 Z " fill="#4594FE" transform="translate(399,842)"/>
<path d="M0 0 C0.66 0.33 1.32 0.66 2 1 C1.34 3.31 0.68 5.62 0 8 C-0.66 8 -1.32 8 -2 8 C-1.79375 8.5775 -1.5875 9.155 -1.375 9.75 C-0.91338739 12.51967567 -1.57055055 13.64561267 -3 16 C-3.66 16 -4.32 16 -5 16 C-5 16.99 -5 17.98 -5 19 C-5.66 18.67 -6.32 18.34 -7 18 C-4.83353577 11.91850397 -2.62252548 5.90068233 0 0 Z " fill="#44A1FE" transform="translate(375,386)"/>
<path d="M0 0 C5.85659906 1.66153012 11.4590134 3.47041916 17 6 C17 6.66 17 7.32 17 8 C11.34351 6.90974682 6.13097344 5.672382 1 3 C0.67 2.01 0.34 1.02 0 0 Z " fill="#2F78FC" transform="translate(560,670)"/>
<path d="M0 0 C0.66 1.32 1.32 2.64 2 4 C0.37660195 5.70884005 -1.29319053 7.37446717 -3 9 C-3.66 9 -4.32 9 -5 9 C-5.66 10.32 -6.32 11.64 -7 13 C-7.74609375 11.296875 -7.74609375 11.296875 -8 9 C-6.34765625 6.640625 -6.34765625 6.640625 -4.0625 4.25 C-3.31097656 3.45078125 -2.55945313 2.6515625 -1.78515625 1.828125 C-1.19605469 1.22484375 -0.60695313 0.6215625 0 0 Z " fill="#4CA1FD" transform="translate(408,334)"/>
<path d="M0 0 C5.26577087 3.30641427 9.50265396 6.75398094 13 12 C8.54326841 11.50128936 6.42312822 9.97995638 3.1875 6.9375 C2.39730469 6.20402344 1.60710938 5.47054688 0.79296875 4.71484375 C0.20128906 4.14894531 -0.39039063 3.58304687 -1 3 C-0.67 2.01 -0.34 1.02 0 0 Z " fill="#38A7FD" transform="translate(821,312)"/>
<path d="M0 0 C0.33 0 0.66 0 1 0 C1.66 4.95 2.32 9.9 3 15 C2.34 15 1.68 15 1 15 C0.67 15.99 0.34 16.98 0 18 C-0.88809097 14.19389583 -1.1346183 10.65502933 -1.125 6.75 C-1.12757813 5.69296875 -1.13015625 4.6359375 -1.1328125 3.546875 C-1 1 -1 1 0 0 Z " fill="#145BFD" transform="translate(889,704)"/>
<path d="M0 0 C-0.33 0.99 -0.66 1.98 -1 3 C-3.6171875 4.01953125 -3.6171875 4.01953125 -6.875 4.8125 C-8.47988281 5.22435547 -8.47988281 5.22435547 -10.1171875 5.64453125 C-13 6 -13 6 -16 4 C-14.72942818 3.52014033 -13.45853152 3.0411407 -12.1875 2.5625 C-11.47980469 2.29566406 -10.77210938 2.02882813 -10.04296875 1.75390625 C-6.48700101 0.44166577 -3.78403834 -0.10227131 0 0 Z " fill="#0D51F3" transform="translate(734,925)"/>
<path d="M0 0 C1.13732426 3.40401948 0.83989957 5.77456664 0.0625 9.25 C-0.13214844 10.14203125 -0.32679688 11.0340625 -0.52734375 11.953125 C-0.68332031 12.62859375 -0.83929688 13.3040625 -1 14 C-1.33 14 -1.66 14 -2 14 C-2.33 15.65 -2.66 17.3 -3 19 C-4.82733397 16.31196524 -5.01527554 15.12373191 -4.609375 11.8359375 C-4.32578125 10.69382812 -4.0421875 9.55171875 -3.75 8.375 C-3.34007812 6.65410156 -3.34007812 6.65410156 -2.921875 4.8984375 C-2 2 -2 2 0 0 Z " fill="#42A0FE" transform="translate(368,408)"/>
<path d="M0 0 C0.99 0.33 1.98 0.66 3 1 C1 5 -1 9 -3 13 C-4 10 -4 10 -3 7 C-3.99 6.67 -4.98 6.34 -6 6 C-4 4 -2 2 0 0 Z " fill="#0E46D6" transform="translate(424,317)"/>
<path d="M0 0 C1.97625073 2.9643761 3.29886906 5.78787746 4.6875 9.0625 C5.14511719 10.12597656 5.60273438 11.18945312 6.07421875 12.28515625 C6.37972656 13.18105469 6.68523437 14.07695313 7 15 C6.67 15.66 6.34 16.32 6 17 C2.65118953 14.28905819 1.40130709 11.00373453 0 7 C-0.1875 3.0625 -0.1875 3.0625 0 0 Z " fill="#3894FD" transform="translate(371,513)"/>
<path d="M0 0 C0.99 0 1.98 0 3 0 C3 8.91 3 17.82 3 27 C2.67 27 2.34 27 2 27 C1.67 20.07 1.34 13.14 1 6 C0.67 6 0.34 6 0 6 C0 4.02 0 2.04 0 0 Z " fill="#58A7FE" transform="translate(871,413)"/>
<path d="M0 0 C0.66 0.33 1.32 0.66 2 1 C-1.3 3.97 -4.6 6.94 -8 10 C-8.99 9.34 -9.98 8.68 -11 8 C-9.73427767 6.84852339 -8.46222094 5.70400686 -7.1875 4.5625 C-6.47980469 3.92441406 -5.77210938 3.28632813 -5.04296875 2.62890625 C-3 1 -3 1 0 0 Z " fill="#023CC0" transform="translate(436,309)"/>
<path d="M0 0 C4.11196775 6.16795162 4.26793858 13.76565833 4 21 C2.09965347 19.40052324 1.10232963 18.47166391 0.56762695 16.00708008 C0.54144287 15.26868896 0.51525879 14.53029785 0.48828125 13.76953125 C0.45283203 12.96708984 0.41738281 12.16464844 0.38085938 11.33789062 C0.35830078 10.50451172 0.33574219 9.67113281 0.3125 8.8125 C0.27833984 7.96751953 0.24417969 7.12253906 0.20898438 6.25195312 C0.12658529 4.16843351 0.06161355 2.08423784 0 0 Z " fill="#33AFFE" transform="translate(360,463)"/>
<path d="M0 0 C0.99 0.33 1.98 0.66 3 1 C4.16796875 3.50390625 4.16796875 3.50390625 5.1875 6.5625 C5.53167969 7.57441406 5.87585938 8.58632813 6.23046875 9.62890625 C6.48441406 10.41136719 6.73835937 11.19382812 7 12 C6.34 12.66 5.68 13.32 5 14 C4.15973604 12.23244474 3.32801278 10.46082737 2.5 8.6875 C2.0359375 7.70136719 1.571875 6.71523438 1.09375 5.69921875 C0 3 0 3 0 0 Z " fill="#1865FE" transform="translate(874,659)"/>
<path d="M0 0 C0.66 0.33 1.32 0.66 2 1 C-1.3 4.63 -4.6 8.26 -8 12 C-8.33 11.01 -8.66 10.02 -9 9 C-7.63671875 6.9921875 -7.63671875 6.9921875 -5.6875 4.875 C-5.05199219 4.17117188 -4.41648437 3.46734375 -3.76171875 2.7421875 C-2 1 -2 1 0 0 Z " fill="#3289F5" transform="translate(418,324)"/>
<path d="M0 0 C0.33 0 0.66 0 1 0 C2.33257403 11.52164009 2.33257403 11.52164009 1 17 C0.01 16.67 -0.98 16.34 -2 16 C-1.34 10.72 -0.68 5.44 0 0 Z " fill="#125CFD" transform="translate(889,744)"/>
<path d="M0 0 C3 1 3 1 4.203125 2.99609375 C4.54859375 3.80175781 4.8940625 4.60742188 5.25 5.4375 C5.78367187 6.64212891 5.78367187 6.64212891 6.328125 7.87109375 C7 10 7 10 6 12 C3.02404533 9.44918171 1.55997434 6.56565563 0 3 C0 2.01 0 1.02 0 0 Z " fill="#2D94FE" transform="translate(388,819)"/>
<path d="M0 0 C0 0.33 0 0.66 0 1 C-8.91 1.99 -8.91 1.99 -18 3 C-18 2.34 -18 1.68 -18 1 C-11.76647981 -1.3548854 -6.54311329 -0.87557031 0 0 Z " fill="#3196FE" transform="translate(600,162)"/>
<path d="M0 0 C3.39192363 0.59283621 5.2107757 1.76743189 7.75 4.0625 C8.67039062 4.88427734 8.67039062 4.88427734 9.609375 5.72265625 C10.29773438 6.35494141 10.29773438 6.35494141 11 7 C10.01 7.33 9.02 7.66 8 8 C5.95703125 6.6015625 5.95703125 6.6015625 3.8125 4.625 C3.09707031 3.97789062 2.38164063 3.33078125 1.64453125 2.6640625 C0 1 0 1 0 0 Z " fill="#2387FD" transform="translate(827,597)"/>
<path d="M0 0 C4.83628305 0.99043705 9.47618873 1.95698846 14 4 C13.34 4.66 12.68 5.32 12 6 C8.04 4.68 4.08 3.36 0 2 C0 1.34 0 0.68 0 0 Z " fill="#389EFE" transform="translate(585,484)"/>
<path d="M0 0 C0.85851562 0.55300781 0.85851562 0.55300781 1.734375 1.1171875 C0.49553181 1.84485753 -0.75730841 2.54873565 -2.015625 3.2421875 C-3.05976562 3.83386719 -3.05976562 3.83386719 -4.125 4.4375 C-6.265625 5.1171875 -6.265625 5.1171875 -8.53125 4.234375 C-9.10359375 3.86570312 -9.6759375 3.49703125 -10.265625 3.1171875 C-9.02678181 2.38951747 -7.77394159 1.68563935 -6.515625 0.9921875 C-5.81953125 0.59773438 -5.1234375 0.20328125 -4.40625 -0.203125 C-2.265625 -0.8828125 -2.265625 -0.8828125 0 0 Z " fill="#0F54D7" transform="translate(548.265625,423.8828125)"/>
<path d="M0 0 C1.49080078 0.29197266 1.49080078 0.29197266 3.01171875 0.58984375 C4.15060547 0.82380859 4.15060547 0.82380859 5.3125 1.0625 C4.9825 1.7225 4.6525 2.3825 4.3125 3.0625 C2.70754433 2.94807539 1.10351881 2.82055306 -0.5 2.6875 C-1.39332031 2.61789062 -2.28664063 2.54828125 -3.20703125 2.4765625 C-5.6875 2.0625 -5.6875 2.0625 -8.6875 0.0625 C-5.21237282 -1.09587573 -3.55079714 -0.71015943 0 0 Z " fill="#248CFD" transform="translate(708.6875,257.9375)"/>
<path d="M0 0 C1.6498275 0.42218816 3.29483665 0.86324425 4.9375 1.3125 C6.31228516 1.67794922 6.31228516 1.67794922 7.71484375 2.05078125 C8.46894531 2.36402344 9.22304688 2.67726563 10 3 C10.33 3.99 10.66 4.98 11 6 C7.62294375 5.46274105 4.303314 4.88935377 1 4 C0.67 2.68 0.34 1.36 0 0 Z " fill="#2D96FD" transform="translate(645,505)"/>
<path d="M0 0 C4.3177458 0.50797009 8.03302114 1.19682779 12 3 C12 3.66 12 4.32 12 5 C7.43545749 4.45660208 4.0271824 3.20536179 0 1 C0 0.67 0 0.34 0 0 Z " fill="#3E97FE" transform="translate(572,479)"/>
<path d="M0 0 C3.63 0.66 7.26 1.32 11 2 C10.67 2.99 10.34 3.98 10 5 C6.37 4.34 2.74 3.68 -1 3 C-0.67 2.01 -0.34 1.02 0 0 Z " fill="#2363FC" transform="translate(665,410)"/>
<path d="M0 0 C4.95 1.98 4.95 1.98 10 4 C10 4.66 10 5.32 10 6 C5.87248551 5.39301257 2.6678852 3.96189209 -1 2 C-0.67 1.34 -0.34 0.68 0 0 Z " fill="#3D81FD" transform="translate(532,658)"/>
<path d="M0 0 C2.25 0.125 2.25 0.125 5 1 C7.3125 4.0625 7.3125 4.0625 9 7 C6 7 6 7 4.39453125 5.46875 C3.87246094 4.8190625 3.35039063 4.169375 2.8125 3.5 C2.28269531 2.8503125 1.75289062 2.200625 1.20703125 1.53125 C0.80871094 1.0259375 0.41039062 0.520625 0 0 Z " fill="#2F8BFE" transform="translate(678,170)"/>
<path d="M0 0 C1.99825961 2.99738941 2.27550398 3.63347508 2.25 7 C2.25515625 7.680625 2.2603125 8.36125 2.265625 9.0625 C2 11 2 11 0 14 C-1.33257403 4.58997722 -1.33257403 4.58997722 0 0 Z " fill="#3476FD" transform="translate(887,694)"/>
<path d="M0 0 C4.40114397 0.50298788 6.71195019 2.08772731 10 5 C9.67 5.99 9.34 6.98 9 8 C7.49712782 6.85793642 5.99776716 5.71125043 4.5 4.5625 C3.6646875 3.92441406 2.829375 3.28632812 1.96875 2.62890625 C1.3190625 2.09136719 0.669375 1.55382812 0 1 C0 0.67 0 0.34 0 0 Z " fill="#349AFE" transform="translate(434,604)"/>
<path d="M0 0 C4.21878192 -0.19622241 7.17010894 0.19769832 11 2 C11 2.66 11 3.32 11 4 C6.44262737 3.56179109 3.42346555 3.14958831 0 0 Z " fill="#3495FE" transform="translate(610,494)"/>
<path d="M0 0 C0.66 0.66 1.32 1.32 2 2 C1.01 3.32 0.02 4.64 -1 6 C-3.9375 5.625 -3.9375 5.625 -7 5 C-7.33 4.34 -7.66 3.68 -8 3 C-5.525 3.495 -5.525 3.495 -3 4 C-3 3.34 -3 2.68 -3 2 C-2.01 1.34 -1.02 0.68 0 0 Z " fill="#0B4CCD" transform="translate(516,443)"/>
<path d="M0 0 C4.77576339 0.4682121 8.04476345 1.24331998 12 4 C8.35839192 5.21386936 7.66834531 4.6674695 4.3125 3.0625 C3.10013672 2.49208984 3.10013672 2.49208984 1.86328125 1.91015625 C1.24839844 1.60980469 0.63351562 1.30945313 0 1 C0 0.67 0 0.34 0 0 Z " fill="#2A87FE" transform="translate(575,1021)"/>
<path d="M0 0 C2.97 0.99 5.94 1.98 9 3 C7.02 3.99 7.02 3.99 5 5 C1.75 3.625 1.75 3.625 -1 2 C-0.67 1.34 -0.34 0.68 0 0 Z " fill="#2568FC" transform="translate(491,915)"/>
<path d="M0 0 C2 0.25 2 0.25 4 1 C4.33 1.99 4.66 2.98 5 4 C5.99 4.33 6.98 4.66 8 5 C7.67 5.66 7.34 6.32 7 7 C6.38125 6.505 5.7625 6.01 5.125 5.5 C3.16119096 3.80777227 3.16119096 3.80777227 1 4 C1 3.34 1 2.68 1 2 C0.34 1.67 -0.32 1.34 -1 1 C-0.67 0.67 -0.34 0.34 0 0 Z " fill="#2664F1" transform="translate(737,743)"/>
<path d="M0 0 C3.94727588 -0.17942163 6.5980513 -0.09350689 10 2 C10 2.66 10 3.32 10 4 C8.51882199 3.71872579 7.04006751 3.42466268 5.5625 3.125 C4.73878906 2.96257812 3.91507813 2.80015625 3.06640625 2.6328125 C2.38449219 2.42398437 1.70257812 2.21515625 1 2 C0.67 1.34 0.34 0.68 0 0 Z " fill="#3592FD" transform="translate(599,490)"/>
<path d="M0 0 C0.66 0.33 1.32 0.66 2 1 C2 1.66 2 2.32 2 3 C0.02 3.66 -1.96 4.32 -4 5 C-4.66 4.34 -5.32 3.68 -6 3 C-4.03533587 1.93224776 -2.03144641 0.93446535 0 0 Z " fill="#0745E2" transform="translate(775,907)"/>
<path d="M0 0 C2.31 0.66 4.62 1.32 7 2 C7 2.66 7 3.32 7 4 C7.66 4 8.32 4 9 4 C8.67 4.66 8.34 5.32 8 6 C4.5625 4.6875 4.5625 4.6875 1 3 C0.67 2.01 0.34 1.02 0 0 Z " fill="#2590FD" transform="translate(560,670)"/>
<path d="M0 0 C0.99 0.66 1.98 1.32 3 2 C0.69 3.32 -1.62 4.64 -4 6 C-4.33 5.01 -4.66 4.02 -5 3 C-3.35 2.01 -1.7 1.02 0 0 Z " fill="#0855DF" transform="translate(796,895)"/>
<path d="M0 0 C0.66 0 1.32 0 2 0 C5.11450382 4.15267176 5.11450382 4.15267176 4.6875 7.3125 C4.460625 7.869375 4.23375 8.42625 4 9 C0 3.375 0 3.375 0 0 Z " fill="#348CFD" transform="translate(405,849)"/>
<path d="M0 0 C2.31 0.66 4.62 1.32 7 2 C7 2.66 7 3.32 7 4 C7.66 4.33 8.32 4.66 9 5 C4.545 4.01 4.545 4.01 0 3 C0 2.01 0 1.02 0 0 Z " fill="#3392FD" transform="translate(622,497)"/>
<path d="M0 0 C0.33 0.66 0.66 1.32 1 2 C0.06553465 4.03144641 -0.93224776 6.03533587 -2 8 C-2.66 8 -3.32 8 -4 8 C-3.50168276 4.31245243 -2.89932357 2.39509338 0 0 Z " fill="#3FA2FE" transform="translate(383,372)"/>
<path d="M0 0 C-3.6441774 2.4294516 -5.71241272 2.16179575 -10 2 C-10 1.34 -10 0.68 -10 0 C-6.30458414 -0.95024979 -3.69541586 -0.95024979 0 0 Z " fill="#0C57F5" transform="translate(558,257)"/>
<path d="M0 0 C1.88391785 3.26545761 2.49287967 6.28111761 3 10 C2.01 9.67 1.02 9.34 0 9 C-1.37001429 5.8033 -0.8252404 3.30096158 0 0 Z " fill="#1C67FD" transform="translate(561,996)"/>
<path d="M0 0 C0 0.66 0 1.32 0 2 C-1.98 2.66 -3.96 3.32 -6 4 C-6.33 3.01 -6.66 2.02 -7 1 C-3.375 -1.125 -3.375 -1.125 0 0 Z " fill="#0C45E7" transform="translate(702,772)"/>
<path d="M0 0 C1.46726798 3.81489674 0.43336419 6.29011622 -1 10 C-1.33 10 -1.66 10 -2 10 C-2 7.03 -2 4.06 -2 1 C-1.34 0.67 -0.68 0.34 0 0 Z " fill="#2E90FC" transform="translate(383,736)"/>
<path d="M0 0 C0.66 0 1.32 0 2 0 C3.10844919 3.32534757 2.84454356 5.62182575 2 9 C0 7 0 7 -0.125 3.375 C-0.08375 2.26125 -0.0425 1.1475 0 0 Z " fill="#1D61FD" transform="translate(885,690)"/>
<path d="M0 0 C2.64 0.33 5.28 0.66 8 1 C8.33 1.99 8.66 2.98 9 4 C5.17902761 3.46930939 2.93828597 2.50298434 0 0 Z " fill="#237DFC" transform="translate(724,537)"/>
<path d="M0 0 C2.64 0.99 5.28 1.98 8 3 C7.34 3.66 6.68 4.32 6 5 C3.69 4.01 1.38 3.02 -1 2 C-0.67 1.34 -0.34 0.68 0 0 Z " fill="#2894FD" transform="translate(769,279)"/>
<path d="M0 0 C4.455 1.98 4.455 1.98 9 4 C8.01 4.66 7.02 5.32 6 6 C3.96166576 4.7260411 1.96147874 3.38938077 0 2 C0 1.34 0 0.68 0 0 Z " fill="#2EA2FE" transform="translate(669,163)"/>
<path d="M0 0 C0.66 0 1.32 0 2 0 C1.3125 1.9375 1.3125 1.9375 0 4 C-2.625 4.75 -2.625 4.75 -5 5 C-4.67 4.01 -4.34 3.02 -4 2 C-3.34 2 -2.68 2 -2 2 C-1.34 1.34 -0.68 0.68 0 0 Z " fill="#1D64EC" transform="translate(836,863)"/>
<path d="M0 0 C0 0.66 0 1.32 0 2 C-1.98 2.33 -3.96 2.66 -6 3 C-6 2.01 -6 1.02 -6 0 C-3.50907189 -1.24546405 -2.58919267 -0.7767578 0 0 Z " fill="#105AE5" transform="translate(696,775)"/>
<path d="M0 0 C0.66 0.33 1.32 0.66 2 1 C2.40729228 3.32156597 2.74438677 5.6568787 3 8 C2.34 8 1.68 8 1 8 C0.34 5.69 -0.32 3.38 -1 1 C-0.67 0.67 -0.34 0.34 0 0 Z " fill="#3297FD" transform="translate(367,502)"/>
<path d="M0 0 C0 0.99 0 1.98 0 3 C-2.64 3 -5.28 3 -8 3 C-5.53387212 -0.1151089 -3.89156016 -0.31553191 0 0 Z " fill="#4F9CFC" transform="translate(831,487)"/>
<path d="M0 0 C2 3 2 3 1.625 5.1875 C1.41875 5.785625 1.2125 6.38375 1 7 C0.01 7 -0.98 7 -2 7 C-1.34 4.69 -0.68 2.38 0 0 Z " fill="#37A4FD" transform="translate(868,456)"/>
<path d="M0 0 C0.99 0 1.98 0 3 0 C2.67 1.65 2.34 3.3 2 5 C1.34 5 0.68 5 0 5 C0 5.99 0 6.98 0 8 C-0.66 7.67 -1.32 7.34 -2 7 C-1.34 4.69 -0.68 2.38 0 0 Z " fill="#36ADFE" transform="translate(370,397)"/>
<path d="M0 0 C0.94875 0.350625 1.8975 0.70125 2.875 1.0625 C2.875 1.7225 2.875 2.3825 2.875 3.0625 C0.5318787 2.80688677 -1.80343403 2.46979228 -4.125 2.0625 C-4.455 1.4025 -4.785 0.7425 -5.125 0.0625 C-3.125 -0.9375 -3.125 -0.9375 0 0 Z " fill="#2983F6" transform="translate(696.125,254.9375)"/>
<path d="" fill="#00FFFF" transform="translate(0,0)"/>
<path d="" fill="#00FFFF" transform="translate(0,0)"/>
<path d="" fill="#00FFFF" transform="translate(0,0)"/>
</svg>
