<svg width="25" height="25" viewBox="0 0 25 25" fill="none" xmlns="http://www.w3.org/2000/svg">
<path fill-rule="evenodd" clip-rule="evenodd" d="M8.125 16.25H13.125C13.2908 16.25 13.4497 16.1842 13.5669 16.0669C13.6842 15.9497 13.75 15.7908 13.75 15.625V9.375C13.75 9.20924 13.6842 9.05027 13.5669 8.93306C13.4497 8.81585 13.2908 8.75 13.125 8.75H5C4.83424 8.75 4.67527 8.81585 4.55806 8.93306C4.44085 9.05027 4.375 9.20924 4.375 9.375V15.625C4.375 15.7908 4.44085 15.9497 4.55806 16.0669C4.67527 16.1842 4.83424 16.25 5 16.25H8.125Z" fill="#56CCF2"/>
<path d="M12.5 6.78876V18.1013C12.5 19.2431 13.8803 19.8147 14.6875 19.0075L20.09 13.6053C20.2424 13.453 20.3632 13.2721 20.4457 13.073C20.5281 12.874 20.5706 12.6606 20.5706 12.4452C20.5706 12.2297 20.5281 12.0163 20.4457 11.8173C20.3632 11.6182 20.2424 11.4374 20.09 11.285L14.6875 5.88251C13.8803 5.07532 12.5 5.6472 12.5 6.78876Z" fill="#2F80ED"/>
</svg>
