<svg width="25" height="25" viewBox="0 0 25 25" fill="none" xmlns="http://www.w3.org/2000/svg">
<path d="M15.625 17.7084H9.375V18.75C9.375 20.4759 10.7741 21.875 12.5 21.875C14.2259 21.875 15.625 20.4759 15.625 18.75V17.7084Z" fill="white" stroke="#414141" stroke-width="2" stroke-linecap="round" stroke-linejoin="round"/>
<path d="M5.20817 17.7084H19.7915C20.3668 17.7084 20.8332 17.242 20.8332 16.6667V16.0565C20.8332 15.7802 20.7234 15.5153 20.5281 15.3199L19.996 14.7878C19.865 14.6569 19.7915 14.4793 19.7915 14.2942V10.4167C19.7915 6.38958 16.5269 3.12499 12.4998 3.125C8.47275 3.12501 5.20817 6.3896 5.20817 10.4167V14.2942C5.20817 14.4793 5.13462 14.6569 5.00371 14.7878L4.4716 15.3199C4.27625 15.5153 4.1665 15.7802 4.1665 16.0565V16.6667C4.1665 17.242 4.63287 17.7084 5.20817 17.7084Z" fill="white" stroke="#414141" stroke-width="2" stroke-linecap="round" stroke-linejoin="round"/>
</svg>
