<svg width="25" height="25" viewBox="0 0 25 25" fill="none" xmlns="http://www.w3.org/2000/svg">
<path d="M15.625 17.7084H9.375V18.75C9.375 20.4759 10.7741 21.875 12.5 21.875C14.2259 21.875 15.625 20.4759 15.625 18.75V17.7084Z" fill="white" stroke="#414141" stroke-width="2" stroke-linecap="round" stroke-linejoin="round"/>
<path d="M5.20829 17.7084H19.7916C20.3669 17.7084 20.8333 17.242 20.8333 16.6667V16.0565C20.8333 15.7802 20.7236 15.5153 20.5282 15.3199L19.9961 14.7878C19.8652 14.6569 19.7916 14.4793 19.7916 14.2942V10.4167C19.7916 6.38958 16.527 3.12499 12.4999 3.125C8.47287 3.12501 5.20829 6.3896 5.20829 10.4167V14.2942C5.20829 14.4793 5.13475 14.6569 5.00383 14.7878L4.47172 15.3199C4.27637 15.5153 4.16663 15.7802 4.16663 16.0565V16.6667C4.16663 17.242 4.633 17.7084 5.20829 17.7084Z" fill="white" stroke="#414141" stroke-width="2" stroke-linecap="round" stroke-linejoin="round"/>
<mask id="path-3-inside-1_241_503" fill="white">
<path d="M15.3002 4.93137C15.3002 3.03628 16.8364 1.5 18.7315 1.5V1.5C20.6266 1.5 22.1629 3.03628 22.1629 4.93137V4.93137C22.1629 6.82647 20.6266 8.36275 18.7315 8.36275V8.36275C16.8364 8.36275 15.3002 6.82647 15.3002 4.93137V4.93137Z"/>
</mask>
<path d="M15.3002 4.93137C15.3002 3.03628 16.8364 1.5 18.7315 1.5V1.5C20.6266 1.5 22.1629 3.03628 22.1629 4.93137V4.93137C22.1629 6.82647 20.6266 8.36275 18.7315 8.36275V8.36275C16.8364 8.36275 15.3002 6.82647 15.3002 4.93137V4.93137Z" fill="#DC2626"/>
<path d="M15.3002 4.93137M22.1629 4.93137M22.1629 4.93137M15.3002 4.93137M18.7315 1.5M22.1629 4.93137M18.7315 8.36275M15.3002 4.93137M18.7315 8.36275V7.36275C17.3887 7.36275 16.3002 6.27418 16.3002 4.93137H15.3002H14.3002C14.3002 7.37875 16.2842 9.36275 18.7315 9.36275V8.36275ZM22.1629 4.93137H21.1629C21.1629 6.27418 20.0744 7.36275 18.7315 7.36275V8.36275V9.36275C21.1789 9.36275 23.1629 7.37875 23.1629 4.93137H22.1629ZM18.7315 1.5V2.5C20.0744 2.5 21.1629 3.58856 21.1629 4.93137H22.1629H23.1629C23.1629 2.48399 21.1789 0.5 18.7315 0.5V1.5ZM18.7315 1.5V0.5C16.2842 0.5 14.3002 2.48399 14.3002 4.93137H15.3002H16.3002C16.3002 3.58856 17.3887 2.5 18.7315 2.5V1.5Z" fill="white" mask="url(#path-3-inside-1_241_503)"/>
</svg>
