<svg width="40" height="40" viewBox="0 0 40 40" fill="none" xmlns="http://www.w3.org/2000/svg">
<rect width="40" height="40" rx="20" fill="#EAF2FF"/>
<path d="M15 20H13C12.4477 20 12 20.4477 12 21V27C12 27.5523 12.4477 28 13 28H15C15.5523 28 16 27.5523 16 27V21C16 20.4477 15.5523 20 15 20Z" fill="#3B82F6"/>
<path d="M21 16H19C18.4477 16 18 16.4477 18 17V27C18 27.5523 18.4477 28 19 28H21C21.5523 28 22 27.5523 22 27V17C22 16.4477 21.5523 16 21 16Z" fill="#3B82F6"/>
<path d="M27 12H25C24.4477 12 24 12.4477 24 13V27C24 27.5523 24.4477 28 25 28H27C27.5523 28 28 27.5523 28 27V13C28 12.4477 27.5523 12 27 12Z" fill="#3B82F6"/>
</svg>
