<svg width="84" height="54" viewBox="0 0 84 54" fill="none" xmlns="http://www.w3.org/2000/svg">
<g clip-path="url(#clip0_241_530)">
<path fill-rule="evenodd" clip-rule="evenodd" d="M51 14.8328V23.5C51 24.3284 50.3284 25 49.5 25H45.75C44.9216 25 44.25 24.3284 44.25 23.5V19.75C44.25 19.3358 43.9142 19 43.5 19H40.5C40.0858 19 39.75 19.3358 39.75 19.75V23.5C39.75 24.3284 39.0784 25 38.25 25H34.5C33.6716 25 33 24.3284 33 23.5V14.8328C32.9999 14.4131 33.1757 14.0125 33.4847 13.7284L40.9847 6.65219L40.995 6.64188C41.5672 6.1215 42.4412 6.1215 43.0134 6.64188C43.0166 6.64554 43.0201 6.64899 43.0238 6.65219L50.5238 13.7284C50.8296 14.014 51.0022 14.4144 51 14.8328Z" fill="white" stroke="#333950" stroke-width="2"/>
</g>
<path d="M37.74 44.696H45.264V47.852H37.74V44.696ZM44.028 45.632H38.964V46.916H44.028V45.632ZM37.044 37.868H45.912V38.828H37.044V37.868ZM41.508 39.188C42.66 39.188 43.544 39.32 44.16 39.584C44.784 39.848 45.096 40.236 45.096 40.748C45.096 41.26 44.784 41.648 44.16 41.912C43.544 42.176 42.66 42.308 41.508 42.308C40.356 42.308 39.468 42.176 38.844 41.912C38.22 41.648 37.908 41.26 37.908 40.748C37.908 40.236 38.22 39.848 38.844 39.584C39.468 39.32 40.356 39.188 41.508 39.188ZM41.508 40.052C40.764 40.052 40.2 40.112 39.816 40.232C39.44 40.344 39.252 40.516 39.252 40.748C39.252 40.98 39.44 41.156 39.816 41.276C40.2 41.388 40.764 41.444 41.508 41.444C42.252 41.444 42.812 41.388 43.188 41.276C43.572 41.156 43.764 40.98 43.764 40.748C43.764 40.516 43.572 40.344 43.188 40.232C42.812 40.112 42.252 40.052 41.508 40.052ZM40.884 36.896H42.132V38.528H40.884V36.896ZM36.552 43.004H46.464V43.976H36.552V43.004ZM40.884 42.008H42.132V43.532H40.884V42.008Z" fill="#333950"/>
<defs>
<clipPath id="clip0_241_530">
<rect width="24" height="24" fill="white" transform="translate(30 4)"/>
</clipPath>
</defs>
</svg>
