<svg width="84" height="54" viewBox="0 0 84 54" fill="none" xmlns="http://www.w3.org/2000/svg">
<path d="M48.4167 8.66666H35.5833C34.5708 8.66666 33.75 9.48747 33.75 10.5V23.3333C33.75 24.3458 34.5708 25.1667 35.5833 25.1667H48.4167C49.4292 25.1667 50.25 24.3458 50.25 23.3333V10.5C50.25 9.48747 49.4292 8.66666 48.4167 8.66666Z" stroke="#333950" stroke-width="1.83333" stroke-linecap="round" stroke-linejoin="round"/>
<path d="M45.6667 6.83334V10.5" stroke="#333950" stroke-width="1.83333" stroke-linecap="round" stroke-linejoin="round"/>
<path d="M38.3333 6.83334V10.5" stroke="#333950" stroke-width="1.83333" stroke-linecap="round" stroke-linejoin="round"/>
<path d="M33.75 14.1667H50.25" stroke="#333950" stroke-width="1.83333" stroke-linecap="round" stroke-linejoin="round"/>
<path d="M33.164 47V38.156H34.556V47H33.164ZM36.8671 47V38.156H39.5431C40.2071 38.156 40.7911 38.244 41.2951 38.42C41.7991 38.588 42.1951 38.868 42.4831 39.26C42.7791 39.644 42.9271 40.172 42.9271 40.844C42.9271 41.484 42.7831 42.012 42.4951 42.428C42.2071 42.836 41.8111 43.144 41.3071 43.352C40.8111 43.552 40.2391 43.652 39.5911 43.652H38.2591V47H36.8671ZM38.2591 42.524H39.4711C40.1671 42.524 40.6871 42.388 41.0311 42.116C41.3751 41.844 41.5471 41.42 41.5471 40.844C41.5471 40.252 41.3671 39.844 41.0071 39.62C40.6471 39.396 40.1151 39.284 39.4111 39.284H38.2591V42.524ZM48.0084 47.168C47.2564 47.168 46.5884 46.98 46.0044 46.604C45.4284 46.228 44.9764 45.696 44.6484 45.008C44.3204 44.312 44.1564 43.492 44.1564 42.548C44.1564 41.596 44.3204 40.784 44.6484 40.112C44.9764 39.432 45.4284 38.912 46.0044 38.552C46.5884 38.184 47.2564 38 48.0084 38C48.7684 38 49.4364 38.184 50.0124 38.552C50.5884 38.912 51.0404 39.432 51.3684 40.112C51.6964 40.784 51.8604 41.596 51.8604 42.548C51.8604 43.492 51.6964 44.312 51.3684 45.008C51.0404 45.696 50.5884 46.228 50.0124 46.604C49.4364 46.98 48.7684 47.168 48.0084 47.168ZM48.0084 45.944C48.4964 45.944 48.9204 45.804 49.2804 45.524C49.6484 45.244 49.9324 44.852 50.1324 44.348C50.3324 43.836 50.4324 43.236 50.4324 42.548C50.4324 41.86 50.3324 41.268 50.1324 40.772C49.9324 40.268 49.6484 39.884 49.2804 39.62C48.9204 39.348 48.4964 39.212 48.0084 39.212C47.5204 39.212 47.0924 39.348 46.7244 39.62C46.3644 39.884 46.0844 40.268 45.8844 40.772C45.6924 41.268 45.5964 41.86 45.5964 42.548C45.5964 43.236 45.6924 43.836 45.8844 44.348C46.0844 44.852 46.3644 45.244 46.7244 45.524C47.0924 45.804 47.5204 45.944 48.0084 45.944Z" fill="#333950"/>
</svg>
