<svg width="50" height="17" viewBox="0 0 50 17" fill="none" xmlns="http://www.w3.org/2000/svg">
<rect x="0.5" y="0.5" width="49" height="16" rx="6.5" fill="white"/>
<rect x="0.5" y="0.5" width="49" height="16" rx="6.5" stroke="#16A34A"/>
<path d="M7.76 4.53H8.75V6.68H10.33V4.53H11.3V10.59H7.76V4.53ZM8.75 7.51V9.75H10.33V7.51H8.75ZM14.26 3.68H15.26V12.82H14.26V3.68ZM12.95 7.25H14.6V8.09H12.95V7.25ZM12.25 3.86H13.23V12.39H12.25V3.86ZM21.5692 5.98H23.4892V6.84H21.5692V5.98ZM23.1792 3.69H24.2292V9.13H23.1792V3.69ZM21.1892 9.37C21.8292 9.37 22.3759 9.44 22.8292 9.58C23.2892 9.71333 23.6426 9.91 23.8892 10.17C24.1426 10.4233 24.2692 10.7333 24.2692 11.1C24.2692 11.6467 23.9926 12.07 23.4392 12.37C22.8926 12.67 22.1426 12.82 21.1892 12.82C20.2359 12.82 19.4826 12.67 18.9292 12.37C18.3759 12.07 18.0992 11.6467 18.0992 11.1C18.0992 10.7333 18.2226 10.4233 18.4692 10.17C18.7226 9.91 19.0792 9.71333 19.5392 9.58C20.0059 9.44 20.5559 9.37 21.1892 9.37ZM21.1892 10.17C20.7559 10.17 20.3859 10.2067 20.0792 10.28C19.7792 10.3533 19.5492 10.4567 19.3892 10.59C19.2292 10.7233 19.1492 10.8933 19.1492 11.1C19.1492 11.2933 19.2292 11.46 19.3892 11.6C19.5492 11.74 19.7792 11.8467 20.0792 11.92C20.3859 11.9867 20.7559 12.02 21.1892 12.02C21.6226 12.02 21.9892 11.9867 22.2892 11.92C22.5892 11.8467 22.8192 11.74 22.9792 11.6C23.1459 11.46 23.2292 11.2933 23.2292 11.1C23.2292 10.8933 23.1459 10.7233 22.9792 10.59C22.8192 10.4567 22.5892 10.3533 22.2892 10.28C21.9892 10.2067 21.6226 10.17 21.1892 10.17ZM18.8892 4.61H19.7492V5.27C19.7492 5.84333 19.6459 6.38333 19.4392 6.89C19.2392 7.39 18.9492 7.83333 18.5692 8.22C18.1892 8.6 17.7292 8.88667 17.1892 9.08L16.6592 8.25C17.0126 8.12333 17.3259 7.95667 17.5992 7.75C17.8792 7.54333 18.1159 7.30667 18.3092 7.04C18.5026 6.77333 18.6459 6.49 18.7392 6.19C18.8392 5.89 18.8892 5.58333 18.8892 5.27V4.61ZM19.0992 4.61H19.9492V5.27C19.9492 5.64333 20.0326 6.01 20.1992 6.37C20.3659 6.73 20.6092 7.05333 20.9292 7.34C21.2492 7.62 21.6392 7.84333 22.0992 8.01L21.5792 8.83C21.0526 8.64333 20.6026 8.37333 20.2292 8.02C19.8626 7.66 19.5826 7.24333 19.3892 6.77C19.1959 6.29 19.0992 5.79 19.0992 5.27V4.61ZM16.9592 4.3H21.8492V5.15H16.9592V4.3ZM28.0984 7.44H29.1384V8.82H28.0984V7.44ZM28.5984 4.08C29.0384 4.08 29.4284 4.15667 29.7684 4.31C30.1151 4.46333 30.3851 4.68 30.5784 4.96C30.7718 5.23333 30.8684 5.55 30.8684 5.91C30.8684 6.27 30.7718 6.59 30.5784 6.87C30.3851 7.14333 30.1151 7.35667 29.7684 7.51C29.4284 7.66333 29.0384 7.74 28.5984 7.74C28.1584 7.74 27.7684 7.66333 27.4284 7.51C27.0884 7.35667 26.8218 7.14333 26.6284 6.87C26.4351 6.59 26.3384 6.27 26.3384 5.91C26.3384 5.55 26.4351 5.23333 26.6284 4.96C26.8218 4.68 27.0884 4.46333 27.4284 4.31C27.7684 4.15667 28.1584 4.08 28.5984 4.08ZM28.5984 4.88C28.3518 4.88 28.1284 4.92333 27.9284 5.01C27.7351 5.09 27.5851 5.21 27.4784 5.37C27.3718 5.52333 27.3184 5.70333 27.3184 5.91C27.3184 6.11667 27.3718 6.3 27.4784 6.46C27.5851 6.61333 27.7351 6.73333 27.9284 6.82C28.1284 6.9 28.3518 6.94 28.5984 6.94C28.8518 6.94 29.0751 6.9 29.2684 6.82C29.4618 6.73333 29.6118 6.61333 29.7184 6.46C29.8318 6.3 29.8884 6.11667 29.8884 5.91C29.8884 5.70333 29.8318 5.52333 29.7184 5.37C29.6118 5.21 29.4618 5.09 29.2684 5.01C29.0751 4.92333 28.8518 4.88 28.5984 4.88ZM31.9684 3.69H33.0084V10.67H31.9684V3.69ZM32.6084 6.68H34.2684V7.55H32.6084V6.68ZM27.0984 11.79H33.3284V12.64H27.0984V11.79ZM27.0984 10.08H28.1484V12.16H27.0984V10.08ZM25.9584 9.39L25.8384 8.55C26.3584 8.55 26.9351 8.54333 27.5684 8.53C28.2084 8.51667 28.8584 8.49 29.5184 8.45C30.1851 8.41 30.8218 8.34667 31.4284 8.26L31.5084 9.02C30.8818 9.13333 30.2384 9.21667 29.5784 9.27C28.9184 9.32333 28.2784 9.35667 27.6584 9.37C27.0451 9.38333 26.4784 9.39 25.9584 9.39ZM37.2777 9.03H38.3077V11.23H37.2777V9.03ZM40.1777 9.02H41.2077V11.22H40.1777V9.02ZM35.0577 10.89H43.3377V11.75H35.0577V10.89ZM36.0377 4.32H42.3577V7.2H37.0877V8.91H36.0577V6.38H41.3177V5.17H36.0377V4.32ZM36.0577 8.47H42.5677V9.31H36.0577V8.47Z" fill="#16A34A"/>
</svg>
