<svg width="50" height="17" viewBox="0 0 50 17" fill="none" xmlns="http://www.w3.org/2000/svg">
<rect x="0.5" y="0.5" width="49" height="16" rx="6.5" fill="white"/>
<rect x="0.5" y="0.5" width="49" height="16" rx="6.5" stroke="#6B7280"/>
<path d="M9.64 5.27H10.49V5.63C10.49 6.15667 10.39 6.65333 10.19 7.12C9.99 7.58 9.7 7.98333 9.32 8.33C8.94667 8.67 8.48667 8.92667 7.94 9.1L7.44 8.29C7.91333 8.14333 8.31333 7.93667 8.64 7.67C8.96667 7.39667 9.21333 7.08333 9.38 6.73C9.55333 6.37 9.64 6.00333 9.64 5.63V5.27ZM9.83 5.27H10.68V5.63C10.68 5.89 10.73 6.14667 10.83 6.4C10.93 6.64667 11.0733 6.87667 11.26 7.09C11.4533 7.30333 11.6867 7.49333 11.96 7.66C12.2333 7.82667 12.5467 7.96 12.9 8.06L12.42 8.87C11.88 8.71667 11.4133 8.48 11.02 8.16C10.6333 7.84 10.3367 7.46333 10.13 7.03C9.93 6.59667 9.83 6.13 9.83 5.63V5.27ZM7.71 4.72H12.6V5.55H7.71V4.72ZM9.64 3.65H10.68V5.03H9.64V3.65ZM12.34 6.21H14.25V7.07H12.34V6.21ZM13.98 3.69H15.03V9.21H13.98V3.69ZM11.99 9.41C12.9433 9.41 13.6933 9.56 14.24 9.86C14.7933 10.16 15.07 10.5767 15.07 11.11C15.07 11.65 14.7933 12.0667 14.24 12.36C13.6933 12.66 12.9433 12.81 11.99 12.81C11.03 12.81 10.2733 12.66 9.72 12.36C9.17333 12.0667 8.9 11.65 8.9 11.11C8.9 10.5767 9.17333 10.16 9.72 9.86C10.2733 9.56 11.03 9.41 11.99 9.41ZM11.99 10.22C11.5567 10.22 11.1867 10.2567 10.88 10.33C10.5733 10.3967 10.34 10.4967 10.18 10.63C10.0267 10.7567 9.95 10.9167 9.95 11.11C9.95 11.3033 10.0267 11.4667 10.18 11.6C10.34 11.7333 10.5733 11.8333 10.88 11.9C11.1867 11.9667 11.5567 12 11.99 12C12.4233 12 12.79 11.9667 13.09 11.9C13.3967 11.8333 13.63 11.7333 13.79 11.6C13.95 11.4667 14.03 11.3033 14.03 11.11C14.03 10.9167 13.95 10.7567 13.79 10.63C13.63 10.4967 13.3967 10.3967 13.09 10.33C12.79 10.2567 12.4233 10.22 11.99 10.22ZM23.4792 4.99H25.0492V5.85H23.4792V4.99ZM23.4792 6.95H25.0492V7.82H23.4792V6.95ZM22.7492 3.69H23.7892V9.1H22.7492V3.69ZM17.7892 9.5H23.7892V12.83H22.7492V10.34H17.7892V9.5ZM19.1992 4.21C19.6659 4.21 20.0826 4.30333 20.4492 4.49C20.8159 4.67667 21.1026 4.93667 21.3092 5.27C21.5226 5.59667 21.6292 5.97333 21.6292 6.4C21.6292 6.83333 21.5226 7.21667 21.3092 7.55C21.1026 7.87667 20.8159 8.13333 20.4492 8.32C20.0826 8.50667 19.6659 8.6 19.1992 8.6C18.7392 8.6 18.3259 8.50667 17.9592 8.32C17.5926 8.13333 17.3026 7.87667 17.0892 7.55C16.8826 7.21667 16.7792 6.83333 16.7792 6.4C16.7792 5.97333 16.8826 5.59667 17.0892 5.27C17.3026 4.93667 17.5926 4.67667 17.9592 4.49C18.3259 4.30333 18.7392 4.21 19.1992 4.21ZM19.2092 5.1C18.9359 5.1 18.6926 5.15333 18.4792 5.26C18.2726 5.36667 18.1059 5.52 17.9792 5.72C17.8592 5.91333 17.7992 6.14 17.7992 6.4C17.7992 6.66667 17.8592 6.9 17.9792 7.1C18.1059 7.29333 18.2726 7.44667 18.4792 7.56C18.6926 7.66667 18.9359 7.72 19.2092 7.72C19.4759 7.72 19.7159 7.66667 19.9292 7.56C20.1426 7.44667 20.3092 7.29333 20.4292 7.1C20.5492 6.9 20.6092 6.66667 20.6092 6.4C20.6092 6.14 20.5492 5.91333 20.4292 5.72C20.3092 5.52 20.1426 5.36667 19.9292 5.26C19.7159 5.15333 19.4759 5.1 19.2092 5.1ZM29.4584 6.94H30.4984V8.62H29.4584V6.94ZM25.8584 8.16H34.1184V9H25.8584V8.16ZM29.9684 9.63C30.9551 9.63 31.7251 9.77 32.2784 10.05C32.8384 10.3233 33.1184 10.7167 33.1184 11.23C33.1184 11.7367 32.8384 12.1267 32.2784 12.4C31.7251 12.6733 30.9551 12.81 29.9684 12.81C28.9884 12.81 28.2184 12.6733 27.6584 12.4C27.1051 12.1267 26.8284 11.7367 26.8284 11.23C26.8284 10.7167 27.1051 10.3233 27.6584 10.05C28.2184 9.77 28.9884 9.63 29.9684 9.63ZM29.9684 10.43C29.2951 10.43 28.7784 10.5 28.4184 10.64C28.0584 10.7733 27.8784 10.97 27.8784 11.23C27.8784 11.49 28.0584 11.6867 28.4184 11.82C28.7784 11.9533 29.2951 12.02 29.9684 12.02C30.6418 12.02 31.1584 11.9533 31.5184 11.82C31.8784 11.6867 32.0584 11.49 32.0584 11.23C32.0584 10.97 31.8784 10.7733 31.5184 10.64C31.1584 10.5 30.6418 10.43 29.9684 10.43ZM29.2884 4.49H30.2184V4.74C30.2184 5.02 30.1618 5.28667 30.0484 5.54C29.9351 5.79333 29.7718 6.02667 29.5584 6.24C29.3451 6.44667 29.0918 6.63333 28.7984 6.8C28.5051 6.96 28.1751 7.09333 27.8084 7.2C27.4418 7.30667 27.0518 7.38333 26.6384 7.43L26.2684 6.6C26.6284 6.56667 26.9618 6.51 27.2684 6.43C27.5818 6.35 27.8618 6.25 28.1084 6.13C28.3551 6.01 28.5651 5.87667 28.7384 5.73C28.9118 5.58333 29.0451 5.42667 29.1384 5.26C29.2384 5.08667 29.2884 4.91333 29.2884 4.74V4.49ZM29.7584 4.49H30.6884V4.74C30.6884 4.91333 30.7351 5.08667 30.8284 5.26C30.9218 5.42667 31.0551 5.58333 31.2284 5.73C31.4018 5.87667 31.6118 6.01 31.8584 6.13C32.1118 6.25 32.3918 6.35 32.6984 6.43C33.0118 6.51 33.3484 6.56667 33.7084 6.6L33.3384 7.43C32.9184 7.38333 32.5251 7.30667 32.1584 7.2C31.7984 7.09333 31.4718 6.96 31.1784 6.8C30.8851 6.64 30.6318 6.45333 30.4184 6.24C30.2051 6.02667 30.0418 5.79333 29.9284 5.54C29.8151 5.28667 29.7584 5.02 29.7584 4.74V4.49ZM26.6084 4.09H33.3684V4.92H26.6084V4.09ZM37.2777 9.03H38.3077V11.23H37.2777V9.03ZM40.1777 9.02H41.2077V11.22H40.1777V9.02ZM35.0577 10.89H43.3377V11.75H35.0577V10.89ZM36.0377 4.32H42.3577V7.2H37.0877V8.91H36.0577V6.38H41.3177V5.17H36.0377V4.32ZM36.0577 8.47H42.5677V9.31H36.0577V8.47Z" fill="#6B7280"/>
</svg>
