<svg width="50" height="17" viewBox="0 0 50 17" fill="none" xmlns="http://www.w3.org/2000/svg">
<rect x="0.5" y="0.5" width="49" height="16" rx="6.5" fill="white"/>
<rect x="0.5" y="0.5" width="49" height="16" rx="6.5" stroke="#2563EB"/>
<path d="M9.58 4.17H10.45V5.05C10.45 5.64333 10.35 6.2 10.15 6.72C9.95667 7.23333 9.67 7.68333 9.29 8.07C8.91667 8.45667 8.46333 8.74667 7.93 8.94L7.37 8.11C7.85 7.94333 8.25333 7.70333 8.58 7.39C8.91333 7.07667 9.16333 6.72 9.33 6.32C9.49667 5.91333 9.58 5.49 9.58 5.05V4.17ZM9.79 4.17H10.64V5.14C10.64 5.43333 10.6867 5.72 10.78 6C10.8733 6.27333 11.01 6.53333 11.19 6.78C11.3767 7.02 11.6033 7.23333 11.87 7.42C12.1367 7.60667 12.44 7.75667 12.78 7.87L12.23 8.69C11.7167 8.50333 11.2767 8.23333 10.91 7.88C10.55 7.52667 10.2733 7.11667 10.08 6.65C9.88667 6.17667 9.79 5.67333 9.79 5.14V4.17ZM13.55 3.69H14.59V9.17H13.55V3.69ZM14.31 5.94H15.88V6.81H14.31V5.94ZM11.65 9.4C12.2833 9.4 12.8233 9.46667 13.27 9.6C13.7233 9.73333 14.0733 9.93 14.32 10.19C14.5667 10.4433 14.69 10.75 14.69 11.11C14.69 11.4633 14.5667 11.7667 14.32 12.02C14.0733 12.28 13.7233 12.4767 13.27 12.61C12.8233 12.7433 12.2833 12.81 11.65 12.81C11.0233 12.81 10.48 12.7433 10.02 12.61C9.56667 12.4767 9.21667 12.28 8.97 12.02C8.73 11.7667 8.61 11.4633 8.61 11.11C8.61 10.75 8.73 10.4433 8.97 10.19C9.21667 9.93 9.56667 9.73333 10.02 9.6C10.48 9.46667 11.0233 9.4 11.65 9.4ZM11.65 10.22C11.23 10.22 10.87 10.2533 10.57 10.32C10.27 10.3867 10.04 10.4867 9.88 10.62C9.72 10.7533 9.64 10.9167 9.64 11.11C9.64 11.2967 9.72 11.4567 9.88 11.59C10.04 11.7233 10.27 11.8267 10.57 11.9C10.87 11.9667 11.23 12 11.65 12C12.0767 12 12.4367 11.9667 12.73 11.9C13.03 11.8267 13.26 11.7233 13.42 11.59C13.58 11.4567 13.66 11.2967 13.66 11.11C13.66 10.9167 13.58 10.7533 13.42 10.62C13.26 10.4867 13.03 10.3867 12.73 10.32C12.4367 10.2533 12.0767 10.22 11.65 10.22ZM18.8092 4.68H19.6692V5.35C19.6692 5.91667 19.5692 6.45 19.3692 6.95C19.1692 7.45 18.8792 7.88667 18.4992 8.26C18.1192 8.62667 17.6559 8.90667 17.1092 9.1L16.5792 8.27C17.0592 8.10333 17.4659 7.87 17.7992 7.57C18.1326 7.27 18.3826 6.93 18.5492 6.55C18.7226 6.16333 18.8092 5.76333 18.8092 5.35V4.68ZM19.0192 4.68H19.8692V5.35C19.8692 5.72333 19.9526 6.08333 20.1192 6.43C20.2859 6.77667 20.5292 7.08667 20.8492 7.36C21.1692 7.62667 21.5592 7.83333 22.0192 7.98L21.5192 8.8C20.9792 8.62667 20.5226 8.37 20.1492 8.03C19.7826 7.69 19.5026 7.29 19.3092 6.83C19.1159 6.36333 19.0192 5.87 19.0192 5.35V4.68ZM16.8692 4.33H21.7792V5.18H16.8692V4.33ZM22.7492 3.69H23.7892V9.15H22.7492V3.69ZM23.5092 5.91H25.0792V6.77H23.5092V5.91ZM20.8492 9.36C21.4759 9.36 22.0159 9.43 22.4692 9.57C22.9226 9.70333 23.2726 9.9 23.5192 10.16C23.7659 10.4133 23.8892 10.72 23.8892 11.08C23.8892 11.4467 23.7659 11.7567 23.5192 12.01C23.2726 12.27 22.9226 12.4667 22.4692 12.6C22.0159 12.74 21.4759 12.81 20.8492 12.81C20.2226 12.81 19.6792 12.74 19.2192 12.6C18.7659 12.4667 18.4159 12.27 18.1692 12.01C17.9292 11.7567 17.8092 11.4467 17.8092 11.08C17.8092 10.72 17.9292 10.4133 18.1692 10.16C18.4159 9.9 18.7659 9.70333 19.2192 9.57C19.6792 9.43 20.2226 9.36 20.8492 9.36ZM20.8492 10.19C20.4292 10.19 20.0692 10.2233 19.7692 10.29C19.4692 10.3567 19.2392 10.4567 19.0792 10.59C18.9192 10.7233 18.8392 10.8867 18.8392 11.08C18.8392 11.28 18.9192 11.45 19.0792 11.59C19.2392 11.7233 19.4692 11.8267 19.7692 11.9C20.0692 11.9667 20.4292 12 20.8492 12C21.2759 12 21.6359 11.9667 21.9292 11.9C22.2292 11.8267 22.4592 11.7233 22.6192 11.59C22.7792 11.45 22.8592 11.28 22.8592 11.08C22.8592 10.8867 22.7792 10.7233 22.6192 10.59C22.4592 10.4567 22.2292 10.3567 21.9292 10.29C21.6359 10.2233 21.2759 10.19 20.8492 10.19ZM28.0984 7.44H29.1384V8.82H28.0984V7.44ZM28.5984 4.08C29.0384 4.08 29.4284 4.15667 29.7684 4.31C30.1151 4.46333 30.3851 4.68 30.5784 4.96C30.7718 5.23333 30.8684 5.55 30.8684 5.91C30.8684 6.27 30.7718 6.59 30.5784 6.87C30.3851 7.14333 30.1151 7.35667 29.7684 7.51C29.4284 7.66333 29.0384 7.74 28.5984 7.74C28.1584 7.74 27.7684 7.66333 27.4284 7.51C27.0884 7.35667 26.8218 7.14333 26.6284 6.87C26.4351 6.59 26.3384 6.27 26.3384 5.91C26.3384 5.55 26.4351 5.23333 26.6284 4.96C26.8218 4.68 27.0884 4.46333 27.4284 4.31C27.7684 4.15667 28.1584 4.08 28.5984 4.08ZM28.5984 4.88C28.3518 4.88 28.1284 4.92333 27.9284 5.01C27.7351 5.09 27.5851 5.21 27.4784 5.37C27.3718 5.52333 27.3184 5.70333 27.3184 5.91C27.3184 6.11667 27.3718 6.3 27.4784 6.46C27.5851 6.61333 27.7351 6.73333 27.9284 6.82C28.1284 6.9 28.3518 6.94 28.5984 6.94C28.8518 6.94 29.0751 6.9 29.2684 6.82C29.4618 6.73333 29.6118 6.61333 29.7184 6.46C29.8318 6.3 29.8884 6.11667 29.8884 5.91C29.8884 5.70333 29.8318 5.52333 29.7184 5.37C29.6118 5.21 29.4618 5.09 29.2684 5.01C29.0751 4.92333 28.8518 4.88 28.5984 4.88ZM31.9684 3.69H33.0084V10.67H31.9684V3.69ZM32.6084 6.68H34.2684V7.55H32.6084V6.68ZM27.0984 11.79H33.3284V12.64H27.0984V11.79ZM27.0984 10.08H28.1484V12.16H27.0984V10.08ZM25.9584 9.39L25.8384 8.55C26.3584 8.55 26.9351 8.54333 27.5684 8.53C28.2084 8.51667 28.8584 8.49 29.5184 8.45C30.1851 8.41 30.8218 8.34667 31.4284 8.26L31.5084 9.02C30.8818 9.13333 30.2384 9.21667 29.5784 9.27C28.9184 9.32333 28.2784 9.35667 27.6584 9.37C27.0451 9.38333 26.4784 9.39 25.9584 9.39ZM37.2777 9.03H38.3077V11.23H37.2777V9.03ZM40.1777 9.02H41.2077V11.22H40.1777V9.02ZM35.0577 10.89H43.3377V11.75H35.0577V10.89ZM36.0377 4.32H42.3577V7.2H37.0877V8.91H36.0577V6.38H41.3177V5.17H36.0377V4.32ZM36.0577 8.47H42.5677V9.31H36.0577V8.47Z" fill="#2563EB"/>
</svg>
