<svg width="50" height="17" viewBox="0 0 50 17" fill="none" xmlns="http://www.w3.org/2000/svg">
<rect x="0.5" y="0.5" width="49" height="16" rx="6.5" fill="white"/>
<rect x="0.5" y="0.5" width="49" height="16" rx="6.5" stroke="#7C3AED"/>
<path d="M9.64 5.27H10.49V5.63C10.49 6.15667 10.39 6.65333 10.19 7.12C9.99 7.58 9.7 7.98333 9.32 8.33C8.94667 8.67 8.48667 8.92667 7.94 9.1L7.44 8.29C7.91333 8.14333 8.31333 7.93667 8.64 7.67C8.96667 7.39667 9.21333 7.08333 9.38 6.73C9.55333 6.37 9.64 6.00333 9.64 5.63V5.27ZM9.83 5.27H10.68V5.63C10.68 5.89 10.73 6.14667 10.83 6.4C10.93 6.64667 11.0733 6.87667 11.26 7.09C11.4533 7.30333 11.6867 7.49333 11.96 7.66C12.2333 7.82667 12.5467 7.96 12.9 8.06L12.42 8.87C11.88 8.71667 11.4133 8.48 11.02 8.16C10.6333 7.84 10.3367 7.46333 10.13 7.03C9.93 6.59667 9.83 6.13 9.83 5.63V5.27ZM7.71 4.72H12.6V5.55H7.71V4.72ZM9.64 3.65H10.68V5.03H9.64V3.65ZM12.34 6.21H14.25V7.07H12.34V6.21ZM13.98 3.69H15.03V9.21H13.98V3.69ZM11.99 9.41C12.9433 9.41 13.6933 9.56 14.24 9.86C14.7933 10.16 15.07 10.5767 15.07 11.11C15.07 11.65 14.7933 12.0667 14.24 12.36C13.6933 12.66 12.9433 12.81 11.99 12.81C11.03 12.81 10.2733 12.66 9.72 12.36C9.17333 12.0667 8.9 11.65 8.9 11.11C8.9 10.5767 9.17333 10.16 9.72 9.86C10.2733 9.56 11.03 9.41 11.99 9.41ZM11.99 10.22C11.5567 10.22 11.1867 10.2567 10.88 10.33C10.5733 10.3967 10.34 10.4967 10.18 10.63C10.0267 10.7567 9.95 10.9167 9.95 11.11C9.95 11.3033 10.0267 11.4667 10.18 11.6C10.34 11.7333 10.5733 11.8333 10.88 11.9C11.1867 11.9667 11.5567 12 11.99 12C12.4233 12 12.79 11.9667 13.09 11.9C13.3967 11.8333 13.63 11.7333 13.79 11.6C13.95 11.4667 14.03 11.3033 14.03 11.11C14.03 10.9167 13.95 10.7567 13.79 10.63C13.63 10.4967 13.3967 10.3967 13.09 10.33C12.79 10.2567 12.4233 10.22 11.99 10.22ZM23.4792 4.99H25.0492V5.85H23.4792V4.99ZM23.4792 6.95H25.0492V7.82H23.4792V6.95ZM22.7492 3.69H23.7892V9.1H22.7492V3.69ZM17.7892 9.5H23.7892V12.83H22.7492V10.34H17.7892V9.5ZM19.1992 4.21C19.6659 4.21 20.0826 4.30333 20.4492 4.49C20.8159 4.67667 21.1026 4.93667 21.3092 5.27C21.5226 5.59667 21.6292 5.97333 21.6292 6.4C21.6292 6.83333 21.5226 7.21667 21.3092 7.55C21.1026 7.87667 20.8159 8.13333 20.4492 8.32C20.0826 8.50667 19.6659 8.6 19.1992 8.6C18.7392 8.6 18.3259 8.50667 17.9592 8.32C17.5926 8.13333 17.3026 7.87667 17.0892 7.55C16.8826 7.21667 16.7792 6.83333 16.7792 6.4C16.7792 5.97333 16.8826 5.59667 17.0892 5.27C17.3026 4.93667 17.5926 4.67667 17.9592 4.49C18.3259 4.30333 18.7392 4.21 19.1992 4.21ZM19.2092 5.1C18.9359 5.1 18.6926 5.15333 18.4792 5.26C18.2726 5.36667 18.1059 5.52 17.9792 5.72C17.8592 5.91333 17.7992 6.14 17.7992 6.4C17.7992 6.66667 17.8592 6.9 17.9792 7.1C18.1059 7.29333 18.2726 7.44667 18.4792 7.56C18.6926 7.66667 18.9359 7.72 19.2092 7.72C19.4759 7.72 19.7159 7.66667 19.9292 7.56C20.1426 7.44667 20.3092 7.29333 20.4292 7.1C20.5492 6.9 20.6092 6.66667 20.6092 6.4C20.6092 6.14 20.5492 5.91333 20.4292 5.72C20.3092 5.52 20.1426 5.36667 19.9292 5.26C19.7159 5.15333 19.4759 5.1 19.2092 5.1ZM28.0984 7.44H29.1384V8.82H28.0984V7.44ZM28.5984 4.08C29.0384 4.08 29.4284 4.15667 29.7684 4.31C30.1151 4.46333 30.3851 4.68 30.5784 4.96C30.7718 5.23333 30.8684 5.55 30.8684 5.91C30.8684 6.27 30.7718 6.59 30.5784 6.87C30.3851 7.14333 30.1151 7.35667 29.7684 7.51C29.4284 7.66333 29.0384 7.74 28.5984 7.74C28.1584 7.74 27.7684 7.66333 27.4284 7.51C27.0884 7.35667 26.8218 7.14333 26.6284 6.87C26.4351 6.59 26.3384 6.27 26.3384 5.91C26.3384 5.55 26.4351 5.23333 26.6284 4.96C26.8218 4.68 27.0884 4.46333 27.4284 4.31C27.7684 4.15667 28.1584 4.08 28.5984 4.08ZM28.5984 4.88C28.3518 4.88 28.1284 4.92333 27.9284 5.01C27.7351 5.09 27.5851 5.21 27.4784 5.37C27.3718 5.52333 27.3184 5.70333 27.3184 5.91C27.3184 6.11667 27.3718 6.3 27.4784 6.46C27.5851 6.61333 27.7351 6.73333 27.9284 6.82C28.1284 6.9 28.3518 6.94 28.5984 6.94C28.8518 6.94 29.0751 6.9 29.2684 6.82C29.4618 6.73333 29.6118 6.61333 29.7184 6.46C29.8318 6.3 29.8884 6.11667 29.8884 5.91C29.8884 5.70333 29.8318 5.52333 29.7184 5.37C29.6118 5.21 29.4618 5.09 29.2684 5.01C29.0751 4.92333 28.8518 4.88 28.5984 4.88ZM31.9684 3.69H33.0084V10.67H31.9684V3.69ZM32.6084 6.68H34.2684V7.55H32.6084V6.68ZM27.0984 11.79H33.3284V12.64H27.0984V11.79ZM27.0984 10.08H28.1484V12.16H27.0984V10.08ZM25.9584 9.39L25.8384 8.55C26.3584 8.55 26.9351 8.54333 27.5684 8.53C28.2084 8.51667 28.8584 8.49 29.5184 8.45C30.1851 8.41 30.8218 8.34667 31.4284 8.26L31.5084 9.02C30.8818 9.13333 30.2384 9.21667 29.5784 9.27C28.9184 9.32333 28.2784 9.35667 27.6584 9.37C27.0451 9.38333 26.4784 9.39 25.9584 9.39ZM37.2777 9.03H38.3077V11.23H37.2777V9.03ZM40.1777 9.02H41.2077V11.22H40.1777V9.02ZM35.0577 10.89H43.3377V11.75H35.0577V10.89ZM36.0377 4.32H42.3577V7.2H37.0877V8.91H36.0577V6.38H41.3177V5.17H36.0377V4.32ZM36.0577 8.47H42.5677V9.31H36.0577V8.47Z" fill="#7C3AED"/>
</svg>
