<svg width="50" height="17" viewBox="0 0 50 17" fill="none" xmlns="http://www.w3.org/2000/svg">
<rect x="0.5" y="0.5" width="49" height="16" rx="6.5" fill="white"/>
<rect x="0.5" y="0.5" width="49" height="16" rx="6.5" stroke="#3045BB"/>
<path d="M9.64 5.27H10.49V5.63C10.49 6.15667 10.39 6.65333 10.19 7.12C9.99 7.58 9.7 7.98333 9.32 8.33C8.94667 8.67 8.48667 8.92667 7.94 9.1L7.44 8.29C7.91333 8.14333 8.31333 7.93667 8.64 7.67C8.96667 7.39667 9.21333 7.08333 9.38 6.73C9.55333 6.37 9.64 6.00333 9.64 5.63V5.27ZM9.83 5.27H10.68V5.63C10.68 5.89 10.73 6.14667 10.83 6.4C10.93 6.64667 11.0733 6.87667 11.26 7.09C11.4533 7.30333 11.6867 7.49333 11.96 7.66C12.2333 7.82667 12.5467 7.96 12.9 8.06L12.42 8.87C11.88 8.71667 11.4133 8.48 11.02 8.16C10.6333 7.84 10.3367 7.46333 10.13 7.03C9.93 6.59667 9.83 6.13 9.83 5.63V5.27ZM7.71 4.72H12.6V5.55H7.71V4.72ZM9.64 3.65H10.68V5.03H9.64V3.65ZM12.34 6.21H14.25V7.07H12.34V6.21ZM13.98 3.69H15.03V9.21H13.98V3.69ZM11.99 9.41C12.9433 9.41 13.6933 9.56 14.24 9.86C14.7933 10.16 15.07 10.5767 15.07 11.11C15.07 11.65 14.7933 12.0667 14.24 12.36C13.6933 12.66 12.9433 12.81 11.99 12.81C11.03 12.81 10.2733 12.66 9.72 12.36C9.17333 12.0667 8.9 11.65 8.9 11.11C8.9 10.5767 9.17333 10.16 9.72 9.86C10.2733 9.56 11.03 9.41 11.99 9.41ZM11.99 10.22C11.5567 10.22 11.1867 10.2567 10.88 10.33C10.5733 10.3967 10.34 10.4967 10.18 10.63C10.0267 10.7567 9.95 10.9167 9.95 11.11C9.95 11.3033 10.0267 11.4667 10.18 11.6C10.34 11.7333 10.5733 11.8333 10.88 11.9C11.1867 11.9667 11.5567 12 11.99 12C12.4233 12 12.79 11.9667 13.09 11.9C13.3967 11.8333 13.63 11.7333 13.79 11.6C13.95 11.4667 14.03 11.3033 14.03 11.11C14.03 10.9167 13.95 10.7567 13.79 10.63C13.63 10.4967 13.3967 10.3967 13.09 10.33C12.79 10.2567 12.4233 10.22 11.99 10.22ZM23.4792 4.99H25.0492V5.85H23.4792V4.99ZM23.4792 6.95H25.0492V7.82H23.4792V6.95ZM22.7492 3.69H23.7892V9.1H22.7492V3.69ZM17.7892 9.5H23.7892V12.83H22.7492V10.34H17.7892V9.5ZM19.1992 4.21C19.6659 4.21 20.0826 4.30333 20.4492 4.49C20.8159 4.67667 21.1026 4.93667 21.3092 5.27C21.5226 5.59667 21.6292 5.97333 21.6292 6.4C21.6292 6.83333 21.5226 7.21667 21.3092 7.55C21.1026 7.87667 20.8159 8.13333 20.4492 8.32C20.0826 8.50667 19.6659 8.6 19.1992 8.6C18.7392 8.6 18.3259 8.50667 17.9592 8.32C17.5926 8.13333 17.3026 7.87667 17.0892 7.55C16.8826 7.21667 16.7792 6.83333 16.7792 6.4C16.7792 5.97333 16.8826 5.59667 17.0892 5.27C17.3026 4.93667 17.5926 4.67667 17.9592 4.49C18.3259 4.30333 18.7392 4.21 19.1992 4.21ZM19.2092 5.1C18.9359 5.1 18.6926 5.15333 18.4792 5.26C18.2726 5.36667 18.1059 5.52 17.9792 5.72C17.8592 5.91333 17.7992 6.14 17.7992 6.4C17.7992 6.66667 17.8592 6.9 17.9792 7.1C18.1059 7.29333 18.2726 7.44667 18.4792 7.56C18.6926 7.66667 18.9359 7.72 19.2092 7.72C19.4759 7.72 19.7159 7.66667 19.9292 7.56C20.1426 7.44667 20.3092 7.29333 20.4292 7.1C20.5492 6.9 20.6092 6.66667 20.6092 6.4C20.6092 6.14 20.5492 5.91333 20.4292 5.72C20.3092 5.52 20.1426 5.36667 19.9292 5.26C19.7159 5.15333 19.4759 5.1 19.2092 5.1ZM29.4884 5.81H31.1584V6.66H29.4884V5.81ZM29.4884 8.61H31.1584V9.46H29.4884V8.61ZM32.6584 3.68H33.6584V12.82H32.6584V3.68ZM30.8484 3.86H31.8384V12.39H30.8484V3.86ZM27.9084 4.39C28.3084 4.39 28.6551 4.52333 28.9484 4.79C29.2484 5.05 29.4784 5.42333 29.6384 5.91C29.7984 6.39 29.8784 6.96667 29.8784 7.64C29.8784 8.30667 29.7984 8.88333 29.6384 9.37C29.4784 9.85667 29.2484 10.23 28.9484 10.49C28.6551 10.75 28.3084 10.88 27.9084 10.88C27.5151 10.88 27.1718 10.75 26.8784 10.49C26.5851 10.23 26.3584 9.85667 26.1984 9.37C26.0384 8.88333 25.9584 8.30667 25.9584 7.64C25.9584 6.96667 26.0384 6.39 26.1984 5.91C26.3584 5.42333 26.5851 5.05 26.8784 4.79C27.1784 4.52333 27.5218 4.39 27.9084 4.39ZM27.9084 5.38C27.7018 5.38 27.5218 5.46667 27.3684 5.64C27.2218 5.81333 27.1051 6.07 27.0184 6.41C26.9384 6.74333 26.8984 7.15333 26.8984 7.64C26.8984 8.11333 26.9384 8.52 27.0184 8.86C27.1051 9.2 27.2218 9.46 27.3684 9.64C27.5218 9.81333 27.7018 9.9 27.9084 9.9C28.1218 9.9 28.3051 9.81333 28.4584 9.64C28.6118 9.46 28.7284 9.2 28.8084 8.86C28.8884 8.52 28.9284 8.11333 28.9284 7.64C28.9284 7.15333 28.8884 6.74333 28.8084 6.41C28.7284 6.07 28.6118 5.81333 28.4584 5.64C28.3051 5.46667 28.1218 5.38 27.9084 5.38ZM39.9677 5.98H41.8877V6.84H39.9677V5.98ZM41.5777 3.69H42.6277V9.13H41.5777V3.69ZM39.5877 9.37C40.2277 9.37 40.7743 9.44 41.2277 9.58C41.6877 9.71333 42.041 9.91 42.2877 10.17C42.541 10.4233 42.6677 10.7333 42.6677 11.1C42.6677 11.6467 42.391 12.07 41.8377 12.37C41.291 12.67 40.541 12.82 39.5877 12.82C38.6343 12.82 37.881 12.67 37.3277 12.37C36.7743 12.07 36.4977 11.6467 36.4977 11.1C36.4977 10.7333 36.621 10.4233 36.8677 10.17C37.121 9.91 37.4777 9.71333 37.9377 9.58C38.4043 9.44 38.9543 9.37 39.5877 9.37ZM39.5877 10.17C39.1543 10.17 38.7843 10.2067 38.4777 10.28C38.1777 10.3533 37.9477 10.4567 37.7877 10.59C37.6277 10.7233 37.5477 10.8933 37.5477 11.1C37.5477 11.2933 37.6277 11.46 37.7877 11.6C37.9477 11.74 38.1777 11.8467 38.4777 11.92C38.7843 11.9867 39.1543 12.02 39.5877 12.02C40.021 12.02 40.3877 11.9867 40.6877 11.92C40.9877 11.8467 41.2177 11.74 41.3777 11.6C41.5443 11.46 41.6277 11.2933 41.6277 11.1C41.6277 10.8933 41.5443 10.7233 41.3777 10.59C41.2177 10.4567 40.9877 10.3533 40.6877 10.28C40.3877 10.2067 40.021 10.17 39.5877 10.17ZM37.2877 4.61H38.1477V5.27C38.1477 5.84333 38.0443 6.38333 37.8377 6.89C37.6377 7.39 37.3477 7.83333 36.9677 8.22C36.5877 8.6 36.1277 8.88667 35.5877 9.08L35.0577 8.25C35.411 8.12333 35.7243 7.95667 35.9977 7.75C36.2777 7.54333 36.5143 7.30667 36.7077 7.04C36.901 6.77333 37.0443 6.49 37.1377 6.19C37.2377 5.89 37.2877 5.58333 37.2877 5.27V4.61ZM37.4977 4.61H38.3477V5.27C38.3477 5.64333 38.431 6.01 38.5977 6.37C38.7643 6.73 39.0077 7.05333 39.3277 7.34C39.6477 7.62 40.0377 7.84333 40.4977 8.01L39.9777 8.83C39.451 8.64333 39.001 8.37333 38.6277 8.02C38.261 7.66 37.981 7.24333 37.7877 6.77C37.5943 6.29 37.4977 5.79 37.4977 5.27V4.61ZM35.3577 4.3H40.2477V5.15H35.3577V4.3Z" fill="#3045BB"/>
</svg>
