<svg width="50" height="17" viewBox="0 0 50 17" fill="none" xmlns="http://www.w3.org/2000/svg">
<rect x="0.5" y="0.5" width="49" height="16" rx="6.5" fill="white"/>
<rect x="0.5" y="0.5" width="49" height="16" rx="6.5" stroke="#2563EB"/>
<path d="M13.94 3.69H14.99V8.59H13.94V3.69ZM9.03 9.03H10.06V10.02H13.96V9.03H14.99V12.71H9.03V9.03ZM10.06 10.83V11.87H13.96V10.83H10.06ZM10.06 4.1C10.5267 4.1 10.9433 4.19 11.31 4.37C11.6767 4.55 11.9633 4.8 12.17 5.12C12.3833 5.43333 12.49 5.8 12.49 6.22C12.49 6.64 12.3833 7.01 12.17 7.33C11.9633 7.65 11.6767 7.9 11.31 8.08C10.9433 8.26 10.5267 8.35 10.06 8.35C9.59333 8.35 9.17667 8.26 8.81 8.08C8.44333 7.9 8.15333 7.65 7.94 7.33C7.73333 7.01 7.63 6.64 7.63 6.22C7.63 5.8 7.73333 5.43333 7.94 5.12C8.15333 4.8 8.44333 4.55 8.81 4.37C9.17667 4.19 9.59333 4.1 10.06 4.1ZM10.06 4.96C9.78667 4.96 9.54333 5.01333 9.33 5.12C9.12333 5.22 8.96 5.36667 8.84 5.56C8.72 5.74667 8.66 5.96667 8.66 6.22C8.66 6.47333 8.72 6.69667 8.84 6.89C8.96 7.07667 9.12333 7.22333 9.33 7.33C9.54333 7.43 9.78667 7.48 10.06 7.48C10.3333 7.48 10.5733 7.43 10.78 7.33C10.9933 7.22333 11.16 7.07667 11.28 6.89C11.4067 6.69667 11.47 6.47333 11.47 6.22C11.47 5.96667 11.4067 5.74667 11.28 5.56C11.16 5.36667 10.9933 5.22 10.78 5.12C10.5733 5.01333 10.3333 4.96 10.06 4.96ZM17.5192 4.54H23.3592V5.39H17.5192V4.54ZM16.6592 10.77H24.9192V11.63H16.6592V10.77ZM19.7392 7.56H20.7892V11.19H19.7392V7.56ZM22.9792 4.54H24.0192V5.43C24.0192 5.81 24.0159 6.21 24.0092 6.63C24.0026 7.05 23.9759 7.51333 23.9292 8.02C23.8826 8.52667 23.7992 9.09667 23.6792 9.73L22.6292 9.61C22.8026 8.71667 22.9026 7.93333 22.9292 7.26C22.9626 6.58667 22.9792 5.97667 22.9792 5.43V4.54ZM28.0984 7.44H29.1384V8.82H28.0984V7.44ZM28.5984 4.08C29.0384 4.08 29.4284 4.15667 29.7684 4.31C30.1151 4.46333 30.3851 4.68 30.5784 4.96C30.7718 5.23333 30.8684 5.55 30.8684 5.91C30.8684 6.27 30.7718 6.59 30.5784 6.87C30.3851 7.14333 30.1151 7.35667 29.7684 7.51C29.4284 7.66333 29.0384 7.74 28.5984 7.74C28.1584 7.74 27.7684 7.66333 27.4284 7.51C27.0884 7.35667 26.8218 7.14333 26.6284 6.87C26.4351 6.59 26.3384 6.27 26.3384 5.91C26.3384 5.55 26.4351 5.23333 26.6284 4.96C26.8218 4.68 27.0884 4.46333 27.4284 4.31C27.7684 4.15667 28.1584 4.08 28.5984 4.08ZM28.5984 4.88C28.3518 4.88 28.1284 4.92333 27.9284 5.01C27.7351 5.09 27.5851 5.21 27.4784 5.37C27.3718 5.52333 27.3184 5.70333 27.3184 5.91C27.3184 6.11667 27.3718 6.3 27.4784 6.46C27.5851 6.61333 27.7351 6.73333 27.9284 6.82C28.1284 6.9 28.3518 6.94 28.5984 6.94C28.8518 6.94 29.0751 6.9 29.2684 6.82C29.4618 6.73333 29.6118 6.61333 29.7184 6.46C29.8318 6.3 29.8884 6.11667 29.8884 5.91C29.8884 5.70333 29.8318 5.52333 29.7184 5.37C29.6118 5.21 29.4618 5.09 29.2684 5.01C29.0751 4.92333 28.8518 4.88 28.5984 4.88ZM31.9684 3.69H33.0084V10.67H31.9684V3.69ZM32.6084 6.68H34.2684V7.55H32.6084V6.68ZM27.0984 11.79H33.3284V12.64H27.0984V11.79ZM27.0984 10.08H28.1484V12.16H27.0984V10.08ZM25.9584 9.39L25.8384 8.55C26.3584 8.55 26.9351 8.54333 27.5684 8.53C28.2084 8.51667 28.8584 8.49 29.5184 8.45C30.1851 8.41 30.8218 8.34667 31.4284 8.26L31.5084 9.02C30.8818 9.13333 30.2384 9.21667 29.5784 9.27C28.9184 9.32333 28.2784 9.35667 27.6584 9.37C27.0451 9.38333 26.4784 9.39 25.9584 9.39ZM37.2777 9.03H38.3077V11.23H37.2777V9.03ZM40.1777 9.02H41.2077V11.22H40.1777V9.02ZM35.0577 10.89H43.3377V11.75H35.0577V10.89ZM36.0377 4.32H42.3577V7.2H37.0877V8.91H36.0577V6.38H41.3177V5.17H36.0377V4.32ZM36.0577 8.47H42.5677V9.31H36.0577V8.47Z" fill="#2563EB"/>
</svg>
