<svg width="50" height="17" viewBox="0 0 50 17" fill="none" xmlns="http://www.w3.org/2000/svg">
<rect x="0.5" y="0.5" width="49" height="16" rx="6.5" fill="white"/>
<rect x="0.5" y="0.5" width="49" height="16" rx="6.5" stroke="#6B7280"/>
<path d="M9.95 5.34H10.8V5.46C10.8 5.90667 10.7 6.32 10.5 6.7C10.3067 7.08 10.02 7.40333 9.64 7.67C9.26667 7.93667 8.80667 8.13333 8.26 8.26L7.83 7.44C8.28333 7.34 8.66667 7.19333 8.98 7C9.29333 6.80667 9.53333 6.57667 9.7 6.31C9.86667 6.04333 9.95 5.76 9.95 5.46V5.34ZM10.15 5.34H11V5.46C11 5.74 11.08 6.00333 11.24 6.25C11.4067 6.49667 11.6467 6.71333 11.96 6.9C12.2733 7.08 12.6533 7.21667 13.1 7.31L12.68 8.12C12.14 8.00667 11.68 7.82333 11.3 7.57C10.9267 7.31 10.64 7 10.44 6.64C10.2467 6.28 10.15 5.88667 10.15 5.46V5.34ZM8.04 4.66H12.91V5.48H8.04V4.66ZM9.95 3.7H11V5.23H9.95V3.7ZM9.95 8.9H11.01V12.55H9.95V8.9ZM13.98 3.69H15.02V12.83H13.98V3.69ZM7.59 9.65L7.46 8.78C8.02667 8.78 8.64333 8.77667 9.31 8.77C9.98333 8.75667 10.6667 8.73 11.36 8.69C12.06 8.65 12.7333 8.58667 13.38 8.5L13.45 9.26C12.7833 9.38 12.1033 9.46667 11.41 9.52C10.7233 9.57333 10.0533 9.61 9.4 9.63C8.75333 9.64333 8.15 9.65 7.59 9.65ZM16.6592 10.83H24.9392V11.69H16.6592V10.83ZM20.2392 8.69H21.2792V11.08H20.2392V8.69ZM20.1992 4.25H21.1192V4.94C21.1192 5.32667 21.0559 5.7 20.9292 6.06C20.8092 6.41333 20.6326 6.74333 20.3992 7.05C20.1726 7.35667 19.9026 7.63333 19.5892 7.88C19.2759 8.12667 18.9292 8.33667 18.5492 8.51C18.1759 8.68333 17.7826 8.81 17.3692 8.89L16.9292 8.01C17.2892 7.95 17.6326 7.85 17.9592 7.71C18.2859 7.57 18.5859 7.4 18.8592 7.2C19.1326 7 19.3692 6.78 19.5692 6.54C19.7692 6.29333 19.9226 6.03667 20.0292 5.77C20.1426 5.49667 20.1992 5.22 20.1992 4.94V4.25ZM20.3992 4.25H21.3092V4.94C21.3092 5.22 21.3659 5.49667 21.4792 5.77C21.5926 6.04333 21.7492 6.3 21.9492 6.54C22.1492 6.78 22.3859 7.00333 22.6592 7.21C22.9326 7.41 23.2326 7.58 23.5592 7.72C23.8859 7.85333 24.2326 7.95 24.5992 8.01L24.1492 8.89C23.7359 8.81 23.3392 8.68333 22.9592 8.51C22.5859 8.33667 22.2426 8.13 21.9292 7.89C21.6159 7.64333 21.3426 7.36667 21.1092 7.06C20.8826 6.74667 20.7059 6.41333 20.5792 6.06C20.4592 5.7 20.3992 5.32667 20.3992 4.94V4.25ZM28.0984 7.44H29.1384V8.82H28.0984V7.44ZM28.5984 4.08C29.0384 4.08 29.4284 4.15667 29.7684 4.31C30.1151 4.46333 30.3851 4.68 30.5784 4.96C30.7718 5.23333 30.8684 5.55 30.8684 5.91C30.8684 6.27 30.7718 6.59 30.5784 6.87C30.3851 7.14333 30.1151 7.35667 29.7684 7.51C29.4284 7.66333 29.0384 7.74 28.5984 7.74C28.1584 7.74 27.7684 7.66333 27.4284 7.51C27.0884 7.35667 26.8218 7.14333 26.6284 6.87C26.4351 6.59 26.3384 6.27 26.3384 5.91C26.3384 5.55 26.4351 5.23333 26.6284 4.96C26.8218 4.68 27.0884 4.46333 27.4284 4.31C27.7684 4.15667 28.1584 4.08 28.5984 4.08ZM28.5984 4.88C28.3518 4.88 28.1284 4.92333 27.9284 5.01C27.7351 5.09 27.5851 5.21 27.4784 5.37C27.3718 5.52333 27.3184 5.70333 27.3184 5.91C27.3184 6.11667 27.3718 6.3 27.4784 6.46C27.5851 6.61333 27.7351 6.73333 27.9284 6.82C28.1284 6.9 28.3518 6.94 28.5984 6.94C28.8518 6.94 29.0751 6.9 29.2684 6.82C29.4618 6.73333 29.6118 6.61333 29.7184 6.46C29.8318 6.3 29.8884 6.11667 29.8884 5.91C29.8884 5.70333 29.8318 5.52333 29.7184 5.37C29.6118 5.21 29.4618 5.09 29.2684 5.01C29.0751 4.92333 28.8518 4.88 28.5984 4.88ZM31.9684 3.69H33.0084V10.67H31.9684V3.69ZM32.6084 6.68H34.2684V7.55H32.6084V6.68ZM27.0984 11.79H33.3284V12.64H27.0984V11.79ZM27.0984 10.08H28.1484V12.16H27.0984V10.08ZM25.9584 9.39L25.8384 8.55C26.3584 8.55 26.9351 8.54333 27.5684 8.53C28.2084 8.51667 28.8584 8.49 29.5184 8.45C30.1851 8.41 30.8218 8.34667 31.4284 8.26L31.5084 9.02C30.8818 9.13333 30.2384 9.21667 29.5784 9.27C28.9184 9.32333 28.2784 9.35667 27.6584 9.37C27.0451 9.38333 26.4784 9.39 25.9584 9.39ZM37.2777 9.03H38.3077V11.23H37.2777V9.03ZM40.1777 9.02H41.2077V11.22H40.1777V9.02ZM35.0577 10.89H43.3377V11.75H35.0577V10.89ZM36.0377 4.32H42.3577V7.2H37.0877V8.91H36.0577V6.38H41.3177V5.17H36.0377V4.32ZM36.0577 8.47H42.5677V9.31H36.0577V8.47Z" fill="#6B7280"/>
</svg>
