<svg width="50" height="17" viewBox="0 0 50 17" fill="none" xmlns="http://www.w3.org/2000/svg">
<rect x="0.5" y="0.5" width="49" height="16" rx="6.5" fill="white"/>
<rect x="0.5" y="0.5" width="49" height="16" rx="6.5" stroke="#CA3D40"/>
<path d="M9.64 5.27H10.49V5.63C10.49 6.15667 10.39 6.65333 10.19 7.12C9.99 7.58 9.7 7.98333 9.32 8.33C8.94667 8.67 8.48667 8.92667 7.94 9.1L7.44 8.29C7.91333 8.14333 8.31333 7.93667 8.64 7.67C8.96667 7.39667 9.21333 7.08333 9.38 6.73C9.55333 6.37 9.64 6.00333 9.64 5.63V5.27ZM9.83 5.27H10.68V5.63C10.68 5.89 10.73 6.14667 10.83 6.4C10.93 6.64667 11.0733 6.87667 11.26 7.09C11.4533 7.30333 11.6867 7.49333 11.96 7.66C12.2333 7.82667 12.5467 7.96 12.9 8.06L12.42 8.87C11.88 8.71667 11.4133 8.48 11.02 8.16C10.6333 7.84 10.3367 7.46333 10.13 7.03C9.93 6.59667 9.83 6.13 9.83 5.63V5.27ZM7.71 4.72H12.6V5.55H7.71V4.72ZM9.64 3.65H10.68V5.03H9.64V3.65ZM12.34 6.21H14.25V7.07H12.34V6.21ZM13.98 3.69H15.03V9.21H13.98V3.69ZM11.99 9.41C12.9433 9.41 13.6933 9.56 14.24 9.86C14.7933 10.16 15.07 10.5767 15.07 11.11C15.07 11.65 14.7933 12.0667 14.24 12.36C13.6933 12.66 12.9433 12.81 11.99 12.81C11.03 12.81 10.2733 12.66 9.72 12.36C9.17333 12.0667 8.9 11.65 8.9 11.11C8.9 10.5767 9.17333 10.16 9.72 9.86C10.2733 9.56 11.03 9.41 11.99 9.41ZM11.99 10.22C11.5567 10.22 11.1867 10.2567 10.88 10.33C10.5733 10.3967 10.34 10.4967 10.18 10.63C10.0267 10.7567 9.95 10.9167 9.95 11.11C9.95 11.3033 10.0267 11.4667 10.18 11.6C10.34 11.7333 10.5733 11.8333 10.88 11.9C11.1867 11.9667 11.5567 12 11.99 12C12.4233 12 12.79 11.9667 13.09 11.9C13.3967 11.8333 13.63 11.7333 13.79 11.6C13.95 11.4667 14.03 11.3033 14.03 11.11C14.03 10.9167 13.95 10.7567 13.79 10.63C13.63 10.4967 13.3967 10.3967 13.09 10.33C12.79 10.2567 12.4233 10.22 11.99 10.22ZM23.4792 4.99H25.0492V5.85H23.4792V4.99ZM23.4792 6.95H25.0492V7.82H23.4792V6.95ZM22.7492 3.69H23.7892V9.1H22.7492V3.69ZM17.7892 9.5H23.7892V12.83H22.7492V10.34H17.7892V9.5ZM19.1992 4.21C19.6659 4.21 20.0826 4.30333 20.4492 4.49C20.8159 4.67667 21.1026 4.93667 21.3092 5.27C21.5226 5.59667 21.6292 5.97333 21.6292 6.4C21.6292 6.83333 21.5226 7.21667 21.3092 7.55C21.1026 7.87667 20.8159 8.13333 20.4492 8.32C20.0826 8.50667 19.6659 8.6 19.1992 8.6C18.7392 8.6 18.3259 8.50667 17.9592 8.32C17.5926 8.13333 17.3026 7.87667 17.0892 7.55C16.8826 7.21667 16.7792 6.83333 16.7792 6.4C16.7792 5.97333 16.8826 5.59667 17.0892 5.27C17.3026 4.93667 17.5926 4.67667 17.9592 4.49C18.3259 4.30333 18.7392 4.21 19.1992 4.21ZM19.2092 5.1C18.9359 5.1 18.6926 5.15333 18.4792 5.26C18.2726 5.36667 18.1059 5.52 17.9792 5.72C17.8592 5.91333 17.7992 6.14 17.7992 6.4C17.7992 6.66667 17.8592 6.9 17.9792 7.1C18.1059 7.29333 18.2726 7.44667 18.4792 7.56C18.6926 7.66667 18.9359 7.72 19.2092 7.72C19.4759 7.72 19.7159 7.66667 19.9292 7.56C20.1426 7.44667 20.3092 7.29333 20.4292 7.1C20.5492 6.9 20.6092 6.66667 20.6092 6.4C20.6092 6.14 20.5492 5.91333 20.4292 5.72C20.3092 5.52 20.1426 5.36667 19.9292 5.26C19.7159 5.15333 19.4759 5.1 19.2092 5.1ZM31.8884 3.68H32.9384V12.82H31.8884V3.68ZM32.6684 7.29H34.3184V8.16H32.6684V7.29ZM29.5284 4.65H30.5484C30.5484 5.53667 30.4118 6.38333 30.1384 7.19C29.8718 7.99 29.4351 8.72667 28.8284 9.4C28.2284 10.0733 27.4284 10.66 26.4284 11.16L25.8484 10.36C26.6751 9.93333 27.3584 9.44667 27.8984 8.9C28.4451 8.35333 28.8518 7.74 29.1184 7.06C29.3918 6.38 29.5284 5.63333 29.5284 4.82V4.65ZM26.3084 4.65H30.0684V5.5H26.3084V4.65ZM36.1477 6.11H42.3877V6.95H36.1477V6.11ZM36.1477 3.85H37.1877V6.48H36.1477V3.85ZM35.0677 7.88H43.3277V8.73H35.0677V7.88ZM39.1677 9.44C40.1543 9.44 40.9243 9.58667 41.4777 9.88C42.0377 10.1733 42.3177 10.5867 42.3177 11.12C42.3177 11.6533 42.0377 12.0667 41.4777 12.36C40.9243 12.6533 40.1543 12.8 39.1677 12.8C38.1943 12.8 37.4277 12.6533 36.8677 12.36C36.3077 12.0667 36.0277 11.6533 36.0277 11.12C36.0277 10.5867 36.3077 10.1733 36.8677 9.88C37.4277 9.58667 38.1943 9.44 39.1677 9.44ZM39.1677 10.25C38.7277 10.25 38.351 10.2833 38.0377 10.35C37.7243 10.4167 37.4843 10.5133 37.3177 10.64C37.1577 10.7667 37.0777 10.9267 37.0777 11.12C37.0777 11.3067 37.1577 11.4633 37.3177 11.59C37.4843 11.7167 37.7243 11.8133 38.0377 11.88C38.351 11.9467 38.7277 11.98 39.1677 11.98C39.621 11.98 40.001 11.9467 40.3077 11.88C40.621 11.8133 40.8577 11.7167 41.0177 11.59C41.1777 11.4633 41.2577 11.3067 41.2577 11.12C41.2577 10.9267 41.1777 10.7667 41.0177 10.64C40.8577 10.5133 40.621 10.4167 40.3077 10.35C40.001 10.2833 39.621 10.25 39.1677 10.25Z" fill="#CA3D40"/>
</svg>
