<svg width="42" height="42" viewBox="0 0 42 42" fill="none" xmlns="http://www.w3.org/2000/svg">
<rect width="42" height="42" rx="21" fill="#EBF3FF"/>
<g clip-path="url(#clip0_2010_2160)">
<path d="M20.9999 10.7178C9.78563 10.7178 9.52148 23.2887 9.52148 25.7756C9.52148 28.2661 14.6587 30.2821 20.9999 30.2821C27.3393 30.2821 32.4784 28.2661 32.4784 25.7756C32.4784 23.2887 32.2124 10.7178 20.9999 10.7178Z" fill="#FCC21B"/>
<path d="M26.7788 16.2595C26.9189 16.0295 27.2172 15.954 27.449 16.0924C27.5599 16.1583 27.6403 16.2653 27.6726 16.3902C27.7049 16.515 27.6865 16.6476 27.6215 16.759C27.5892 16.8147 26.7949 18.1282 25.0394 18.1282C23.2821 18.1282 22.4878 16.8147 22.4537 16.759C22.4103 16.6844 22.3873 16.5996 22.3871 16.5133C22.3868 16.427 22.4093 16.3421 22.4523 16.2672C22.4953 16.1924 22.5573 16.1301 22.632 16.0868C22.7066 16.0435 22.7914 16.0206 22.8778 16.0205C23.0431 16.0205 23.2066 16.105 23.2982 16.2577C23.3216 16.2972 23.8589 17.1489 25.0394 17.1489C26.2199 17.1489 26.7554 16.2972 26.7788 16.2595ZM14.5528 16.0888C14.6301 16.0421 14.7164 16.0205 14.799 16.0205C14.9679 16.0205 15.1314 16.1086 15.2231 16.2613C15.2428 16.2972 15.7765 17.1489 16.9589 17.1489C18.161 17.1489 18.6946 16.2703 18.7 16.2613C18.7674 16.1523 18.8748 16.074 18.9992 16.0433C19.1236 16.0126 19.255 16.0319 19.3654 16.0971C19.4757 16.1622 19.5561 16.2681 19.5892 16.3918C19.6224 16.5156 19.6057 16.6474 19.5428 16.759C19.5104 16.8147 18.7162 18.1282 16.9589 18.1282C15.2033 18.1282 14.4109 16.8147 14.3785 16.759C14.242 16.5272 14.321 16.2254 14.5528 16.0888Z" fill="#2F2F2F"/>
<path d="M24.6836 25.7955C24.6836 28.3057 23.0341 29.3641 21 29.3641C18.9659 29.3641 17.3164 28.3057 17.3164 25.7955C17.3164 23.2852 18.9659 20.2737 21 20.2737C23.0341 20.2737 24.6836 23.2852 24.6836 25.7955Z" fill="#ED6C30"/>
<path d="M18.8293 23.2152C17.6415 24.7641 15.9435 24.9438 14.8995 24.579C13.1242 23.9573 12.5869 21.5135 13.8681 20.112C14.4054 19.5208 15.2409 19.1093 16.0351 19.0033C17.0108 18.8721 18.1213 19.1902 19.0701 19.2135C19.4833 19.2243 20.0296 19.1704 20.4285 19.0105C20.5022 18.9799 20.5417 18.9799 20.5237 19.0734C20.2003 20.6492 19.3755 22.5018 18.8293 23.2152Z" fill="white"/>
</g>
<defs>
<clipPath id="clip0_2010_2160">
<rect width="23" height="23" fill="white" transform="translate(9.5 9)"/>
</clipPath>
</defs>
</svg>
