<svg width="42" height="42" viewBox="0 0 42 42" fill="none" xmlns="http://www.w3.org/2000/svg">
<rect width="42" height="42" rx="21" fill="#EBF3FF"/>
<path d="M28.345 26.75H13.655C13.2824 26.7497 12.9251 26.6014 12.6617 26.3379C12.3982 26.0743 12.2502 25.717 12.25 25.3444V16.9062C12.25 16.5335 12.398 16.176 12.6614 15.9123C12.9249 15.6486 13.2823 15.5003 13.655 15.5H28.345C28.7176 15.5003 29.0749 15.6485 29.3383 15.9121C29.6018 16.1757 29.7498 16.533 29.75 16.9056V25.3438C29.7504 25.5284 29.7144 25.7114 29.6439 25.8821C29.5735 26.0528 29.47 26.2079 29.3395 26.3386C29.2089 26.4692 29.0539 26.5728 28.8833 26.6434C28.7126 26.714 28.5297 26.7502 28.345 26.75Z" fill="#00A6ED"/>
<path d="M25.6163 23H14.5087C14.4069 22.9995 14.3094 22.9587 14.2375 22.8866C14.1656 22.8145 14.1252 22.7168 14.125 22.615V20.885C14.125 20.6769 14.295 20.5 14.5087 20.5H25.6163C25.8237 20.5 26 20.6706 26 20.885V22.6212C25.9997 22.6713 25.9895 22.7208 25.97 22.767C25.9506 22.8131 25.9222 22.8549 25.8866 22.8901C25.8509 22.9253 25.8087 22.9531 25.7623 22.9719C25.716 22.9908 25.6663 23.0003 25.6163 23Z" fill="#F4F4F4"/>
<path d="M26.8456 25.5H27.9669C28.037 25.5003 28.1064 25.4866 28.1712 25.4599C28.236 25.4332 28.2949 25.394 28.3444 25.3444C28.394 25.2949 28.4332 25.236 28.4599 25.1712C28.4866 25.1064 28.5003 25.037 28.5 24.9669V23.8456C28.5003 23.7755 28.4866 23.7061 28.4599 23.6413C28.4332 23.5765 28.394 23.5177 28.3444 23.4681C28.2949 23.4185 28.236 23.3793 28.1712 23.3526C28.1064 23.3259 28.037 23.3123 27.9669 23.3125H26.8456C26.7755 23.3123 26.7061 23.3259 26.6413 23.3526C26.5765 23.3793 26.5177 23.4185 26.4681 23.4681C26.4185 23.5177 26.3793 23.5765 26.3526 23.6413C26.3259 23.7061 26.3123 23.7755 26.3125 23.8456V24.9669C26.3136 25.1079 26.3702 25.2429 26.4699 25.3426C26.5696 25.4423 26.7046 25.4989 26.8456 25.5Z" fill="#FFF478"/>
<path d="M29.75 17.375H12.25V19.25H29.75V17.375Z" fill="#321B41"/>
<path d="M14.75 21.75C14.75 21.6671 14.7829 21.5876 14.8415 21.529C14.9001 21.4704 14.9796 21.4375 15.0625 21.4375H21.9375C22.0204 21.4375 22.0999 21.4704 22.1585 21.529C22.2171 21.5876 22.25 21.6671 22.25 21.75C22.25 21.8329 22.2171 21.9124 22.1585 21.971C22.0999 22.0296 22.0204 22.0625 21.9375 22.0625H15.0625C14.9796 22.0625 14.9001 22.0296 14.8415 21.971C14.7829 21.9124 14.75 21.8329 14.75 21.75Z" fill="#9B9B9B"/>
</svg>
