<svg width="42" height="42" viewBox="0 0 42 42" fill="none" xmlns="http://www.w3.org/2000/svg">
<rect width="42" height="42" rx="21" fill="#EBF3FF"/>
<g clip-path="url(#clip0_1010_1955)">
<path d="M21 31C26.5228 31 31 26.5228 31 21C31 15.4772 26.5228 11 21 11C15.4772 11 11 15.4772 11 21C11 26.5228 15.4772 31 21 31Z" fill="#FCC21B"/>
<path d="M20.9999 29.0556C25.4489 29.0556 29.0554 25.449 29.0554 21C29.0554 16.5511 25.4489 12.9445 20.9999 12.9445C16.5509 12.9445 12.9443 16.5511 12.9443 21C12.9443 25.449 16.5509 29.0556 20.9999 29.0556Z" fill="#FAAE4A"/>
<path d="M21.0001 28.2223C24.9888 28.2223 28.2223 24.9888 28.2223 21.0001C28.2223 17.0113 24.9888 13.7778 21.0001 13.7778C17.0113 13.7778 13.7778 17.0113 13.7778 21.0001C13.7778 24.9888 17.0113 28.2223 21.0001 28.2223Z" fill="#F5F8FA"/>
<path d="M20.9999 15.4445L21.8504 18.9467L24.9282 17.0717L23.0532 20.1495L26.5554 21L23.0532 21.8506L24.9282 24.9283L21.8504 23.0533L20.9999 26.5556L20.1493 23.0533L17.0716 24.9283L18.9466 21.8506L15.4443 21L18.9466 20.1495L17.0716 17.0717L20.1493 18.9467L20.9999 15.4445Z" fill="#CCD6DD"/>
<path d="M20.635 22.5266L25.5111 25.5161L22.5228 20.6394L20.635 22.5266Z" fill="#292F33"/>
<path d="M21.3649 19.4816L16.4883 16.4922L19.4772 21.3694L21.3649 19.4816Z" fill="#DD2E44"/>
<path d="M21 22.7017C21.9373 22.7017 22.6972 21.9418 22.6972 21.0045C22.6972 20.0671 21.9373 19.3073 21 19.3073C20.0626 19.3073 19.3027 20.0671 19.3027 21.0045C19.3027 21.9418 20.0626 22.7017 21 22.7017Z" fill="#8899A6"/>
<path d="M21 21.92C21.5057 21.92 21.9156 21.5101 21.9156 21.0044C21.9156 20.4988 21.5057 20.0889 21 20.0889C20.4944 20.0889 20.0845 20.4988 20.0845 21.0044C20.0845 21.5101 20.4944 21.92 21 21.92Z" fill="#F5F8FA"/>
</g>
<defs>
<clipPath id="clip0_1010_1955">
<rect width="20" height="20" fill="white" transform="translate(11 11)"/>
</clipPath>
</defs>
</svg>
