<svg width="42" height="42" viewBox="0 0 42 42" fill="none" xmlns="http://www.w3.org/2000/svg">
<rect width="42" height="42" rx="21" fill="#EBF3FF"/>
<g clip-path="url(#clip0_2010_2138)">
<path d="M15.7576 14.4043C15.8803 14.4063 16.0023 14.3837 16.1162 14.338C16.2302 14.2922 16.334 14.2242 16.4214 14.1378C16.5089 14.0514 16.5784 13.9485 16.6259 13.8349C16.6733 13.7213 16.6977 13.5994 16.6977 13.4763C16.6977 13.3532 16.6733 13.2313 16.6259 13.1177C16.5784 13.0041 16.5089 12.9012 16.4214 12.8148C16.334 12.7284 16.2302 12.6604 16.1162 12.6146C16.0023 12.5689 15.8803 12.5463 15.7576 12.5483C15.2521 12.556 14.8462 12.9692 14.8462 13.4763C14.8462 13.9835 15.2521 14.3967 15.7576 14.4043ZM29.9289 13.6177C30.0515 13.6193 30.1731 13.5964 30.2867 13.5505C30.4004 13.5046 30.5038 13.4364 30.591 13.3501C30.6782 13.2637 30.7474 13.1609 30.7947 13.0475C30.8419 12.9341 30.8662 12.8124 30.8662 12.6895C30.8662 12.5666 30.8419 12.4449 30.7946 12.3315C30.7473 12.2182 30.6781 12.1153 30.5908 12.029C30.5036 11.9427 30.4002 11.8746 30.2865 11.8287C30.1728 11.7828 30.0512 11.7599 29.9287 11.7616C29.4231 11.7692 29.0174 12.1826 29.0174 12.6897C29.0174 13.1968 29.4234 13.6101 29.9289 13.6177Z" fill="#FF37AD"/>
<path d="M30.6799 25.5412C30.8027 25.5431 30.9246 25.5206 31.0386 25.4748C31.1525 25.429 31.2563 25.3609 31.3438 25.2746C31.4312 25.1882 31.5007 25.0852 31.5481 24.9716C31.5955 24.8581 31.62 24.7362 31.6199 24.613C31.6199 24.4899 31.5955 24.368 31.548 24.2544C31.5006 24.1409 31.4311 24.0379 31.3436 23.9516C31.2561 23.8652 31.1523 23.7972 31.0383 23.7514C30.9244 23.7057 30.8025 23.6831 30.6797 23.6851C30.1742 23.6928 29.7684 24.1061 29.7685 24.6133C29.7685 25.1204 30.1744 25.5336 30.6799 25.5412ZM19.5369 10.8562C19.6594 10.8578 19.781 10.835 19.8947 10.7891C20.0084 10.7432 20.1118 10.675 20.199 10.5887C20.2862 10.5024 20.3555 10.3995 20.4027 10.2861C20.45 10.1727 20.4743 10.0511 20.4743 9.92815C20.4743 9.80525 20.45 9.68357 20.4027 9.57018C20.3555 9.45679 20.2862 9.35394 20.199 9.2676C20.1118 9.18126 20.0084 9.11315 19.8947 9.06723C19.781 9.02131 19.6594 8.99848 19.5369 9.00008C19.0313 9.00784 18.6255 9.42102 18.6255 9.92815C18.6255 10.4353 19.0313 10.8485 19.5369 10.8562Z" fill="#FCC954"/>
<path d="M25.0114 17.3012C24.9017 17.3012 24.7934 17.2761 24.6948 17.2278C24.5961 17.1796 24.5097 17.1094 24.4422 17.0227C24.3746 16.9359 24.3276 16.8349 24.3048 16.7273C24.2819 16.6196 24.2838 16.5081 24.3103 16.4013C24.3392 16.2852 24.3628 16.1686 24.3806 16.0522C24.1637 16.142 23.9328 16.1925 23.6984 16.2014C23.2781 16.2175 22.9019 16.1464 22.5812 15.9906C22.2669 15.8396 22.0052 15.5973 21.8301 15.2951C21.4852 14.6955 21.5149 13.9067 21.9054 13.2856C22.2777 12.6926 22.9082 12.3716 23.5918 12.424C24.1184 12.4653 24.5799 12.6631 24.9495 13.0025C25.0168 12.8119 25.0812 12.6081 25.1427 12.391C25.5203 11.0544 25.6449 9.7122 25.646 9.69864C25.6545 9.6039 25.6816 9.51178 25.7256 9.42754C25.7697 9.3433 25.8298 9.26859 25.9027 9.20768C25.9755 9.14677 26.0596 9.10086 26.1502 9.07256C26.2407 9.04427 26.336 9.03415 26.4304 9.04278C26.6211 9.06028 26.7971 9.153 26.9198 9.30057C27.0424 9.44814 27.1016 9.6385 27.0843 9.82981C27.0791 9.88991 26.9462 11.321 26.5321 12.7867C26.3231 13.5268 26.076 14.1521 25.7962 14.6514C25.8168 14.7627 25.8332 14.8769 25.8455 14.994C25.9038 15.5591 25.8574 16.1673 25.7116 16.7528C25.6723 16.9093 25.5822 17.0482 25.4554 17.1475C25.3285 17.2468 25.1723 17.3009 25.0114 17.3012ZM23.4393 13.8669C23.3646 13.8669 23.2331 13.8888 23.1271 14.0573C23.0257 14.2187 23.0059 14.4392 23.0812 14.5701C23.1813 14.7443 23.476 14.7595 23.6429 14.7531C23.8323 14.7459 24.0263 14.6268 24.2162 14.4098C24.1846 14.3433 24.1472 14.2798 24.1045 14.22C23.9477 14.0016 23.7492 13.8899 23.4796 13.8688C23.4695 13.8682 23.4558 13.8669 23.4393 13.8669Z" fill="#2890E9"/>
<path d="M22.9345 19.2859C19.9389 16.9176 16.8079 15.8915 15.9412 16.9942C15.8596 17.0991 15.7997 17.2192 15.7649 17.3475C15.7596 17.3631 15.7555 17.3791 15.7527 17.3953V17.3972C15.7411 17.4467 15.7324 17.4967 15.7267 17.5474L14.0307 27.5066C13.7591 29.106 15.3377 30.3866 16.8406 29.7862L26.0376 26.1106C26.1998 26.0459 26.5989 25.7986 26.7081 25.6621C26.7371 25.6337 26.7641 25.6036 26.7892 25.5718C27.6557 24.4689 25.9298 21.6548 22.9345 19.2856V19.2859Z" fill="#F0A420"/>
<path d="M26.7882 25.5723C27.6554 24.4691 25.9301 21.6544 22.9345 19.286C19.939 16.9174 16.8076 15.8918 15.9405 16.9951C15.0734 18.0984 16.7985 20.913 19.7941 23.2815C22.7896 25.65 25.921 26.6756 26.7882 25.5723Z" fill="#FCC954"/>
<path d="M26.2652 24.9298C26.9768 24.0243 25.4093 21.5946 22.7639 19.503C20.1185 17.4112 17.397 16.4497 16.6855 17.355C15.9738 18.2605 17.5413 20.6901 20.1867 22.7818C22.832 24.8735 25.5536 25.8353 26.2652 24.9298Z" fill="#F0A420"/>
<path d="M19.9421 28.547C18.8229 28.5525 17.9106 27.9906 16.8048 27.1164C15.5181 26.0986 14.6636 24.8805 14.5961 24.1867L14.2314 26.3279C14.4002 26.939 14.9754 27.7136 15.8097 28.3732C16.5037 28.922 17.2038 29.2988 17.9296 29.3511L19.9421 28.5467V28.547ZM18.8225 24.6604C16.6785 22.965 15.2857 21.0193 15.3248 19.9065L14.9694 21.9932C14.9968 22.9871 16.155 24.5934 17.8024 25.896C19.2785 27.0633 20.8167 27.8848 21.9946 27.7267L23.994 26.9275C22.3831 27.0391 20.6834 26.1323 18.8225 24.6604Z" fill="#2E6AC9"/>
<path d="M23.2605 20.366C23.3831 20.3676 23.5047 20.3448 23.6183 20.2988C23.732 20.2529 23.8354 20.1848 23.9226 20.0985C24.0098 20.0121 24.0791 19.9093 24.1263 19.7959C24.1736 19.6825 24.1979 19.5608 24.1979 19.4379C24.1979 19.315 24.1736 19.1933 24.1263 19.0799C24.0791 18.9666 24.0098 18.8637 23.9226 18.7774C23.8354 18.691 23.732 18.6229 23.6183 18.577C23.5047 18.5311 23.3831 18.5082 23.2605 18.5098C22.755 18.5175 22.3491 18.9308 22.3491 19.4379C22.3491 19.9451 22.755 20.3583 23.2605 20.366Z" fill="#2890E9"/>
<path d="M28.251 18.5602L28.2578 18.5526C28.2663 18.5435 28.2819 18.5267 28.3044 18.5039C28.3745 18.434 28.4475 18.3671 28.5232 18.3033C28.8013 18.0698 29.1052 17.8692 29.4289 17.7054C30.2202 17.3039 31.3983 16.9762 32.9434 17.3335C33.4077 17.4408 33.8707 17.1504 33.9778 16.6848C34.0849 16.2192 33.7953 15.7547 33.3311 15.6474C31.331 15.1848 29.7407 15.6077 28.6497 16.1619C28.2067 16.3861 27.791 16.6608 27.4109 16.9806C27.2968 17.0768 27.1869 17.1779 27.0816 17.2836C27.0407 17.3248 27.0009 17.367 26.9621 17.4101L26.9527 17.4207L26.9494 17.4245L26.9478 17.4262L26.9473 17.4268C26.9471 17.4272 26.9466 17.4276 27.6005 17.9918L26.9466 17.4276C26.6437 17.7898 26.6866 18.3287 27.0429 18.6381C27.3992 18.9474 27.9371 18.9128 28.251 18.5602ZM19.7056 12.3888C19.6412 12.2863 19.5573 12.1976 19.4587 12.1276C19.3602 12.0577 19.2488 12.008 19.131 11.9813C19.0132 11.9547 18.8913 11.9516 18.7723 11.9722C18.6534 11.9929 18.5396 12.0369 18.4376 12.1017C18.3355 12.1663 18.2472 12.2504 18.1775 12.3493C18.1079 12.4482 18.0584 12.5598 18.0318 12.6779C18.0052 12.796 18.0021 12.9182 18.0226 13.0375C18.0431 13.1568 18.0868 13.2708 18.1513 13.3732C18.1846 13.4267 18.8683 14.5376 19.0088 16.059C19.1517 17.6048 18.6989 19.0256 17.6609 20.2997C18.0104 20.7453 18.431 21.2084 18.9115 21.6715C19.5764 20.901 20.0766 20.0729 20.4053 19.1968C20.8096 18.1189 20.9526 16.9759 20.8307 15.8001C20.6364 13.9294 19.825 12.5788 19.7056 12.3888Z" fill="#FF37AD"/>
<path d="M31.2063 21.2691C31.6752 21.3908 32.0066 21.5235 32.1498 21.5852C32.3172 21.6882 32.5129 21.7352 32.7086 21.7195C32.9044 21.7037 33.0901 21.6259 33.2389 21.4974C33.3375 21.412 33.417 21.3067 33.4723 21.1883C33.5276 21.07 33.5574 20.9413 33.5598 20.8106C33.563 20.6137 33.5038 20.4208 33.3906 20.2599C33.2774 20.099 33.1161 19.9783 32.9301 19.9153C32.4912 19.7198 30.8281 19.0596 28.6298 19.1769C27.15 19.2559 25.727 19.6669 24.4006 20.4C23.1447 21.0942 21.9784 22.0778 20.9197 23.3325C21.4248 23.693 21.951 24.0229 22.4955 24.3204C24.2831 22.2768 26.3457 21.169 28.6439 21.0227C29.5057 20.9702 30.3702 21.0534 31.2063 21.2691Z" fill="#2890E9"/>
</g>
<defs>
<clipPath id="clip0_2010_2138">
<rect width="20" height="21" fill="white" transform="translate(14 9)"/>
</clipPath>
</defs>
</svg>
