<svg width="22" height="22" viewBox="0 0 22 22" fill="none" xmlns="http://www.w3.org/2000/svg">
<path d="M11 20.1667C5.93729 20.1667 1.83337 16.0628 1.83337 11C1.83337 5.93729 5.93729 1.83337 11 1.83337C16.0628 1.83337 20.1667 5.93729 20.1667 11C20.1667 16.0628 16.0628 20.1667 11 20.1667ZM10.0834 13.75V15.5834H11.9167V13.75H10.0834ZM11.9167 12.2421C12.6534 12.0201 13.2858 11.5408 13.6989 10.8916C14.1119 10.2424 14.2779 9.46651 14.1669 8.70514C14.0558 7.94376 13.675 7.24761 13.0937 6.74346C12.5125 6.23931 11.7695 5.9607 11 5.95837C10.2583 5.95814 9.53935 6.21494 8.9656 6.68508C8.39185 7.15521 7.99872 7.80962 7.85312 8.53696L9.65162 8.89721C9.70266 8.64185 9.82517 8.40624 10.0049 8.21779C10.1846 8.02934 10.4141 7.89579 10.6668 7.83269C10.9194 7.76959 11.1848 7.77952 11.432 7.86135C11.6792 7.94317 11.8981 8.09351 12.0632 8.29488C12.2283 8.49624 12.3329 8.74036 12.3647 8.99881C12.3965 9.25727 12.3542 9.51944 12.2428 9.75483C12.1315 9.99021 11.9555 10.1891 11.7355 10.3284C11.5155 10.4677 11.2604 10.5417 11 10.5417C10.7569 10.5417 10.5238 10.6383 10.3519 10.8102C10.18 10.9821 10.0834 11.2153 10.0834 11.4584V12.8334H11.9167V12.2421Z" fill="#0922AC"/>
</svg>
