<svg width="42" height="42" viewBox="0 0 42 42" fill="none" xmlns="http://www.w3.org/2000/svg">
<rect width="42" height="42" rx="21" fill="#F0F7FF"/>
<path d="M12.6872 27.1246V16.6246H29.3122V27.1246C29.3122 28.0871 28.5247 28.8746 27.5622 28.8746H14.4372C13.4747 28.8746 12.6872 28.0871 12.6872 27.1246Z" fill="#CFD8DC"/>
<path d="M29.3122 14.875V17.5H12.6872V14.875C12.6872 13.9125 13.4747 13.125 14.4372 13.125H27.5622C28.5247 13.125 29.3122 13.9125 29.3122 14.875Z" fill="#F44336"/>
<path d="M24.9375 16.1882C25.6624 16.1882 26.25 15.6006 26.25 14.8757C26.25 14.1509 25.6624 13.5632 24.9375 13.5632C24.2126 13.5632 23.625 14.1509 23.625 14.8757C23.625 15.6006 24.2126 16.1882 24.9375 16.1882Z" fill="#B71C1C"/>
<path d="M17.0625 16.1882C17.7874 16.1882 18.375 15.6006 18.375 14.8757C18.375 14.1509 17.7874 13.5632 17.0625 13.5632C16.3376 13.5632 15.75 14.1509 15.75 14.8757C15.75 15.6006 16.3376 16.1882 17.0625 16.1882Z" fill="#B71C1C"/>
<path d="M24.9378 11.8125C24.4566 11.8125 24.0628 12.2062 24.0628 12.6875V14.875C24.0628 15.3563 24.4566 15.75 24.9378 15.75C25.4191 15.75 25.8128 15.3563 25.8128 14.875V12.6875C25.8128 12.2062 25.4191 11.8125 24.9378 11.8125ZM17.0628 11.8125C16.5816 11.8125 16.1878 12.2062 16.1878 12.6875V14.875C16.1878 15.3563 16.5816 15.75 17.0628 15.75C17.5441 15.75 17.9378 15.3563 17.9378 14.875V12.6875C17.9378 12.2062 17.5441 11.8125 17.0628 11.8125Z" fill="#B0BEC5"/>
<path d="M16.1878 19.2496H17.9378V20.9996H16.1878V19.2496ZM18.8128 19.2496H20.5628V20.9996H18.8128V19.2496ZM21.4378 19.2496H23.1878V20.9996H21.4378V19.2496ZM24.0628 19.2496H25.8128V20.9996H24.0628V19.2496ZM16.1878 21.8746H17.9378V23.6246H16.1878V21.8746ZM18.8128 21.8746H20.5628V23.6246H18.8128V21.8746ZM21.4378 21.8746H23.1878V23.6246H21.4378V21.8746ZM24.0628 21.8746H25.8128V23.6246H24.0628V21.8746ZM16.1878 24.4996H17.9378V26.2496H16.1878V24.4996ZM18.8128 24.4996H20.5628V26.2496H18.8128V24.4996ZM21.4378 24.4996H23.1878V26.2496H21.4378V24.4996ZM24.0628 24.4996H25.8128V26.2496H24.0628V24.4996Z" fill="#90A4AE"/>
</svg>
