<svg width="42" height="42" viewBox="0 0 42 42" fill="none" xmlns="http://www.w3.org/2000/svg">
<rect width="42" height="42" rx="21" fill="#F0F7FF"/>
<path fill-rule="evenodd" clip-rule="evenodd" d="M17.125 24.25H22.125C22.2908 24.25 22.4497 24.1842 22.5669 24.0669C22.6842 23.9497 22.75 23.7908 22.75 23.625V17.375C22.75 17.2092 22.6842 17.0503 22.5669 16.9331C22.4497 16.8158 22.2908 16.75 22.125 16.75H14C13.8342 16.75 13.6753 16.8158 13.5581 16.9331C13.4408 17.0503 13.375 17.2092 13.375 17.375V23.625C13.375 23.7908 13.4408 23.9497 13.5581 24.0669C13.6753 24.1842 13.8342 24.25 14 24.25H17.125Z" fill="#56CCF2"/>
<path d="M21.5 14.7888V26.1013C21.5 27.2431 22.8803 27.8147 23.6875 27.0075L29.09 21.6053C29.2424 21.453 29.3632 21.2721 29.4457 21.073C29.5281 20.874 29.5706 20.6606 29.5706 20.4452C29.5706 20.2297 29.5281 20.0163 29.4457 19.8173C29.3632 19.6182 29.2424 19.4374 29.09 19.285L23.6875 13.8825C22.8803 13.0753 21.5 13.6472 21.5 14.7888Z" fill="#2F80ED"/>
</svg>
