<svg width="84" height="54" viewBox="0 0 84 54" fill="none" xmlns="http://www.w3.org/2000/svg">
<path d="M28.34 37.516H29.6V48.508H28.34V37.516ZM21.164 44.86H22.1C22.732 44.86 23.336 44.852 23.912 44.836C24.496 44.812 25.076 44.772 25.652 44.716C26.228 44.66 26.824 44.584 27.44 44.488L27.56 45.508C26.616 45.668 25.712 45.776 24.848 45.832C23.984 45.88 23.068 45.904 22.1 45.904H21.164V44.86ZM21.14 38.5H26.264V42.556H22.436V45.256H21.164V41.56H24.98V39.52H21.14V38.5ZM37.4471 40.564H39.6191V41.572H37.4471V40.564ZM39.4151 37.528H40.6751V45.652H39.4151V37.528ZM33.5591 47.248H40.9511V48.268H33.5591V47.248ZM33.5591 44.968H34.8191V47.92H33.5591V44.968ZM32.1191 43.012H32.9471C33.6351 43.012 34.2351 43.008 34.7471 43C35.2591 42.984 35.7351 42.956 36.1751 42.916C36.6231 42.876 37.0791 42.816 37.5431 42.736L37.6511 43.744C37.1791 43.824 36.7151 43.888 36.2591 43.936C35.8111 43.976 35.3191 44.004 34.7831 44.02C34.2551 44.036 33.6431 44.044 32.9471 44.044H32.1191V43.012ZM32.1191 38.368H37.0631V39.388H33.3671V43.156H32.1191V38.368ZM32.9711 40.66H36.7391V41.656H32.9711V40.66ZM43.5181 37.84H51.6301V38.8H43.5181V37.84ZM43.5781 40.576H51.5581V41.524H43.5781V40.576ZM45.0661 38.212H46.3141V41.2H45.0661V38.212ZM48.8341 38.212H50.0821V41.2H48.8341V38.212ZM42.6301 42.28H52.5421V43.276H42.6301V42.28ZM43.7941 44.08H51.2941V46.636H45.0541V47.824H43.8181V45.76H50.0581V45.004H43.7941V44.08ZM43.8181 47.452H51.6061V48.388H43.8181V47.452ZM61.7572 37.528H62.9572V45.676H61.7572V37.528ZM60.1852 40.732H62.1172V41.752H60.1852V40.732ZM59.3692 37.732H60.5452V45.412H59.3692V37.732ZM55.6972 47.248H63.2572V48.268H55.6972V47.248ZM55.6972 44.932H56.9572V47.62H55.6972V44.932ZM54.1372 43.108H54.8692C55.3892 43.108 55.8652 43.1 56.2972 43.084C56.7292 43.068 57.1452 43.04 57.5452 43C57.9532 42.96 58.3692 42.896 58.7932 42.808L58.9012 43.816C58.4692 43.888 58.0452 43.948 57.6292 43.996C57.2132 44.044 56.7812 44.076 56.3332 44.092C55.8932 44.1 55.4052 44.104 54.8692 44.104H54.1372V43.108ZM54.1252 38.44H58.2652V41.704H55.3492V43.648H54.1372V40.768H57.0412V39.448H54.1252V38.44Z" fill="#333950"/>
<path d="M42 5.5C47.799 5.5 52.5 10.201 52.5 16C52.5 21.799 47.799 26.5 42 26.5C36.201 26.5 31.5 21.799 31.5 16C31.5 10.201 36.201 5.5 42 5.5ZM44.2227 12.5137L40.416 13.7822L39.9414 13.9404L39.7832 14.415L38.5146 18.2217L37.8818 20.1191L39.7793 19.4863L43.5859 18.2178L44.0605 18.0596L44.2188 17.585L45.4873 13.7783L46.1201 11.8809L44.2227 12.5137Z" fill="#333950"/>
<path d="M44.2227 12.5137L44.2385 12.5611L44.2385 12.5611L44.2227 12.5137ZM40.416 13.7822L40.4002 13.7348L40.4002 13.7348L40.416 13.7822ZM39.9414 13.9404L39.9256 13.893L39.9019 13.9009L39.894 13.9246L39.9414 13.9404ZM39.7832 14.415L39.7358 14.3992L39.7358 14.3992L39.7832 14.415ZM38.5146 18.2217L38.5621 18.2375L38.5621 18.2375L38.5146 18.2217ZM37.8818 20.1191L37.8344 20.1033L37.8028 20.1982L37.8977 20.1666L37.8818 20.1191ZM39.7793 19.4863L39.7635 19.4389L39.7635 19.4389L39.7793 19.4863ZM43.5859 18.2178L43.6017 18.2652L43.6017 18.2652L43.5859 18.2178ZM44.0605 18.0596L44.0764 18.107L44.1001 18.0991L44.108 18.0754L44.0605 18.0596ZM44.2188 17.585L44.2662 17.6008L44.2662 17.6008L44.2188 17.585ZM45.4873 13.7783L45.4399 13.7625L45.4399 13.7625L45.4873 13.7783ZM46.1201 11.8809L46.1675 11.8967L46.1992 11.8018L46.1043 11.8334L46.1201 11.8809ZM42 5.5V5.55C47.7714 5.55 52.45 10.2286 52.45 16H52.5H52.55C52.55 10.1734 47.8266 5.45 42 5.45V5.5ZM52.5 16H52.45C52.45 21.7714 47.7714 26.45 42 26.45V26.5V26.55C47.8266 26.55 52.55 21.8266 52.55 16H52.5ZM42 26.5V26.45C36.2286 26.45 31.55 21.7714 31.55 16H31.5H31.45C31.45 21.8266 36.1734 26.55 42 26.55V26.5ZM31.5 16H31.55C31.55 10.2286 36.2286 5.55 42 5.55V5.5V5.45C36.1734 5.45 31.45 10.1734 31.45 16H31.5ZM44.2227 12.5137L44.2068 12.4662L40.4002 13.7348L40.416 13.7822L40.4318 13.8297L44.2385 12.5611L44.2227 12.5137ZM40.416 13.7822L40.4002 13.7348L39.9256 13.893L39.9414 13.9404L39.9572 13.9879L40.4318 13.8297L40.416 13.7822ZM39.9414 13.9404L39.894 13.9246L39.7358 14.3992L39.7832 14.415L39.8306 14.4309L39.9888 13.9562L39.9414 13.9404ZM39.7832 14.415L39.7358 14.3992L38.4672 18.2059L38.5146 18.2217L38.5621 18.2375L39.8306 14.4308L39.7832 14.415ZM38.5146 18.2217L38.4672 18.2059L37.8344 20.1033L37.8818 20.1191L37.9293 20.135L38.5621 18.2375L38.5146 18.2217ZM37.8818 20.1191L37.8977 20.1666L39.7951 19.5338L39.7793 19.4863L39.7635 19.4389L37.866 20.0717L37.8818 20.1191ZM39.7793 19.4863L39.7951 19.5338L43.6017 18.2652L43.5859 18.2178L43.5701 18.1703L39.7635 19.4389L39.7793 19.4863ZM43.5859 18.2178L43.6017 18.2652L44.0764 18.107L44.0605 18.0596L44.0447 18.0121L43.5701 18.1703L43.5859 18.2178ZM44.0605 18.0596L44.108 18.0754L44.2662 17.6008L44.2188 17.585L44.1713 17.5691L44.0131 18.0438L44.0605 18.0596ZM44.2188 17.585L44.2662 17.6008L45.5347 13.7941L45.4873 13.7783L45.4399 13.7625L44.1713 17.5692L44.2188 17.585ZM45.4873 13.7783L45.5347 13.7941L46.1675 11.8967L46.1201 11.8809L46.0727 11.865L45.4399 13.7625L45.4873 13.7783ZM46.1201 11.8809L46.1043 11.8334L44.2068 12.4662L44.2227 12.5137L44.2385 12.5611L46.1359 11.9283L46.1201 11.8809Z" fill="#401313"/>
</svg>
