<svg width="84" height="54" viewBox="0 0 84 54" fill="none" xmlns="http://www.w3.org/2000/svg">
<path d="M28.34 37.516H29.6V48.508H28.34V37.516ZM21.164 44.86H22.1C22.732 44.86 23.336 44.852 23.912 44.836C24.496 44.812 25.076 44.772 25.652 44.716C26.228 44.66 26.824 44.584 27.44 44.488L27.56 45.508C26.616 45.668 25.712 45.776 24.848 45.832C23.984 45.88 23.068 45.904 22.1 45.904H21.164V44.86ZM21.14 38.5H26.264V42.556H22.436V45.256H21.164V41.56H24.98V39.52H21.14V38.5ZM37.4471 40.564H39.6191V41.572H37.4471V40.564ZM39.4151 37.528H40.6751V45.652H39.4151V37.528ZM33.5591 47.248H40.9511V48.268H33.5591V47.248ZM33.5591 44.968H34.8191V47.92H33.5591V44.968ZM32.1191 43.012H32.9471C33.6351 43.012 34.2351 43.008 34.7471 43C35.2591 42.984 35.7351 42.956 36.1751 42.916C36.6231 42.876 37.0791 42.816 37.5431 42.736L37.6511 43.744C37.1791 43.824 36.7151 43.888 36.2591 43.936C35.8111 43.976 35.3191 44.004 34.7831 44.02C34.2551 44.036 33.6431 44.044 32.9471 44.044H32.1191V43.012ZM32.1191 38.368H37.0631V39.388H33.3671V43.156H32.1191V38.368ZM32.9711 40.66H36.7391V41.656H32.9711V40.66ZM43.5181 37.84H51.6301V38.8H43.5181V37.84ZM43.5781 40.576H51.5581V41.524H43.5781V40.576ZM45.0661 38.212H46.3141V41.2H45.0661V38.212ZM48.8341 38.212H50.0821V41.2H48.8341V38.212ZM42.6301 42.28H52.5421V43.276H42.6301V42.28ZM43.7941 44.08H51.2941V46.636H45.0541V47.824H43.8181V45.76H50.0581V45.004H43.7941V44.08ZM43.8181 47.452H51.6061V48.388H43.8181V47.452ZM61.7572 37.528H62.9572V45.676H61.7572V37.528ZM60.1852 40.732H62.1172V41.752H60.1852V40.732ZM59.3692 37.732H60.5452V45.412H59.3692V37.732ZM55.6972 47.248H63.2572V48.268H55.6972V47.248ZM55.6972 44.932H56.9572V47.62H55.6972V44.932ZM54.1372 43.108H54.8692C55.3892 43.108 55.8652 43.1 56.2972 43.084C56.7292 43.068 57.1452 43.04 57.5452 43C57.9532 42.96 58.3692 42.896 58.7932 42.808L58.9012 43.816C58.4692 43.888 58.0452 43.948 57.6292 43.996C57.2132 44.044 56.7812 44.076 56.3332 44.092C55.8932 44.1 55.4052 44.104 54.8692 44.104H54.1372V43.108ZM54.1252 38.44H58.2652V41.704H55.3492V43.648H54.1372V40.768H57.0412V39.448H54.1252V38.44Z" fill="#333950"/>
<path d="M42 5.5C47.799 5.5 52.5 10.201 52.5 16C52.5 21.799 47.799 26.5 42 26.5C36.201 26.5 31.5 21.799 31.5 16C31.5 10.201 36.201 5.5 42 5.5ZM42 7.40918C37.2554 7.40918 33.4092 11.2554 33.4092 16C33.4092 20.7446 37.2554 24.5908 42 24.5908C46.7446 24.5908 50.5908 20.7446 50.5908 16C50.5908 11.2554 46.7446 7.40918 42 7.40918ZM45.7451 11.0469C46.4913 10.7983 47.2009 11.5087 46.9521 12.2549L44.9287 18.3252C44.8337 18.6102 44.6102 18.8347 44.3252 18.9297L38.2539 20.9531C37.5078 21.2016 36.7982 20.4912 37.0469 19.7451L39.0703 13.6748C39.1653 13.3899 39.389 13.1664 39.6738 13.0713L45.7451 11.0469ZM40.7314 14.7305L39.4629 18.5381L43.2695 17.2686L44.5391 13.4619L40.7314 14.7305Z" fill="#333950"/>
<path d="M42 5.5V5.45V5.45V5.5ZM52.5 16H52.55V16H52.5ZM42 26.5V26.55V26.55V26.5ZM31.5 16H31.45V16H31.5ZM42 7.40918V7.35918V7.35918V7.40918ZM33.4092 16H33.3592V16H33.4092ZM42 24.5908V24.6408V24.6408V24.5908ZM50.5908 16H50.6408V16H50.5908ZM45.7451 11.0469L45.7293 10.9994L45.7293 10.9994L45.7451 11.0469ZM46.9521 12.2549L46.9047 12.2391L46.9521 12.2549ZM44.9287 18.3252L44.8813 18.3094L44.9287 18.3252ZM44.3252 18.9297L44.341 18.9771L44.341 18.9771L44.3252 18.9297ZM38.2539 20.9531L38.2697 21.0006L38.2697 21.0006L38.2539 20.9531ZM37.0469 19.7451L37.0943 19.7609L37.0469 19.7451ZM39.0703 13.6748L39.1177 13.6906L39.0703 13.6748ZM39.6738 13.0713L39.658 13.0239L39.658 13.0239L39.6738 13.0713ZM40.7314 14.7305L40.7156 14.683L40.6919 14.6909L40.684 14.7147L40.7314 14.7305ZM39.4629 18.5381L39.4155 18.5223L39.3838 18.6172L39.4787 18.5855L39.4629 18.5381ZM43.2695 17.2686L43.2853 17.316L43.3091 17.3081L43.317 17.2844L43.2695 17.2686ZM44.5391 13.4619L44.5865 13.4777L44.6181 13.3829L44.5233 13.4145L44.5391 13.4619ZM42 5.5V5.55C47.7714 5.55 52.45 10.2286 52.45 16H52.5H52.55C52.55 10.1734 47.8266 5.45 42 5.45V5.5ZM52.5 16H52.45C52.45 21.7714 47.7714 26.45 42 26.45V26.5V26.55C47.8266 26.55 52.55 21.8266 52.55 16H52.5ZM42 26.5V26.45C36.2286 26.45 31.55 21.7714 31.55 16H31.5H31.45C31.45 21.8266 36.1734 26.55 42 26.55V26.5ZM31.5 16H31.55C31.55 10.2286 36.2286 5.55 42 5.55V5.5V5.45C36.1734 5.45 31.45 10.1734 31.45 16H31.5ZM42 7.40918V7.35918C37.2278 7.35918 33.3592 11.2278 33.3592 16H33.4092H33.4592C33.4592 11.283 37.283 7.45918 42 7.45918V7.40918ZM33.4092 16H33.3592C33.3592 20.7722 37.2278 24.6408 42 24.6408V24.5908V24.5408C37.283 24.5408 33.4592 20.717 33.4592 16H33.4092ZM42 24.5908V24.6408C46.7722 24.6408 50.6408 20.7722 50.6408 16H50.5908H50.5408C50.5408 20.717 46.717 24.5408 42 24.5408V24.5908ZM50.5908 16H50.6408C50.6408 11.2278 46.7722 7.35918 42 7.35918V7.40918V7.45918C46.717 7.45918 50.5408 11.283 50.5408 16H50.5908ZM45.7451 11.0469L45.7609 11.0943C46.4679 10.8588 47.1404 11.532 46.9047 12.2391L46.9521 12.2549L46.9996 12.2707C47.2613 11.4855 46.5146 10.7379 45.7293 10.9994L45.7451 11.0469ZM46.9521 12.2549L46.9047 12.2391L44.8813 18.3094L44.9287 18.3252L44.9761 18.341L46.9996 12.2707L46.9521 12.2549ZM44.9287 18.3252L44.8813 18.3094C44.7912 18.5796 44.5794 18.7922 44.3094 18.8823L44.3252 18.9297L44.341 18.9771C44.6411 18.8771 44.8762 18.6409 44.9761 18.341L44.9287 18.3252ZM44.3252 18.9297L44.3094 18.8823L38.2381 20.9057L38.2539 20.9531L38.2697 21.0006L44.341 18.9771L44.3252 18.9297ZM38.2539 20.9531L38.2381 20.9057C37.5311 21.1411 36.8586 20.468 37.0943 19.7609L37.0469 19.7451L36.9994 19.7293C36.7377 20.5145 37.4845 21.2621 38.2697 21.0006L38.2539 20.9531ZM37.0469 19.7451L37.0943 19.7609L39.1177 13.6906L39.0703 13.6748L39.0229 13.659L36.9994 19.7293L37.0469 19.7451ZM39.0703 13.6748L39.1177 13.6906C39.2077 13.4206 39.4197 13.2088 39.6897 13.1187L39.6738 13.0713L39.658 13.0239C39.3582 13.1239 39.1228 13.3591 39.0229 13.659L39.0703 13.6748ZM39.6738 13.0713L39.6896 13.1187L45.7609 11.0943L45.7451 11.0469L45.7293 10.9994L39.658 13.0239L39.6738 13.0713ZM40.7314 14.7305L40.684 14.7147L39.4155 18.5223L39.4629 18.5381L39.5103 18.5539L40.7789 14.7463L40.7314 14.7305ZM39.4629 18.5381L39.4787 18.5855L43.2853 17.316L43.2695 17.2686L43.2537 17.2211L39.4471 18.4907L39.4629 18.5381ZM43.2695 17.2686L43.317 17.2844L44.5865 13.4777L44.5391 13.4619L44.4916 13.4461L43.2221 17.2527L43.2695 17.2686ZM44.5391 13.4619L44.5233 13.4145L40.7156 14.683L40.7314 14.7305L40.7472 14.7779L44.5549 13.5094L44.5391 13.4619Z" fill="white"/>
</svg>
