<svg width="19" height="19" viewBox="0 0 19 19" fill="none" xmlns="http://www.w3.org/2000/svg">
<path d="M18.641 16.9026L15.3365 13.5982C16.3979 12.1772 17.0348 10.4219 17.0348 8.51667C17.0348 3.82017 13.2136 0 8.51696 0C3.82031 0 0 3.82017 0 8.51667C0 13.2132 3.82031 17.0342 8.51696 17.0342C10.4223 17.0342 12.1785 16.3974 13.5987 15.336L16.9032 18.6404C17.1427 18.8798 17.4576 19 17.7717 19C18.0857 19 18.4006 18.8798 18.6401 18.6404C19.12 18.1605 19.12 17.3825 18.6401 16.9035L18.641 16.9026ZM2.45623 8.51667C2.45623 5.17456 5.17562 2.45614 8.51696 2.45614C11.8583 2.45614 14.5777 5.17544 14.5777 8.51667C14.5777 11.8579 11.8583 14.5772 8.51696 14.5772C5.17562 14.5772 2.45623 11.8579 2.45623 8.51667Z" fill="#414141"/>
</svg>
