<svg width="24" height="24" viewBox="0 0 24 24" fill="none" xmlns="http://www.w3.org/2000/svg">
<path d="M3 11.9241V19.9241C3 21.5809 4.34315 22.9241 6 22.9241H18C19.6569 22.9241 21 21.5809 21 19.9241V11.9241C21 11.3718 20.5523 10.9241 20 10.9241C19.4477 10.9241 19 11.3718 19 11.9241V19.9241C19 20.4764 18.5523 20.9241 18 20.9241H6C5.44772 20.9241 5 20.4764 5 19.9241V11.9241C5 11.3718 4.55228 10.9241 4 10.9241C3.44772 10.9241 3 11.3718 3 11.9241Z" fill="#111111"/>
<path d="M15.2929 6.63118C15.6834 7.0217 16.3166 7.0217 16.7071 6.63118C17.0976 6.24065 17.0976 5.60749 16.7071 5.21697L12.7071 1.21697C12.3166 0.826441 11.6834 0.826441 11.2929 1.21697L7.29289 5.21697C6.90237 5.60749 6.90237 6.24065 7.29289 6.63118C7.68342 7.0217 8.31658 7.0217 8.70711 6.63118L12 3.33829L15.2929 6.63118Z" fill="#111111"/>
<path d="M11 1.92407V14.9241C11 15.4764 11.4477 15.9241 12 15.9241C12.5523 15.9241 13 15.4764 13 14.9241V1.92407C13 1.37179 12.5523 0.924072 12 0.924072C11.4477 0.924072 11 1.37179 11 1.92407Z" fill="#111111"/>
</svg>
