<svg width="84" height="54" viewBox="0 0 84 54" fill="none" xmlns="http://www.w3.org/2000/svg">
<path d="M48.4619 7.86621C48.7309 7.76895 49.0124 7.77816 49.2822 7.89746C49.5585 8.01965 49.8324 8.26346 50.04 8.63281C50.2477 9.00223 50.3664 9.46054 50.3662 9.94238V23.6475C50.3662 23.7578 50.2773 23.8475 50.167 23.8477H33.5C33.3895 23.8477 33.2998 23.7579 33.2998 23.6475V20.2363C33.2998 19.7078 33.4437 19.2109 33.6865 18.8281L38.3535 11.4756C38.631 11.0382 38.9942 10.8101 39.332 10.7559C39.6621 10.703 40.0263 10.8058 40.3506 11.1123L43.208 13.8115L43.9131 14.4785L44.4326 13.6592L47.6865 8.5332C47.9076 8.18469 48.1867 7.96574 48.4619 7.86621Z" fill="white" stroke="#333950" stroke-width="1.6"/>
<path d="M31.552 42.664H41.464V43.672H31.552V42.664ZM36.484 44.476C37.668 44.476 38.592 44.652 39.256 45.004C39.928 45.348 40.264 45.84 40.264 46.48C40.264 47.112 39.928 47.6 39.256 47.944C38.592 48.296 37.668 48.472 36.484 48.472C35.316 48.472 34.396 48.296 33.724 47.944C33.052 47.6 32.716 47.112 32.716 46.48C32.716 45.84 33.052 45.348 33.724 45.004C34.396 44.652 35.316 44.476 36.484 44.476ZM36.484 45.448C35.956 45.448 35.504 45.488 35.128 45.568C34.752 45.64 34.464 45.752 34.264 45.904C34.072 46.056 33.976 46.248 33.976 46.48C33.976 46.704 34.072 46.892 34.264 47.044C34.464 47.196 34.752 47.312 35.128 47.392C35.504 47.464 35.956 47.5 36.484 47.5C37.028 47.5 37.484 47.464 37.852 47.392C38.228 47.312 38.512 47.196 38.704 47.044C38.896 46.892 38.992 46.704 38.992 46.48C38.992 46.248 38.896 46.056 38.704 45.904C38.512 45.752 38.228 45.64 37.852 45.568C37.484 45.488 37.028 45.448 36.484 45.448ZM35.668 38.572H36.784V38.872C36.784 39.216 36.716 39.54 36.58 39.844C36.444 40.148 36.248 40.428 35.992 40.684C35.736 40.932 35.432 41.156 35.08 41.356C34.728 41.548 34.332 41.712 33.892 41.848C33.46 41.976 32.992 42.064 32.488 42.112L32.044 41.128C32.476 41.088 32.876 41.02 33.244 40.924C33.62 40.82 33.956 40.696 34.252 40.552C34.548 40.408 34.8 40.248 35.008 40.072C35.216 39.896 35.376 39.708 35.488 39.508C35.608 39.3 35.668 39.088 35.668 38.872V38.572ZM36.232 38.572H37.348V38.872C37.348 39.088 37.404 39.3 37.516 39.508C37.628 39.708 37.788 39.896 37.996 40.072C38.204 40.248 38.456 40.408 38.752 40.552C39.056 40.696 39.392 40.82 39.76 40.924C40.136 41.02 40.54 41.088 40.972 41.128L40.528 42.112C40.024 42.064 39.552 41.976 39.112 41.848C38.68 41.72 38.284 41.556 37.924 41.356C37.572 41.156 37.268 40.932 37.012 40.684C36.764 40.428 36.572 40.148 36.436 39.844C36.3 39.54 36.232 39.216 36.232 38.872V38.572ZM32.452 38.056H40.564V39.064H32.452V38.056ZM45.5071 42.532H46.7551V45.1H45.5071V42.532ZM50.4751 37.528H51.7351V45.796H50.4751V37.528ZM44.0671 47.248H51.9991V48.268H44.0671V47.248ZM44.0671 44.932H45.3271V47.536H44.0671V44.932ZM42.6751 42.784L42.5191 41.776C43.1911 41.768 43.9231 41.76 44.7151 41.752C45.5151 41.736 46.3351 41.704 47.1751 41.656C48.0151 41.6 48.8231 41.52 49.5991 41.416L49.6711 42.304C48.8871 42.44 48.0791 42.544 47.2471 42.616C46.4231 42.688 45.6191 42.736 44.8351 42.76C44.0591 42.776 43.3391 42.784 42.6751 42.784ZM48.2191 43.444H50.7751V44.428H48.2191V43.444ZM43.5031 38.128H48.1951V39.136H43.5031V38.128ZM47.4271 38.128H48.6631V38.536C48.6631 38.864 48.6511 39.316 48.6271 39.892C48.6031 40.468 48.5191 41.156 48.3751 41.956L47.1391 41.872C47.2831 41.072 47.3671 40.396 47.3911 39.844C47.4151 39.292 47.4271 38.856 47.4271 38.536V38.128Z" fill="#333950"/>
</svg>
