<svg width="17" height="17" viewBox="0 0 17 17" fill="none" xmlns="http://www.w3.org/2000/svg">
<path fill-rule="evenodd" clip-rule="evenodd" d="M17 8.5C17 10.7543 16.1045 12.9163 14.5104 14.5104C12.9163 16.1045 10.7543 17 8.5 17C6.24566 17 4.08365 16.1045 2.48959 14.5104C0.895533 12.9163 0 10.7543 0 8.5C0 6.24566 0.895533 4.08365 2.48959 2.48959C4.08365 0.895533 6.24566 0 8.5 0C10.7543 0 12.9163 0.895533 14.5104 2.48959C16.1045 4.08365 17 6.24566 17 8.5ZM9.41071 3.94643C9.41071 3.70489 9.31476 3.47325 9.14397 3.30246C8.97318 3.13166 8.74154 3.03571 8.5 3.03571C8.25846 3.03571 8.02682 3.13166 7.85603 3.30246C7.68524 3.47325 7.58929 3.70489 7.58929 3.94643V4.56571C7.05459 4.62324 6.55778 4.86908 6.18769 5.25926C5.81761 5.64945 5.59836 6.15855 5.56916 6.69554C5.53996 7.23253 5.70271 7.7624 6.02831 8.19042C6.3539 8.61843 6.82112 8.91669 7.34643 9.03186L9.13629 9.42407C9.28327 9.45541 9.41341 9.54015 9.50152 9.6619C9.58963 9.78365 9.62946 9.93376 9.6133 10.0832C9.59713 10.2326 9.52612 10.3707 9.41401 10.4708C9.30189 10.5709 9.15664 10.6258 9.00636 10.625H7.99364C7.86822 10.6249 7.7459 10.586 7.64349 10.5136C7.54108 10.4412 7.46361 10.3389 7.42171 10.2206C7.3412 9.99279 7.17347 9.80626 6.95543 9.70208C6.73739 9.59789 6.48689 9.58459 6.25904 9.66511C6.03119 9.74562 5.84465 9.91335 5.74047 10.1314C5.63629 10.3494 5.62299 10.5999 5.7035 10.8278C5.99371 11.6462 6.71136 12.2655 7.58929 12.4124V13.0536C7.58929 13.2951 7.68524 13.5268 7.85603 13.6975C8.02682 13.8683 8.25846 13.9643 8.5 13.9643C8.74154 13.9643 8.97318 13.8683 9.14397 13.6975C9.31476 13.5268 9.41071 13.2951 9.41071 13.0536V12.4124C9.9665 12.3179 10.4721 12.033 10.8409 11.6066C11.2097 11.1802 11.4188 10.6388 11.4323 10.0752C11.4458 9.51159 11.2629 8.96083 10.9149 8.51727C10.5669 8.07371 10.0755 7.76496 9.52486 7.64393L7.73621 7.25293C7.62983 7.2289 7.53599 7.1666 7.47256 7.07787C7.40914 6.98914 7.38055 6.88019 7.39225 6.77175C7.40395 6.66331 7.45511 6.56296 7.53601 6.4898C7.6169 6.41664 7.72186 6.37578 7.83093 6.375H9.00636C9.13178 6.37507 9.2541 6.41398 9.35651 6.48639C9.45892 6.55879 9.5364 6.66114 9.57829 6.77936C9.61815 6.89218 9.67985 6.99604 9.75985 7.08502C9.83986 7.17399 9.9366 7.24634 10.0446 7.29792C10.1525 7.34951 10.2696 7.37933 10.3891 7.38567C10.5086 7.39201 10.6281 7.37476 10.741 7.33489C10.8538 7.29503 10.9576 7.23333 11.0466 7.15333C11.1356 7.07332 11.2079 6.97657 11.2595 6.86861C11.3111 6.76064 11.3409 6.64358 11.3473 6.52409C11.3536 6.4046 11.3364 6.28503 11.2965 6.17221C11.152 5.76392 10.901 5.4017 10.5694 5.12307C10.2378 4.84445 9.83779 4.65956 9.41071 4.58757V3.94643Z" fill="#1AA979"/>
</svg>
