<svg width="23" height="23" viewBox="0 0 23 23" fill="none" xmlns="http://www.w3.org/2000/svg">
<path fill-rule="evenodd" clip-rule="evenodd" d="M23 11.5C23 14.55 21.7884 17.4751 19.6317 19.6317C17.4751 21.7884 14.55 23 11.5 23C8.45001 23 5.52494 21.7884 3.36827 19.6317C1.2116 17.4751 0 14.55 0 11.5C0 8.45001 1.2116 5.52494 3.36827 3.36827C5.52494 1.2116 8.45001 0 11.5 0C14.55 0 17.4751 1.2116 19.6317 3.36827C21.7884 5.52494 23 8.45001 23 11.5ZM12.7321 5.33929C12.7321 5.0125 12.6023 4.6991 12.3713 4.46803C12.1402 4.23696 11.8268 4.10714 11.5 4.10714C11.1732 4.10714 10.8598 4.23696 10.6287 4.46803C10.3977 4.6991 10.2679 5.0125 10.2679 5.33929V6.17714C9.54444 6.25498 8.8723 6.58758 8.37159 7.11548C7.87088 7.64337 7.57425 8.33216 7.53475 9.05867C7.49524 9.78519 7.71543 10.5021 8.15594 11.0812C8.59646 11.6602 9.22858 12.0638 9.93929 12.2196L12.3609 12.7502C12.5597 12.7926 12.7358 12.9073 12.855 13.072C12.9742 13.2367 13.0281 13.4398 13.0062 13.6419C12.9844 13.8441 12.8883 14.0309 12.7366 14.1664C12.5849 14.3018 12.3884 14.3761 12.1851 14.375H10.8149C10.6452 14.3749 10.4797 14.3223 10.3412 14.2243C10.2026 14.1263 10.0978 13.9879 10.0411 13.8279C9.93221 13.5197 9.70529 13.2673 9.41029 13.1263C9.11529 12.9854 8.77637 12.9674 8.46811 13.0763C8.15984 13.1852 7.90747 13.4122 7.76652 13.7072C7.62556 14.0022 7.60757 14.3411 7.7165 14.6494C8.10914 15.7566 9.08007 16.5945 10.2679 16.7933V17.6607C10.2679 17.9875 10.3977 18.3009 10.6287 18.532C10.8598 18.763 11.1732 18.8929 11.5 18.8929C11.8268 18.8929 12.1402 18.763 12.3713 18.532C12.6023 18.3009 12.7321 17.9875 12.7321 17.6607V16.7933C13.4841 16.6654 14.1682 16.2799 14.6671 15.703C15.1661 15.1261 15.449 14.3937 15.4672 13.6312C15.4855 12.8686 15.238 12.1235 14.7672 11.5234C14.2964 10.9233 13.6315 10.5055 12.8866 10.3418L10.4666 9.81279C10.3227 9.78028 10.1957 9.69598 10.1099 9.57594C10.0241 9.45589 9.98545 9.30849 10.0013 9.16178C10.0171 9.01507 10.0863 8.8793 10.1958 8.78032C10.3052 8.68134 10.4472 8.62606 10.5948 8.625H12.1851C12.3548 8.6251 12.5203 8.67774 12.6588 8.7757C12.7974 8.87366 12.9022 9.01213 12.9589 9.17207C13.0128 9.32471 13.0963 9.46523 13.2045 9.58561C13.3127 9.70599 13.4436 9.80387 13.5897 9.87366C13.7358 9.94345 13.8942 9.98379 14.0558 9.99238C14.2175 10.001 14.3793 9.97761 14.5319 9.92368C14.6845 9.86974 14.8251 9.78627 14.9454 9.67803C15.0658 9.56979 15.1637 9.43889 15.2335 9.29282C15.3033 9.14675 15.3436 8.98837 15.3522 8.82671C15.3608 8.66505 15.3374 8.50328 15.2835 8.35064C15.088 7.79825 14.7484 7.30818 14.2998 6.93122C13.8512 6.55425 13.3099 6.30411 12.7321 6.20671V5.33929Z" fill="#6B7684"/>
</svg>
