<svg width="23" height="23" viewBox="0 0 23 23" fill="none" xmlns="http://www.w3.org/2000/svg">
<g clip-path="url(#clip0_302_774)">
<path d="M11.4999 1.71777C0.285625 1.71777 0.0214844 14.2887 0.0214844 16.7756C0.0214844 19.2661 5.15875 21.2821 11.4999 21.2821C17.8393 21.2821 22.9784 19.2661 22.9784 16.7756C22.9784 14.2887 22.7124 1.71777 11.4999 1.71777Z" fill="#FCC21B"/>
<path d="M17.2788 7.25937C17.4189 7.02937 17.7172 6.9539 17.949 7.09226C18.0599 7.15813 18.1403 7.26517 18.1726 7.39004C18.2049 7.51492 18.1865 7.64751 18.1215 7.7589C18.0892 7.8146 17.2949 9.12812 15.5394 9.12812C13.7821 9.12812 12.9878 7.8146 12.9537 7.7589C12.9103 7.68427 12.8873 7.59952 12.8871 7.51319C12.8868 7.42686 12.9093 7.34198 12.9523 7.26711C12.9953 7.19224 13.0573 7.13002 13.132 7.08671C13.2066 7.04339 13.2914 7.02052 13.3778 7.02039C13.5431 7.02039 13.7066 7.10484 13.7982 7.25757C13.8216 7.2971 14.3589 8.14882 15.5394 8.14882C16.7199 8.14882 17.2554 7.2971 17.2788 7.25937ZM5.05284 7.08867C5.1301 7.04195 5.21635 7.02039 5.29901 7.02039C5.46792 7.02039 5.63143 7.10843 5.72307 7.26117C5.74284 7.2971 6.27651 8.14882 7.45885 8.14882C8.66096 8.14882 9.19463 7.27015 9.20002 7.26117C9.26736 7.15216 9.37476 7.0739 9.49916 7.04319C9.62356 7.01249 9.75504 7.03179 9.86537 7.09695C9.97569 7.16211 10.0561 7.26794 10.0892 7.3917C10.1224 7.51547 10.1057 7.6473 10.0428 7.7589C10.0104 7.8146 9.2162 9.12812 7.45885 9.12812C5.70331 9.12812 4.91088 7.8146 4.87854 7.7589C4.74198 7.5271 4.82104 7.22523 5.05284 7.08867Z" fill="#2F2F2F"/>
<path d="M15.1836 16.7954C15.1836 19.3056 13.5341 20.364 11.5 20.364C9.46594 20.364 7.81641 19.3056 7.81641 16.7954C7.81641 14.2851 9.46594 11.2736 11.5 11.2736C13.5341 11.2736 15.1836 14.2851 15.1836 16.7954Z" fill="#ED6C30"/>
<path d="M9.32952 14.215C8.14178 15.7639 6.44374 15.9436 5.39975 15.5789C3.62444 14.9571 3.08717 12.5134 4.36835 11.1118C4.90561 10.5207 5.74116 10.1092 6.53538 10.0032C7.51108 9.87199 8.62155 10.19 9.5703 10.2134C9.98358 10.2242 10.5298 10.1703 10.9287 10.0104C11.0024 9.9798 11.0419 9.9798 11.024 10.0732C10.7005 11.6491 9.87577 13.5017 9.32952 14.215Z" fill="white"/>
</g>
<defs>
<clipPath id="clip0_302_774">
<rect width="23" height="23" fill="white"/>
</clipPath>
</defs>
</svg>
