<svg width="23" height="23" viewBox="0 0 23 23" fill="none" xmlns="http://www.w3.org/2000/svg">
<path fill-rule="evenodd" clip-rule="evenodd" d="M11.5 23C17.8514 23 23 17.8514 23 11.5C23 5.14855 17.8514 0 11.5 0C5.14855 0 0 5.14855 0 11.5C0 17.8514 5.14855 23 11.5 23ZM8.0155 7.77055C7.93963 7.47661 7.75061 7.22459 7.48966 7.06946C7.22872 6.91433 6.91701 6.86867 6.62254 6.94244C6.32806 7.01621 6.0747 7.20342 5.91771 7.46326C5.76072 7.72309 5.71283 8.03445 5.7845 8.32945L6.003 9.2H5.75C5.445 9.2 5.15249 9.32116 4.93683 9.53683C4.72116 9.75249 4.6 10.045 4.6 10.35C4.6 10.655 4.72116 10.9475 4.93683 11.1632C5.15249 11.3788 5.445 11.5 5.75 11.5H6.578L6.8655 12.65H5.75C5.445 12.65 5.15249 12.7712 4.93683 12.9868C4.72116 13.2025 4.6 13.495 4.6 13.8C4.6 14.105 4.72116 14.3975 4.93683 14.6132C5.15249 14.8288 5.445 14.95 5.75 14.95H7.4405L7.98905 17.1465C8.29495 18.3735 10.0153 18.4402 10.4155 17.2385L11.5 13.9863L12.5844 17.2385C12.9846 18.4402 14.7051 18.3735 15.011 17.1465L15.5606 14.95H17.25C17.555 14.95 17.8475 14.8288 18.0632 14.6132C18.2788 14.3975 18.4 14.105 18.4 13.8C18.4 13.495 18.2788 13.2025 18.0632 12.9868C17.8475 12.7712 17.555 12.65 17.25 12.65H16.1345L16.422 11.5H17.25C17.555 11.5 17.8475 11.3788 18.0632 11.1632C18.2788 10.9475 18.4 10.655 18.4 10.35C18.4 10.045 18.2788 9.75249 18.0632 9.53683C17.8475 9.32116 17.555 9.2 17.25 9.2H16.997L17.2155 8.32945C17.2534 8.18255 17.2619 8.02961 17.2404 7.87942C17.219 7.72923 17.168 7.58477 17.0905 7.45437C17.013 7.32396 16.9104 7.21018 16.7887 7.11959C16.667 7.02899 16.5286 6.96337 16.3815 6.9265C16.2343 6.88964 16.0813 6.88225 15.9313 6.90478C15.7812 6.9273 15.6371 6.97929 15.5073 7.05775C15.3774 7.1362 15.2644 7.23958 15.1747 7.36191C15.0849 7.48425 15.0203 7.62313 14.9845 7.77055L13.6424 13.1399L12.5914 9.9866C12.5152 9.75736 12.3688 9.55792 12.1729 9.41658C11.977 9.27523 11.7416 9.19917 11.5 9.19917C11.2584 9.19917 11.023 9.27523 10.8271 9.41658C10.6312 9.55792 10.4848 9.75736 10.4086 9.9866L9.35755 13.1399L8.0155 7.77055Z" fill="#6B7684"/>
</svg>
