<svg width="17" height="17" viewBox="0 0 17 17" fill="none" xmlns="http://www.w3.org/2000/svg">
<path fill-rule="evenodd" clip-rule="evenodd" d="M8.5 17C13.1946 17 17 13.1946 17 8.5C17 3.80545 13.1946 0 8.5 0C3.80545 0 0 3.80545 0 8.5C0 13.1946 3.80545 17 8.5 17ZM5.9245 5.74345C5.86842 5.52619 5.72871 5.33991 5.53584 5.22525C5.34296 5.11059 5.11258 5.07684 4.89492 5.13137C4.67726 5.18589 4.49 5.32427 4.37396 5.51632C4.25792 5.70837 4.22253 5.93851 4.2755 6.15655L4.437 6.8H4.25C4.02457 6.8 3.80837 6.88955 3.64896 7.04896C3.48955 7.20837 3.4 7.42457 3.4 7.65C3.4 7.87543 3.48955 8.09163 3.64896 8.25104C3.80837 8.41045 4.02457 8.5 4.25 8.5H4.862L5.0745 9.35H4.25C4.02457 9.35 3.80837 9.43955 3.64896 9.59896C3.48955 9.75837 3.4 9.97457 3.4 10.2C3.4 10.4254 3.48955 10.6416 3.64896 10.801C3.80837 10.9604 4.02457 11.05 4.25 11.05H5.4995L5.90495 12.6735C6.13105 13.5805 7.40265 13.6298 7.69845 12.7415L8.5 10.3377L9.30155 12.7415C9.59735 13.6298 10.869 13.5805 11.0951 12.6735L11.5014 11.05H12.75C12.9754 11.05 13.1916 10.9604 13.351 10.801C13.5104 10.6416 13.6 10.4254 13.6 10.2C13.6 9.97457 13.5104 9.75837 13.351 9.59896C13.1916 9.43955 12.9754 9.35 12.75 9.35H11.9255L12.138 8.5H12.75C12.9754 8.5 13.1916 8.41045 13.351 8.25104C13.5104 8.09163 13.6 7.87543 13.6 7.65C13.6 7.42457 13.5104 7.20837 13.351 7.04896C13.1916 6.88955 12.9754 6.8 12.75 6.8H12.563L12.7245 6.15655C12.7525 6.04797 12.7588 5.93493 12.7429 5.82392C12.7271 5.71291 12.6894 5.60614 12.6321 5.50975C12.5748 5.41336 12.499 5.32927 12.4091 5.2623C12.3191 5.19534 12.2168 5.14684 12.108 5.11959C11.9993 5.09234 11.8862 5.08688 11.7753 5.10353C11.6644 5.12018 11.5579 5.15861 11.4619 5.2166C11.3659 5.27459 11.2824 5.35099 11.2161 5.44141C11.1497 5.53183 11.102 5.63449 11.0755 5.74345L10.0836 9.7121L9.30665 7.3814C9.25036 7.21196 9.14214 7.06455 8.99735 6.96008C8.85256 6.85561 8.67855 6.79938 8.5 6.79938C8.32145 6.79938 8.14744 6.85561 8.00265 6.96008C7.85786 7.06455 7.74964 7.21196 7.69335 7.3814L6.91645 9.7121L5.9245 5.74345Z" fill="#3182F6"/>
</svg>
