<svg width="12" height="17" viewBox="0 0 12 17" fill="none" xmlns="http://www.w3.org/2000/svg">
<path d="M0.75 0.75V15.75V0.75Z" fill="#0922AC"/>
<path d="M0.75 0.75V15.75" stroke="#0922AC" stroke-width="1.5" stroke-miterlimit="10" stroke-linecap="round" stroke-linejoin="round"/>
<path d="M0.75 2.25H9.15C11.175 2.25 11.625 3.375 10.2 4.8L9.3 5.7C8.7 6.3 8.7 7.275 9.3 7.8L10.2 8.7C11.625 10.125 11.1 11.25 9.15 11.25H0.75" fill="#0922AC"/>
<path d="M0.75 2.25H9.15C11.175 2.25 11.625 3.375 10.2 4.8L9.3 5.7C8.7 6.3 8.7 7.275 9.3 7.8L10.2 8.7C11.625 10.125 11.1 11.25 9.15 11.25H0.75" stroke="#0922AC" stroke-width="1.5" stroke-miterlimit="10" stroke-linecap="round" stroke-linejoin="round"/>
</svg>
