<svg width="21" height="21" viewBox="0 0 21 21" fill="none" xmlns="http://www.w3.org/2000/svg">
<path d="M2.18716 16.6246V6.12463H18.8122V16.6246C18.8122 17.5871 18.0247 18.3746 17.0622 18.3746H3.93716C2.97466 18.3746 2.18716 17.5871 2.18716 16.6246Z" fill="#CFD8DC"/>
<path d="M18.8122 4.375V7H2.18716V4.375C2.18716 3.4125 2.97466 2.625 3.93716 2.625H17.0622C18.0247 2.625 18.8122 3.4125 18.8122 4.375Z" fill="#F44336"/>
<path d="M14.4375 5.68823C15.1624 5.68823 15.75 5.10061 15.75 4.37573C15.75 3.65086 15.1624 3.06323 14.4375 3.06323C13.7126 3.06323 13.125 3.65086 13.125 4.37573C13.125 5.10061 13.7126 5.68823 14.4375 5.68823Z" fill="#B71C1C"/>
<path d="M6.5625 5.68823C7.28737 5.68823 7.875 5.10061 7.875 4.37573C7.875 3.65086 7.28737 3.06323 6.5625 3.06323C5.83763 3.06323 5.25 3.65086 5.25 4.37573C5.25 5.10061 5.83763 5.68823 6.5625 5.68823Z" fill="#B71C1C"/>
<path d="M14.4378 1.3125C13.9566 1.3125 13.5628 1.70625 13.5628 2.1875V4.375C13.5628 4.85625 13.9566 5.25 14.4378 5.25C14.9191 5.25 15.3128 4.85625 15.3128 4.375V2.1875C15.3128 1.70625 14.9191 1.3125 14.4378 1.3125ZM6.56284 1.3125C6.08159 1.3125 5.68784 1.70625 5.68784 2.1875V4.375C5.68784 4.85625 6.08159 5.25 6.56284 5.25C7.04409 5.25 7.43784 4.85625 7.43784 4.375V2.1875C7.43784 1.70625 7.04409 1.3125 6.56284 1.3125Z" fill="#B0BEC5"/>
<path d="M5.68784 8.74963H7.43784V10.4996H5.68784V8.74963ZM8.31284 8.74963H10.0628V10.4996H8.31284V8.74963ZM10.9378 8.74963H12.6878V10.4996H10.9378V8.74963ZM13.5628 8.74963H15.3128V10.4996H13.5628V8.74963ZM5.68784 11.3746H7.43784V13.1246H5.68784V11.3746ZM8.31284 11.3746H10.0628V13.1246H8.31284V11.3746ZM10.9378 11.3746H12.6878V13.1246H10.9378V11.3746ZM13.5628 11.3746H15.3128V13.1246H13.5628V11.3746ZM5.68784 13.9996H7.43784V15.7496H5.68784V13.9996ZM8.31284 13.9996H10.0628V15.7496H8.31284V13.9996ZM10.9378 13.9996H12.6878V15.7496H10.9378V13.9996ZM13.5628 13.9996H15.3128V15.7496H13.5628V13.9996Z" fill="#90A4AE"/>
</svg>
